<svg width="393" height="146" viewBox="0 0 393 146" fill="none" xmlns="http://www.w3.org/2000/svg">
<rect width="393" height="146" fill="white"/>
<path d="M171.663 40.2812C166.87 40.2812 163.823 36.9062 163.823 31.5391V31.5273C163.823 26.1602 166.87 22.8086 171.663 22.8086C175.39 22.8086 178.191 25.1055 178.718 28.4453L178.741 28.5508H176.14L176.07 28.3164C175.507 26.3359 173.937 25.1289 171.663 25.1289C168.523 25.1289 166.507 27.6133 166.507 31.5273V31.5391C166.507 35.4531 168.534 37.9609 171.663 37.9609C173.913 37.9609 175.472 36.7891 176.105 34.6445L176.14 34.5391H178.741L178.73 34.6562C178.202 38.0195 175.402 40.2812 171.663 40.2812ZM180.189 40V23.0898H182.721V29.6992H182.779C183.435 28.2695 184.76 27.4375 186.6 27.4375C189.236 27.4375 190.971 29.4062 190.971 32.3828V40H188.439V32.8633C188.439 30.8242 187.408 29.6055 185.627 29.6055C183.881 29.6055 182.721 30.9414 182.721 32.8633V40H180.189ZM197.973 40.2461C194.352 40.2461 192.161 37.7734 192.161 33.8828V33.8711C192.161 30.0156 194.387 27.4375 197.844 27.4375C201.301 27.4375 203.423 29.9219 203.423 33.625V34.4805H194.692C194.739 36.8125 196.016 38.1719 198.032 38.1719C199.532 38.1719 200.528 37.3984 200.844 36.4727L200.88 36.3789H203.282L203.258 36.5078C202.86 38.4648 200.962 40.2461 197.973 40.2461ZM197.856 29.5117C196.215 29.5117 194.95 30.625 194.727 32.6875H200.915C200.704 30.5547 199.508 29.5117 197.856 29.5117ZM209.933 40.2461C206.312 40.2461 204.12 37.7734 204.12 33.8828V33.8711C204.12 30.0156 206.347 27.4375 209.804 27.4375C213.261 27.4375 215.382 29.9219 215.382 33.625V34.4805H206.652C206.699 36.8125 207.976 38.1719 209.992 38.1719C211.492 38.1719 212.488 37.3984 212.804 36.4727L212.839 36.3789H215.242L215.218 36.5078C214.82 38.4648 212.921 40.2461 209.933 40.2461ZM209.816 29.5117C208.175 29.5117 206.91 30.625 206.687 32.6875H212.874C212.663 30.5547 211.468 29.5117 209.816 29.5117ZM217.369 40V29.6875H215.67V27.6719H217.369V26.3594C217.369 23.9688 218.494 22.8438 221.002 22.8438C221.518 22.8438 222.08 22.8906 222.42 22.9492V24.8242C222.174 24.7891 221.857 24.7656 221.541 24.7656C220.404 24.7656 219.865 25.3164 219.865 26.4062V27.6719H222.373V29.6875H219.912V40H217.369ZM224.384 40V29.6875H222.684V27.6719H224.384V26.3594C224.384 23.9688 225.509 22.8438 228.016 22.8438C228.532 22.8438 229.095 22.8906 229.434 22.9492V24.8242C229.188 24.7891 228.872 24.7656 228.555 24.7656C227.419 24.7656 226.88 25.3164 226.88 26.4062V27.6719H229.388V29.6875H226.927V40H224.384Z" fill="#B10700"/>
<path opacity="0.4" d="M34.5159 74.1992C31.1873 74.1992 29.0457 71.7754 29.0457 68.0068V67.9985C29.0457 64.23 31.179 61.8228 34.5159 61.8228C37.0061 61.8228 38.9402 63.3335 39.3968 65.5996L39.4134 65.6826H37.9026L37.8445 65.5C37.3797 64.0474 36.201 63.2007 34.5159 63.2007C32.1253 63.2007 30.5813 65.085 30.5813 67.9985V68.0068C30.5813 70.9204 32.1336 72.8213 34.5159 72.8213C36.1927 72.8213 37.3548 71.9912 37.8777 70.4141L37.9026 70.3394H39.4134L39.3968 70.4224C38.9402 72.7134 37.0227 74.1992 34.5159 74.1992ZM44.361 74.166C41.962 74.166 40.36 72.4312 40.36 69.6836V69.667C40.36 66.9194 41.9703 65.2012 44.3527 65.2012C46.735 65.2012 48.3536 66.9111 48.3536 69.667V69.6836C48.3536 72.4395 46.7433 74.166 44.361 74.166ZM44.3693 72.8877C45.8883 72.8877 46.8761 71.709 46.8761 69.6836V69.667C46.8761 67.6416 45.88 66.4795 44.3527 66.4795C42.8502 66.4795 41.8375 67.6499 41.8375 69.667V69.6836C41.8375 71.7173 42.8419 72.8877 44.3693 72.8877ZM55.6171 65.3672V66.5625H52.8364V74H51.3921V66.5625H48.6113V65.3672H55.6171ZM62.283 74V70.1235H58.0579V74H56.6136V65.3672H58.0579V68.9282H62.283V65.3672H63.7273V74H62.283ZM65.421 74V65.3672H66.8654V71.7837H66.9318L71.2316 65.3672H72.6593V74H71.215V67.5835H71.1486L66.8488 74H65.421ZM77.4993 76.9053V65.3672H78.9437V66.8281H78.9769C79.5164 65.8237 80.4793 65.2012 81.7161 65.2012C83.9241 65.2012 85.3851 66.9609 85.3851 69.6836V69.6919C85.3851 72.4146 83.9075 74.166 81.741 74.166C80.5208 74.166 79.5164 73.5518 78.9769 72.5557H78.9437V76.9053H77.4993ZM81.4339 72.8877C82.9613 72.8877 83.9075 71.6592 83.9075 69.6919V69.6836C83.9075 67.6997 82.9613 66.4795 81.4339 66.4795C79.973 66.4795 78.9354 67.7495 78.9354 69.6836V69.6919C78.9354 71.6177 79.9813 72.8877 81.4339 72.8877ZM90.2248 74.166C87.7428 74.166 86.2487 72.4312 86.2487 69.7168V69.7085C86.2487 67.0356 87.776 65.2012 90.1335 65.2012C92.4909 65.2012 93.9269 66.9526 93.9269 69.5425V70.0737H87.7096C87.7428 71.8501 88.7223 72.8877 90.258 72.8877C91.3537 72.8877 92.1256 72.3398 92.3747 71.6011L92.3996 71.5264H93.819L93.8024 71.6094C93.5202 73.0371 92.109 74.166 90.2248 74.166ZM90.1252 66.4795C88.8717 66.4795 87.8922 67.3345 87.7345 68.9448H92.4577C92.3166 67.2681 91.3869 66.4795 90.1252 66.4795ZM98.7915 74.166C96.3428 74.166 94.7905 72.4229 94.7905 69.6753V69.667C94.7905 66.9443 96.376 65.2012 98.7749 65.2012C100.925 65.2012 102.195 66.6289 102.377 68.1064L102.386 68.1729H100.975L100.958 68.1064C100.742 67.2432 100.045 66.4795 98.7749 66.4795C97.2725 66.4795 96.2681 67.7246 96.2681 69.6836V69.6919C96.2681 71.7007 97.2974 72.8877 98.7915 72.8877C99.9702 72.8877 100.726 72.2236 100.966 71.2607L100.983 71.1943H102.402L102.394 71.2524C102.162 72.896 100.742 74.166 98.7915 74.166ZM109.699 65.3672V66.5625H106.918V74H105.474V66.5625H102.693V65.3672H109.699ZM114.115 74.166C111.716 74.166 110.114 72.4312 110.114 69.6836V69.667C110.114 66.9194 111.725 65.2012 114.107 65.2012C116.489 65.2012 118.108 66.9111 118.108 69.667V69.6836C118.108 72.4395 116.498 74.166 114.115 74.166ZM114.124 72.8877C115.643 72.8877 116.631 71.709 116.631 69.6836V69.667C116.631 67.6416 115.634 66.4795 114.107 66.4795C112.605 66.4795 111.592 67.6499 111.592 69.667V69.6836C111.592 71.7173 112.596 72.8877 114.124 72.8877ZM119.395 76.9053V65.3672H120.839V66.8281H120.873C121.412 65.8237 122.375 65.2012 123.612 65.2012C125.82 65.2012 127.281 66.9609 127.281 69.6836V69.6919C127.281 72.4146 125.803 74.166 123.637 74.166C122.417 74.166 121.412 73.5518 120.873 72.5557H120.839V76.9053H119.395ZM123.33 72.8877C124.857 72.8877 125.803 71.6592 125.803 69.6919V69.6836C125.803 67.6997 124.857 66.4795 123.33 66.4795C121.869 66.4795 120.831 67.7495 120.831 69.6836V69.6919C120.831 71.6177 121.877 72.8877 123.33 72.8877ZM131.091 74.166C129.373 74.166 128.219 73.1284 128.219 71.5596V71.543C128.219 70.0737 129.365 69.1523 131.348 69.0361L133.822 68.895V68.1729C133.822 67.1187 133.133 66.4795 131.93 66.4795C130.817 66.4795 130.12 67.0107 129.954 67.7827L129.937 67.8574H128.543L128.551 67.7661C128.676 66.3467 129.912 65.2012 131.946 65.2012C133.988 65.2012 135.266 66.3052 135.266 68.0317V74H133.822V72.5972H133.789C133.283 73.5435 132.245 74.166 131.091 74.166ZM129.697 71.5596C129.697 72.3896 130.377 72.9126 131.415 72.9126C132.776 72.9126 133.822 71.9746 133.822 70.7212V70.0156L131.515 70.1567C130.361 70.2231 129.697 70.7378 129.697 71.543V71.5596ZM142.588 74V70.1235H138.363V74H136.919V65.3672H138.363V68.9282H142.588V65.3672H144.032V74H142.588ZM149.312 74.166C146.913 74.166 145.311 72.4312 145.311 69.6836V69.667C145.311 66.9194 146.921 65.2012 149.304 65.2012C151.686 65.2012 153.305 66.9111 153.305 69.667V69.6836C153.305 72.4395 151.694 74.166 149.312 74.166ZM149.32 72.8877C150.839 72.8877 151.827 71.709 151.827 69.6836V69.667C151.827 67.6416 150.831 66.4795 149.304 66.4795C147.801 66.4795 146.789 67.6499 146.789 69.667V69.6836C146.789 71.7173 147.793 72.8877 149.32 72.8877ZM154.583 74V65.3672H158.277C159.896 65.3672 160.884 66.2222 160.884 67.5918V67.6084C160.884 68.4966 160.261 69.3101 159.464 69.4761V69.5425C160.552 69.6919 161.266 70.4556 161.266 71.5098V71.5264C161.266 73.0454 160.137 74 158.302 74H154.583ZM156.028 68.978H157.846C158.933 68.978 159.448 68.5879 159.448 67.7578V67.7412C159.448 66.9692 158.966 66.5625 158.061 66.5625H156.028V68.978ZM156.028 72.8047H158.178C159.224 72.8047 159.788 72.3564 159.788 71.4932V71.4766C159.788 70.5884 159.182 70.1733 157.92 70.1733H156.028V72.8047ZM165.724 74V65.3672H167.168V71.7837H167.234L171.534 65.3672H172.962V74H171.518V67.5835H171.451L167.151 74H165.724ZM181.38 74.166C178.981 74.166 177.379 72.4312 177.379 69.6836V69.667C177.379 66.9194 178.989 65.2012 181.371 65.2012C183.754 65.2012 185.372 66.9111 185.372 69.667V69.6836C185.372 72.4395 183.762 74.166 181.38 74.166ZM181.388 72.8877C182.907 72.8877 183.895 71.709 183.895 69.6836V69.667C183.895 67.6416 182.899 66.4795 181.371 66.4795C179.869 66.4795 178.856 67.6499 178.856 69.667V69.6836C178.856 71.7173 179.861 72.8877 181.388 72.8877ZM192.636 65.3672V66.5625H189.855V74H188.411V66.5625H185.63V65.3672H192.636ZM193.79 76.3657H192.445V72.8047H193.167C193.798 72.3896 194.105 71.3188 194.188 70.1567L194.52 65.3672H200.464V72.8047H201.833V76.3657H200.489V74H193.79V76.3657ZM199.019 72.8047V66.5625H195.79L195.525 70.1899C195.45 71.2773 195.226 72.2153 194.794 72.7715V72.8047H199.019ZM206.349 74.166C203.867 74.166 202.373 72.4312 202.373 69.7168V69.7085C202.373 67.0356 203.901 65.2012 206.258 65.2012C208.615 65.2012 210.052 66.9526 210.052 69.5425V70.0737H203.834C203.867 71.8501 204.847 72.8877 206.383 72.8877C207.478 72.8877 208.25 72.3398 208.499 71.6011L208.524 71.5264H209.944L209.927 71.6094C209.645 73.0371 208.234 74.166 206.349 74.166ZM206.25 66.4795C204.996 66.4795 204.017 67.3345 203.859 68.9448H208.582C208.441 67.2681 207.511 66.4795 206.25 66.4795ZM213.397 70.1982C213.214 72.5806 212.658 74.083 210.824 74.083C210.55 74.083 210.334 74.0415 210.218 74V72.6968C210.293 72.7217 210.45 72.7549 210.674 72.7549C211.596 72.7549 211.911 71.7505 212.027 70.165L212.368 65.3672H218.436V74H216.991V66.5625H213.671L213.397 70.1982ZM220.138 74V65.3672H221.582V68.123H223.201C225.176 68.123 226.446 69.2603 226.446 71.0532V71.0698C226.446 72.8628 225.176 74 223.201 74H220.138ZM223.176 69.3184H221.582V72.8047H223.176C224.28 72.8047 224.969 72.1157 224.969 71.0698V71.0532C224.969 69.999 224.271 69.3184 223.176 69.3184ZM233.353 74V70.1235H229.128V74H227.683V65.3672H229.128V68.9282H233.353V65.3672H234.797V74H233.353ZM236.491 74V65.3672H237.935V68.123H239.554C241.529 68.123 242.799 69.2603 242.799 71.0532V71.0698C242.799 72.8628 241.529 74 239.554 74H236.491ZM243.895 74V65.3672H245.339V74H243.895ZM239.529 69.3184H237.935V72.8047H239.529C240.633 72.8047 241.322 72.1157 241.322 71.0698V71.0532C241.322 69.999 240.625 69.3184 239.529 69.3184ZM250.586 74.166C248.104 74.166 246.61 72.4312 246.61 69.7168V69.7085C246.61 67.0356 248.137 65.2012 250.495 65.2012C252.852 65.2012 254.288 66.9526 254.288 69.5425V70.0737H248.071C248.104 71.8501 249.083 72.8877 250.619 72.8877C251.715 72.8877 252.487 72.3398 252.736 71.6011L252.761 71.5264H254.18L254.164 71.6094C253.881 73.0371 252.47 74.166 250.586 74.166ZM250.486 66.4795C249.233 66.4795 248.253 67.3345 248.096 68.9448H252.819C252.678 67.2681 251.748 66.4795 250.486 66.4795ZM258.945 73.9917V62.0137H260.44V72.647H264.773V62.0137H266.267V72.647H270.6V62.0137H272.094V73.9917H258.945ZM277.573 74.166C275.091 74.166 273.597 72.4312 273.597 69.7168V69.7085C273.597 67.0356 275.124 65.2012 277.481 65.2012C279.839 65.2012 281.275 66.9526 281.275 69.5425V70.0737H275.058C275.091 71.8501 276.07 72.8877 277.606 72.8877C278.702 72.8877 279.474 72.3398 279.723 71.6011L279.748 71.5264H281.167L281.15 71.6094C280.868 73.0371 279.457 74.166 277.573 74.166ZM277.473 66.4795C276.22 66.4795 275.24 67.3345 275.083 68.9448H279.806C279.665 67.2681 278.735 66.4795 277.473 66.4795ZM286.604 76.8804V74.1079C283.915 74.0581 282.138 72.3481 282.138 69.6919V69.6753C282.138 67.019 283.915 65.3008 286.604 65.2593V62.5283H287.999V65.2593C290.672 65.3091 292.456 67.019 292.456 69.6753V69.6919C292.456 72.3481 290.672 74.0664 287.999 74.1079V76.8804H286.604ZM286.604 72.8711V66.4961C284.762 66.5376 283.591 67.7329 283.591 69.6753V69.6919C283.591 71.626 284.762 72.8213 286.604 72.8711ZM287.999 72.8711C289.833 72.8296 291.004 71.6343 291.004 69.6919V69.6753C291.004 67.7412 289.833 66.5459 287.999 66.4961V72.8711ZM293.735 74V65.3672H295.179V68.123H296.798C298.774 68.123 300.044 69.2603 300.044 71.0532V71.0698C300.044 72.8628 298.774 74 296.798 74H293.735ZM301.139 74V65.3672H302.584V74H301.139ZM296.773 69.3184H295.179V72.8047H296.773C297.877 72.8047 298.566 72.1157 298.566 71.0698V71.0532C298.566 69.999 297.869 69.3184 296.773 69.3184ZM307.415 74V65.3672H311.109C312.728 65.3672 313.716 66.2222 313.716 67.5918V67.6084C313.716 68.4966 313.093 69.3101 312.296 69.4761V69.5425C313.384 69.6919 314.098 70.4556 314.098 71.5098V71.5264C314.098 73.0454 312.969 74 311.134 74H307.415ZM308.86 68.978H310.678C311.765 68.978 312.28 68.5879 312.28 67.7578V67.7412C312.28 66.9692 311.798 66.5625 310.893 66.5625H308.86V68.978ZM308.86 72.8047H311.01C312.056 72.8047 312.62 72.3564 312.62 71.4932V71.4766C312.62 70.5884 312.014 70.1733 310.752 70.1733H308.86V72.8047ZM322.142 74.166C319.743 74.166 318.141 72.4312 318.141 69.6836V69.667C318.141 66.9194 319.751 65.2012 322.133 65.2012C324.516 65.2012 326.134 66.9111 326.134 69.667V69.6836C326.134 72.4395 324.524 74.166 322.142 74.166ZM322.15 72.8877C323.669 72.8877 324.657 71.709 324.657 69.6836V69.667C324.657 67.6416 323.661 66.4795 322.133 66.4795C320.631 66.4795 319.618 67.6499 319.618 69.667V69.6836C319.618 71.7173 320.623 72.8877 322.15 72.8877ZM327.737 76.3657H326.392V72.8047H327.114C327.745 72.3896 328.052 71.3188 328.135 70.1567L328.467 65.3672H334.411V72.8047H335.78V76.3657H334.435V74H327.737V76.3657ZM332.966 72.8047V66.5625H329.737L329.472 70.1899C329.397 71.2773 329.173 72.2153 328.741 72.7715V72.8047H332.966ZM342.404 74V70.1235H338.179V74H336.735V65.3672H338.179V68.9282H342.404V65.3672H343.849V74H342.404ZM349.128 74.166C346.73 74.166 345.127 72.4312 345.127 69.6836V69.667C345.127 66.9194 346.738 65.2012 349.12 65.2012C351.502 65.2012 353.121 66.9111 353.121 69.667V69.6836C353.121 72.4395 351.511 74.166 349.128 74.166ZM349.137 72.8877C350.656 72.8877 351.644 71.709 351.644 69.6836V69.667C351.644 67.6416 350.647 66.4795 349.12 66.4795C347.618 66.4795 346.605 67.6499 346.605 69.667V69.6836C346.605 71.7173 347.609 72.8877 349.137 72.8877ZM355.844 74H354.4V65.3672H356.168L359.223 72.0908H359.289L362.369 65.3672H364.062V74H362.618V67.874H362.559L359.779 73.751H358.675L355.902 67.874H355.844V74ZM53.8205 94V85.3672H60.8596V94H59.407V86.5625H55.2649V94H53.8205ZM62.5533 96.9053V85.3672H63.9976V86.8281H64.0308C64.5704 85.8237 65.5333 85.2012 66.7701 85.2012C68.9781 85.2012 70.439 86.9609 70.439 89.6836V89.6919C70.439 92.4146 68.9615 94.166 66.795 94.166C65.5748 94.166 64.5704 93.5518 64.0308 92.5557H63.9976V96.9053H62.5533ZM66.4879 92.8877C68.0152 92.8877 68.9615 91.6592 68.9615 89.6919V89.6836C68.9615 87.6997 68.0152 86.4795 66.4879 86.4795C65.0269 86.4795 63.9893 87.7495 63.9893 89.6836V89.6919C63.9893 91.6177 65.0352 92.8877 66.4879 92.8877ZM71.7177 94V85.3672H73.162V91.7837H73.2284L77.5282 85.3672H78.956V94H77.5116V87.5835H77.4452L73.1454 94H71.7177ZM83.0403 90.1982C82.8577 92.5806 82.3015 94.083 80.467 94.083C80.1931 94.083 79.9773 94.0415 79.8611 94V92.6968C79.9358 92.7217 80.0935 92.7549 80.3176 92.7549C81.239 92.7549 81.5544 91.7505 81.6706 90.165L82.011 85.3672H88.0788V94H86.6345V86.5625H83.3142L83.0403 90.1982ZM93.3668 94.166C90.9678 94.166 89.3658 92.4312 89.3658 89.6836V89.667C89.3658 86.9194 90.9762 85.2012 93.3585 85.2012C95.7408 85.2012 97.3595 86.9111 97.3595 89.667V89.6836C97.3595 92.4395 95.7491 94.166 93.3668 94.166ZM93.3751 92.8877C94.8941 92.8877 95.8819 91.709 95.8819 89.6836V89.667C95.8819 87.6416 94.8858 86.4795 93.3585 86.4795C91.856 86.4795 90.8433 87.6499 90.8433 89.667V89.6836C90.8433 91.7173 91.8477 92.8877 93.3751 92.8877ZM99.2524 94H97.4013L101.303 89.4512L97.5341 85.3672H99.2939L102.622 89.0527H102.872V85.3672H104.266V89.0527H104.515L107.844 85.3672H109.603L105.835 89.4512L109.736 94H107.885L104.515 89.9824H104.266V94H102.872V89.9824H102.622L99.2524 94ZM113.912 94.166C111.43 94.166 109.936 92.4312 109.936 89.7168V89.7085C109.936 87.0356 111.463 85.2012 113.821 85.2012C116.178 85.2012 117.614 86.9526 117.614 89.5425V90.0737H111.397C111.43 91.8501 112.409 92.8877 113.945 92.8877C115.041 92.8877 115.813 92.3398 116.062 91.6011L116.087 91.5264H117.506L117.49 91.6094C117.207 93.0371 115.796 94.166 113.912 94.166ZM113.812 86.4795C112.559 86.4795 111.579 87.3345 111.422 88.9448H116.145C116.004 87.2681 115.074 86.4795 113.812 86.4795ZM124.562 94V90.1235H120.337V94H118.893V85.3672H120.337V88.9282H124.562V85.3672H126.006V94H124.562ZM127.7 94V85.3672H129.144V91.7837H129.211L133.511 85.3672H134.938V94H133.494V87.5835H133.428L129.128 94H127.7ZM136.624 94V85.3672H138.068V91.7837H138.135L142.434 85.3672H143.862V94H142.418V87.5835H142.351L138.052 94H136.624ZM148.154 89.8164V88.4717H161.344V89.8164H148.154ZM165.628 94V85.3672H169.322C170.941 85.3672 171.928 86.2222 171.928 87.5918V87.6084C171.928 88.4966 171.306 89.3101 170.509 89.4761V89.5425C171.596 89.6919 172.31 90.4556 172.31 91.5098V91.5264C172.31 93.0454 171.181 94 169.347 94H165.628ZM167.072 88.978H168.89C169.978 88.978 170.492 88.5879 170.492 87.7578V87.7412C170.492 86.9692 170.011 86.5625 169.106 86.5625H167.072V88.978ZM167.072 92.8047H169.222C170.268 92.8047 170.833 92.3564 170.833 91.4932V91.4766C170.833 90.5884 170.227 90.1733 168.965 90.1733H167.072V92.8047ZM173.622 94V85.3672H175.066V88.123H176.685C178.661 88.123 179.931 89.2603 179.931 91.0532V91.0698C179.931 92.8628 178.661 94 176.685 94H173.622ZM181.026 94V85.3672H182.471V94H181.026ZM176.66 89.3184H175.066V92.8047H176.66C177.764 92.8047 178.453 92.1157 178.453 91.0698V91.0532C178.453 89.999 177.756 89.3184 176.66 89.3184ZM187.858 94.166C185.21 94.166 183.816 92.3813 183.816 88.9531V88.9365C183.816 84.1802 185.077 82.2046 188.431 82.0718L189.07 82.0469C189.9 82.0137 190.83 81.8394 191.32 81.582V82.8438C191.046 83.0928 190.133 83.3086 189.137 83.3501L188.497 83.375C186.132 83.4663 185.409 84.4873 185.053 86.9858L185.036 87.1021H185.069C185.642 86.0811 186.729 85.5498 188.074 85.5498C190.407 85.5498 191.892 87.1934 191.892 89.7583V89.7749C191.892 92.4893 190.357 94.166 187.858 94.166ZM187.858 92.8877C189.477 92.8877 190.415 91.7588 190.415 89.7749V89.7583C190.415 87.8823 189.477 86.8281 187.858 86.8281C186.231 86.8281 185.293 87.8823 185.293 89.7583V89.7749C185.293 91.7588 186.231 92.8877 187.858 92.8877ZM193.163 94V85.3672H194.607V91.7837H194.673L198.973 85.3672H200.401V94H198.957V87.5835H198.89L194.59 94H193.163ZM202.095 96.9053V85.3672H203.539V86.8281H203.572C204.112 85.8237 205.075 85.2012 206.312 85.2012C208.52 85.2012 209.98 86.9609 209.98 89.6836V89.6919C209.98 92.4146 208.503 94.166 206.336 94.166C205.116 94.166 204.112 93.5518 203.572 92.5557H203.539V96.9053H202.095ZM206.029 92.8877C207.557 92.8877 208.503 91.6592 208.503 89.6919V89.6836C208.503 87.6997 207.557 86.4795 206.029 86.4795C204.568 86.4795 203.531 87.7495 203.531 89.6836V89.6919C203.531 91.6177 204.577 92.8877 206.029 92.8877ZM213.791 94.166C212.073 94.166 210.919 93.1284 210.919 91.5596V91.543C210.919 90.0737 212.064 89.1523 214.048 89.0361L216.522 88.895V88.1729C216.522 87.1187 215.833 86.4795 214.629 86.4795C213.517 86.4795 212.82 87.0107 212.654 87.7827L212.637 87.8574H211.243L211.251 87.7661C211.375 86.3467 212.612 85.2012 214.646 85.2012C216.688 85.2012 217.966 86.3052 217.966 88.0317V94H216.522V92.5972H216.489C215.982 93.5435 214.945 94.166 213.791 94.166ZM212.396 91.5596C212.396 92.3896 213.077 92.9126 214.115 92.9126C215.476 92.9126 216.522 91.9746 216.522 90.7212V90.0156L214.214 90.1567C213.06 90.2231 212.396 90.7378 212.396 91.543V91.5596ZM223.337 84.3877C221.752 84.3877 220.814 83.3501 220.814 82.0386V82.0137H222.001V82.0552C222.001 82.7939 222.449 83.4248 223.345 83.4248C224.209 83.4248 224.69 82.7939 224.69 82.0552V82.0137H225.877V82.0386C225.877 83.3501 224.939 84.3877 223.337 84.3877ZM219.618 94V85.3672H221.063V91.7837H221.129L225.429 85.3672H226.857V94H225.412V87.5835H225.346L221.046 94H219.618ZM234.859 85.3672V86.5625H232.078V94H230.634V86.5625H227.853V85.3672H234.859ZM239.25 94.166C236.768 94.166 235.274 92.4312 235.274 89.7168V89.7085C235.274 87.0356 236.802 85.2012 239.159 85.2012C241.516 85.2012 242.952 86.9526 242.952 89.5425V90.0737H236.735C236.768 91.8501 237.748 92.8877 239.284 92.8877C240.379 92.8877 241.151 92.3398 241.4 91.6011L241.425 91.5264H242.845L242.828 91.6094C242.546 93.0371 241.135 94.166 239.25 94.166ZM239.151 86.4795C237.897 86.4795 236.918 87.3345 236.76 88.9448H241.483C241.342 87.2681 240.412 86.4795 239.151 86.4795ZM243.575 96.3491L244.306 92.29H245.817L244.605 96.3491H243.575ZM252.74 94.166C250.864 94.166 249.511 93.2363 249.337 91.8252L249.328 91.7588H250.789L250.814 91.8418C251.022 92.564 251.711 92.9707 252.74 92.9707C253.935 92.9707 254.691 92.4229 254.691 91.5513V91.5347C254.691 90.6133 254.06 90.1816 252.74 90.1816H251.445V88.9863H252.74C253.886 88.9863 254.458 88.5547 254.458 87.6997V87.6831C254.458 86.8779 253.852 86.3965 252.831 86.3965C251.844 86.3965 251.121 86.8364 250.989 87.5088L250.98 87.5503H249.578L249.586 87.4922C249.785 86.0977 251.038 85.2012 252.831 85.2012C254.716 85.2012 255.87 86.106 255.87 87.5669V87.5835C255.87 88.5049 255.264 89.2769 254.384 89.4761V89.5425C255.496 89.7832 256.11 90.4722 256.11 91.4683V91.4849C256.11 93.0869 254.757 94.166 252.74 94.166ZM259.954 94.166C258.236 94.166 257.082 93.1284 257.082 91.5596V91.543C257.082 90.0737 258.227 89.1523 260.211 89.0361L262.685 88.895V88.1729C262.685 87.1187 261.996 86.4795 260.792 86.4795C259.68 86.4795 258.983 87.0107 258.817 87.7827L258.8 87.8574H257.405L257.414 87.7661C257.538 86.3467 258.775 85.2012 260.809 85.2012C262.851 85.2012 264.129 86.3052 264.129 88.0317V94H262.685V92.5972H262.652C262.145 93.5435 261.108 94.166 259.954 94.166ZM258.559 91.5596C258.559 92.3896 259.24 92.9126 260.278 92.9126C261.639 92.9126 262.685 91.9746 262.685 90.7212V90.0156L260.377 90.1567C259.223 90.2231 258.559 90.7378 258.559 91.543V91.5596ZM267.558 90.0156H267.226V94H265.781V85.3672H267.226V89.0195H267.558L270.961 85.3672H272.712L268.861 89.4512L272.829 94H271.003L267.558 90.0156ZM275.975 94.166C274.257 94.166 273.103 93.1284 273.103 91.5596V91.543C273.103 90.0737 274.248 89.1523 276.232 89.0361L278.706 88.895V88.1729C278.706 87.1187 278.017 86.4795 276.813 86.4795C275.701 86.4795 275.004 87.0107 274.838 87.7827L274.821 87.8574H273.427L273.435 87.7661C273.559 86.3467 274.796 85.2012 276.83 85.2012C278.872 85.2012 280.15 86.3052 280.15 88.0317V94H278.706V92.5972H278.673C278.166 93.5435 277.129 94.166 275.975 94.166ZM274.58 91.5596C274.58 92.3896 275.261 92.9126 276.299 92.9126C277.66 92.9126 278.706 91.9746 278.706 90.7212V90.0156L276.398 90.1567C275.245 90.2231 274.58 90.7378 274.58 91.543V91.5596ZM284.683 94.166C282.807 94.166 281.454 93.2363 281.28 91.8252L281.271 91.7588H282.732L282.757 91.8418C282.965 92.564 283.654 92.9707 284.683 92.9707C285.878 92.9707 286.634 92.4229 286.634 91.5513V91.5347C286.634 90.6133 286.003 90.1816 284.683 90.1816H283.388V88.9863H284.683C285.828 88.9863 286.401 88.5547 286.401 87.6997V87.6831C286.401 86.8779 285.795 86.3965 284.774 86.3965C283.786 86.3965 283.064 86.8364 282.931 87.5088L282.923 87.5503H281.52L281.529 87.4922C281.728 86.0977 282.981 85.2012 284.774 85.2012C286.658 85.2012 287.812 86.106 287.812 87.5669V87.5835C287.812 88.5049 287.206 89.2769 286.326 89.4761V89.5425C287.439 89.7832 288.053 90.4722 288.053 91.4683V91.4849C288.053 93.0869 286.7 94.166 284.683 94.166ZM289.365 94V85.3672H290.809V88.123H292.428C294.403 88.123 295.673 89.2603 295.673 91.0532V91.0698C295.673 92.8628 294.403 94 292.428 94H289.365ZM296.769 94V85.3672H298.213V94H296.769ZM292.403 89.3184H290.809V92.8047H292.403C293.507 92.8047 294.196 92.1157 294.196 91.0698V91.0532C294.196 89.999 293.499 89.3184 292.403 89.3184ZM299.899 94V85.3672H303.593C305.211 85.3672 306.199 86.2222 306.199 87.5918V87.6084C306.199 88.4966 305.577 89.3101 304.78 89.4761V89.5425C305.867 89.6919 306.581 90.4556 306.581 91.5098V91.5264C306.581 93.0454 305.452 94 303.618 94H299.899ZM301.343 88.978H303.161C304.248 88.978 304.763 88.5879 304.763 87.7578V87.7412C304.763 86.9692 304.282 86.5625 303.377 86.5625H301.343V88.978ZM301.343 92.8047H303.493C304.539 92.8047 305.103 92.3564 305.103 91.4932V91.4766C305.103 90.5884 304.497 90.1733 303.236 90.1733H301.343V92.8047ZM310.425 94.166C308.706 94.166 307.552 93.1284 307.552 91.5596V91.543C307.552 90.0737 308.698 89.1523 310.682 89.0361L313.156 88.895V88.1729C313.156 87.1187 312.467 86.4795 311.263 86.4795C310.151 86.4795 309.453 87.0107 309.287 87.7827L309.271 87.8574H307.876L307.885 87.7661C308.009 86.3467 309.246 85.2012 311.28 85.2012C313.322 85.2012 314.6 86.3052 314.6 88.0317V94H313.156V92.5972H313.122C312.616 93.5435 311.578 94.166 310.425 94.166ZM309.03 91.5596C309.03 92.3896 309.711 92.9126 310.748 92.9126C312.11 92.9126 313.156 91.9746 313.156 90.7212V90.0156L310.848 90.1567C309.694 90.2231 309.03 90.7378 309.03 91.543V91.5596ZM319.971 84.3877C318.385 84.3877 317.447 83.3501 317.447 82.0386V82.0137H318.634V82.0552C318.634 82.7939 319.083 83.4248 319.979 83.4248C320.842 83.4248 321.324 82.7939 321.324 82.0552V82.0137H322.511V82.0386C322.511 83.3501 321.573 84.3877 319.971 84.3877ZM316.252 94V85.3672H317.696V91.7837H317.763L322.063 85.3672H323.49V94H322.046V87.5835H321.98L317.68 94H316.252ZM331.493 85.3672V86.5625H328.712V94H327.268V86.5625H324.487V85.3672H331.493ZM335.884 94.166C333.402 94.166 331.908 92.4312 331.908 89.7168V89.7085C331.908 87.0356 333.435 85.2012 335.793 85.2012C338.15 85.2012 339.586 86.9526 339.586 89.5425V90.0737H333.369C333.402 91.8501 334.382 92.8877 335.917 92.8877C337.013 92.8877 337.785 92.3398 338.034 91.6011L338.059 91.5264H339.478L339.462 91.6094C339.179 93.0371 337.768 94.166 335.884 94.166ZM335.784 86.4795C334.531 86.4795 333.552 87.3345 333.394 88.9448H338.117C337.976 87.2681 337.046 86.4795 335.784 86.4795ZM69.252 114V105.367H70.6964V111.784H70.7628L75.0626 105.367H76.4903V114H75.046V107.583H74.9796L70.6797 114H69.252ZM81.322 114V105.367H88.3611V114H86.9084V106.562H82.7663V114H81.322ZM93.6324 114.166C91.2335 114.166 89.6314 112.431 89.6314 109.684V109.667C89.6314 106.919 91.2418 105.201 93.6241 105.201C96.0064 105.201 97.6251 106.911 97.6251 109.667V109.684C97.6251 112.439 96.0147 114.166 93.6324 114.166ZM93.6407 112.888C95.1597 112.888 96.1475 111.709 96.1475 109.684V109.667C96.1475 107.642 95.1514 106.479 93.6241 106.479C92.1217 106.479 91.109 107.65 91.109 109.667V109.684C91.109 111.717 92.1134 112.888 93.6407 112.888ZM100.971 110.198C100.788 112.581 100.232 114.083 98.3974 114.083C98.1235 114.083 97.9076 114.042 97.7914 114V112.697C97.8661 112.722 98.0238 112.755 98.248 112.755C99.1694 112.755 99.4848 111.75 99.601 110.165L99.9413 105.367H106.009V114H104.565V106.562H101.245L100.971 110.198ZM108.55 116.905C108.267 116.905 107.96 116.872 107.778 116.839V115.66C107.902 115.685 108.068 115.71 108.242 115.71C109.156 115.71 109.662 115.478 110.011 114.498L110.185 114.008L106.981 105.367H108.525L110.907 112.556H110.94L113.331 105.367H114.85L111.48 114.54C110.865 116.191 110.11 116.905 108.55 116.905ZM122.387 114H120.943V110.223H120.91C120.37 110.705 119.557 110.945 118.735 110.945C116.66 110.945 115.589 109.767 115.589 107.932V105.367H117.033V107.833C117.033 109.061 117.689 109.667 119.009 109.667C119.773 109.667 120.545 109.401 120.943 109.003V105.367H122.387V114ZM126.613 114.166C124.894 114.166 123.741 113.128 123.741 111.56V111.543C123.741 110.074 124.886 109.152 126.87 109.036L129.344 108.895V108.173C129.344 107.119 128.655 106.479 127.451 106.479C126.339 106.479 125.642 107.011 125.476 107.783L125.459 107.857H124.064L124.073 107.766C124.197 106.347 125.434 105.201 127.468 105.201C129.51 105.201 130.788 106.305 130.788 108.032V114H129.344V112.597H129.31C128.804 113.543 127.767 114.166 126.613 114.166ZM125.218 111.56C125.218 112.39 125.899 112.913 126.936 112.913C128.298 112.913 129.344 111.975 129.344 110.721V110.016L127.036 110.157C125.882 110.223 125.218 110.738 125.218 111.543V111.56ZM136.159 104.388C134.574 104.388 133.636 103.35 133.636 102.039V102.014H134.823V102.055C134.823 102.794 135.271 103.425 136.167 103.425C137.031 103.425 137.512 102.794 137.512 102.055V102.014H138.699V102.039C138.699 103.35 137.761 104.388 136.159 104.388ZM132.44 114V105.367H133.885V111.784H133.951L138.251 105.367H139.678V114H138.234V107.583H138.168L133.868 114H132.44ZM147.681 105.367V106.562H144.9V114H143.456V106.562H140.675V105.367H147.681ZM152.072 114.166C149.59 114.166 148.096 112.431 148.096 109.717V109.708C148.096 107.036 149.624 105.201 151.981 105.201C154.338 105.201 155.774 106.953 155.774 109.542V110.074H149.557C149.59 111.85 150.57 112.888 152.105 112.888C153.201 112.888 153.973 112.34 154.222 111.601L154.247 111.526H155.666L155.65 111.609C155.368 113.037 153.957 114.166 152.072 114.166ZM151.973 106.479C150.719 106.479 149.74 107.334 149.582 108.945H154.305C154.164 107.268 153.234 106.479 151.973 106.479ZM165.753 106.562H161.644V114H160.199V105.367H165.753V106.562ZM170.235 114.166C167.836 114.166 166.234 112.431 166.234 109.684V109.667C166.234 106.919 167.845 105.201 170.227 105.201C172.609 105.201 174.228 106.911 174.228 109.667V109.684C174.228 112.439 172.618 114.166 170.235 114.166ZM170.244 112.888C171.763 112.888 172.75 111.709 172.75 109.684V109.667C172.75 107.642 171.754 106.479 170.227 106.479C168.725 106.479 167.712 107.65 167.712 109.667V109.684C167.712 111.717 168.716 112.888 170.244 112.888ZM175.515 116.905V105.367H176.959V106.828H176.992C177.532 105.824 178.495 105.201 179.732 105.201C181.94 105.201 183.401 106.961 183.401 109.684V109.692C183.401 112.415 181.923 114.166 179.757 114.166C178.536 114.166 177.532 113.552 176.992 112.556H176.959V116.905H175.515ZM179.45 112.888C180.977 112.888 181.923 111.659 181.923 109.692V109.684C181.923 107.7 180.977 106.479 179.45 106.479C177.989 106.479 176.951 107.75 176.951 109.684V109.692C176.951 111.618 177.997 112.888 179.45 112.888ZM189.461 114V110.929H187.842L185.651 114H183.982L186.389 110.663C185.169 110.314 184.43 109.418 184.43 108.239V108.223C184.43 106.455 185.709 105.367 187.693 105.367H190.905V114H189.461ZM187.701 109.733H189.461V106.562H187.701C186.58 106.562 185.908 107.168 185.908 108.198V108.214C185.908 109.103 186.589 109.733 187.701 109.733ZM199.173 114H197.729V110.223H197.695C197.156 110.705 196.342 110.945 195.521 110.945C193.445 110.945 192.375 109.767 192.375 107.932V105.367H193.819V107.833C193.819 109.061 194.475 109.667 195.794 109.667C196.558 109.667 197.33 109.401 197.729 109.003V105.367H199.173V114ZM200.867 114V105.367H202.311V111.784H202.377L206.677 105.367H208.105V114H206.66V107.583H206.594L202.294 114H200.867ZM213.351 114.166C210.869 114.166 209.375 112.431 209.375 109.717V109.708C209.375 107.036 210.903 105.201 213.26 105.201C215.617 105.201 217.053 106.953 217.053 109.542V110.074H210.836C210.869 111.85 211.849 112.888 213.384 112.888C214.48 112.888 215.252 112.34 215.501 111.601L215.526 111.526H216.945L216.929 111.609C216.647 113.037 215.236 114.166 213.351 114.166ZM213.252 106.479C211.998 106.479 211.019 107.334 210.861 108.945H215.584C215.443 107.268 214.513 106.479 213.252 106.479ZM225.181 114.166C222.533 114.166 221.138 112.381 221.138 108.953V108.937C221.138 104.18 222.4 102.205 225.753 102.072L226.392 102.047C227.223 102.014 228.152 101.839 228.642 101.582V102.844C228.368 103.093 227.455 103.309 226.459 103.35L225.82 103.375C223.454 103.466 222.732 104.487 222.375 106.986L222.358 107.102H222.391C222.964 106.081 224.052 105.55 225.396 105.55C227.729 105.55 229.215 107.193 229.215 109.758V109.775C229.215 112.489 227.679 114.166 225.181 114.166ZM225.181 112.888C226.799 112.888 227.737 111.759 227.737 109.775V109.758C227.737 107.882 226.799 106.828 225.181 106.828C223.554 106.828 222.616 107.882 222.616 109.758V109.775C222.616 111.759 223.554 112.888 225.181 112.888ZM232.552 110.198C232.369 112.581 231.813 114.083 229.979 114.083C229.705 114.083 229.489 114.042 229.373 114V112.697C229.447 112.722 229.605 112.755 229.829 112.755C230.751 112.755 231.066 111.75 231.182 110.165L231.523 105.367H237.591V114H236.146V106.562H232.826L232.552 110.198ZM239.293 114V105.367H240.737V108.928H242.223C242.48 106.596 243.908 105.201 246.099 105.201C248.523 105.201 250.017 106.895 250.017 109.675V109.692C250.017 112.464 248.523 114.166 246.099 114.166C243.808 114.166 242.356 112.639 242.189 110.124H240.737V114H239.293ZM246.099 112.888C247.66 112.888 248.54 111.717 248.54 109.692V109.675C248.54 107.642 247.66 106.479 246.099 106.479C244.539 106.479 243.659 107.642 243.659 109.675V109.692C243.659 111.717 244.539 112.888 246.099 112.888ZM251.611 116.366H250.266V112.805H250.989C251.62 112.39 251.927 111.319 252.01 110.157L252.342 105.367H258.285V112.805H259.655V116.366H258.31V114H251.611V116.366ZM256.841 112.805V106.562H253.612L253.346 110.19C253.271 111.277 253.047 112.215 252.616 112.771V112.805H256.841ZM263.141 114.166C261.423 114.166 260.269 113.128 260.269 111.56V111.543C260.269 110.074 261.415 109.152 263.399 109.036L265.872 108.895V108.173C265.872 107.119 265.183 106.479 263.98 106.479C262.867 106.479 262.17 107.011 262.004 107.783L261.988 107.857H260.593L260.601 107.766C260.726 106.347 261.963 105.201 263.996 105.201C266.038 105.201 267.317 106.305 267.317 108.032V114H265.872V112.597H265.839C265.333 113.543 264.295 114.166 263.141 114.166ZM261.747 111.56C261.747 112.39 262.427 112.913 263.465 112.913C264.826 112.913 265.872 111.975 265.872 110.721V110.016L263.565 110.157C262.411 110.223 261.747 110.738 261.747 111.543V111.56ZM277.785 114V110.124H273.559V114H272.115V105.367H273.559V108.928H277.785V105.367H279.229V114H277.785ZM283.454 114.166C281.736 114.166 280.582 113.128 280.582 111.56V111.543C280.582 110.074 281.728 109.152 283.712 109.036L286.185 108.895V108.173C286.185 107.119 285.496 106.479 284.293 106.479C283.18 106.479 282.483 107.011 282.317 107.783L282.301 107.857H280.906L280.914 107.766C281.039 106.347 282.276 105.201 284.309 105.201C286.351 105.201 287.63 106.305 287.63 108.032V114H286.185V112.597H286.152C285.646 113.543 284.608 114.166 283.454 114.166ZM282.06 111.56C282.06 112.39 282.74 112.913 283.778 112.913C285.139 112.913 286.185 111.975 286.185 110.721V110.016L283.878 110.157C282.724 110.223 282.06 110.738 282.06 111.543V111.56ZM292.918 116.366H291.573V112.805H292.295C292.926 112.39 293.233 111.319 293.316 110.157L293.648 105.367H299.592V112.805H300.961V116.366H299.617V114H292.918V116.366ZM298.147 112.805V106.562H294.918L294.653 110.19C294.578 111.277 294.354 112.215 293.922 112.771V112.805H298.147ZM305.502 114.166C303.103 114.166 301.501 112.431 301.501 109.684V109.667C301.501 106.919 303.112 105.201 305.494 105.201C307.876 105.201 309.495 106.911 309.495 109.667V109.684C309.495 112.439 307.885 114.166 305.502 114.166ZM305.51 112.888C307.03 112.888 308.017 111.709 308.017 109.684V109.667C308.017 107.642 307.021 106.479 305.494 106.479C303.991 106.479 302.979 107.65 302.979 109.667V109.684C302.979 111.717 303.983 112.888 305.51 112.888ZM312.218 114H310.774V105.367H312.542L315.596 112.091H315.663L318.742 105.367H320.436V114H318.991V107.874H318.933L316.152 113.751H315.048L312.276 107.874H312.218V114ZM322.935 114.116C322.403 114.116 321.988 113.701 321.988 113.17C321.988 112.639 322.403 112.224 322.935 112.224C323.466 112.224 323.881 112.639 323.881 113.17C323.881 113.701 323.466 114.116 322.935 114.116ZM110.509 134.083C110.293 134.083 110.077 134.05 109.927 134V132.664C110.019 132.688 110.243 132.713 110.376 132.713C111.513 132.713 112.019 131.784 112.152 129.468L112.584 122.022H119.938V134H118.444V123.367H113.945L113.563 129.526C113.364 132.713 112.443 134.083 110.509 134.083ZM125.417 134.166C122.935 134.166 121.441 132.431 121.441 129.717V129.708C121.441 127.036 122.968 125.201 125.326 125.201C127.683 125.201 129.119 126.953 129.119 129.542V130.074H122.902C122.935 131.85 123.915 132.888 125.45 132.888C126.546 132.888 127.318 132.34 127.567 131.601L127.592 131.526H129.011L128.995 131.609C128.712 133.037 127.301 134.166 125.417 134.166ZM125.317 126.479C124.064 126.479 123.085 127.334 122.927 128.945H127.65C127.509 127.268 126.579 126.479 125.317 126.479ZM135.951 126.562H131.842V134H130.398V125.367H135.951V126.562ZM138.956 130.016H138.624V134H137.18V125.367H138.624V129.02H138.956L142.36 125.367H144.111L140.26 129.451L144.227 134H142.401L138.956 130.016ZM148.511 134.166C146.112 134.166 144.51 132.431 144.51 129.684V129.667C144.51 126.919 146.12 125.201 148.503 125.201C150.885 125.201 152.504 126.911 152.504 129.667V129.684C152.504 132.439 150.893 134.166 148.511 134.166ZM148.519 132.888C150.038 132.888 151.026 131.709 151.026 129.684V129.667C151.026 127.642 150.03 126.479 148.503 126.479C147 126.479 145.987 127.65 145.987 129.667V129.684C145.987 131.717 146.992 132.888 148.519 132.888ZM152.628 136.349L153.359 132.29H154.87L153.658 136.349H152.628ZM162.615 134.166C159.967 134.166 158.572 132.381 158.572 128.953V128.937C158.572 124.18 159.834 122.205 163.188 122.072L163.827 122.047C164.657 122.014 165.587 121.839 166.076 121.582V122.844C165.802 123.093 164.889 123.309 163.893 123.35L163.254 123.375C160.888 123.466 160.166 124.487 159.809 126.986L159.793 127.102H159.826C160.399 126.081 161.486 125.55 162.831 125.55C165.163 125.55 166.649 127.193 166.649 129.758V129.775C166.649 132.489 165.113 134.166 162.615 134.166ZM162.615 132.888C164.234 132.888 165.172 131.759 165.172 129.775V129.758C165.172 127.882 164.234 126.828 162.615 126.828C160.988 126.828 160.05 127.882 160.05 129.758V129.775C160.05 131.759 160.988 132.888 162.615 132.888ZM167.919 134V125.367H169.364V128.123H170.982C172.958 128.123 174.228 129.26 174.228 131.053V131.07C174.228 132.863 172.958 134 170.982 134H167.919ZM175.324 134V125.367H176.768V134H175.324ZM170.957 129.318H169.364V132.805H170.957C172.061 132.805 172.75 132.116 172.75 131.07V131.053C172.75 129.999 172.053 129.318 170.957 129.318ZM182.039 134.166C179.591 134.166 178.038 132.423 178.038 129.675V129.667C178.038 126.944 179.624 125.201 182.023 125.201C184.173 125.201 185.443 126.629 185.625 128.106L185.634 128.173H184.222L184.206 128.106C183.99 127.243 183.293 126.479 182.023 126.479C180.52 126.479 179.516 127.725 179.516 129.684V129.692C179.516 131.701 180.545 132.888 182.039 132.888C183.218 132.888 183.973 132.224 184.214 131.261L184.231 131.194H185.65L185.642 131.252C185.409 132.896 183.99 134.166 182.039 134.166ZM192.947 125.367V126.562H190.166V134H188.722V126.562H185.941V125.367H192.947ZM193.952 136.905V125.367H195.396V126.828H195.429C195.969 125.824 196.932 125.201 198.168 125.201C200.376 125.201 201.837 126.961 201.837 129.684V129.692C201.837 132.415 200.36 134.166 198.193 134.166C196.973 134.166 195.969 133.552 195.429 132.556H195.396V136.905H193.952ZM197.886 132.888C199.414 132.888 200.36 131.659 200.36 129.692V129.684C200.36 127.7 199.414 126.479 197.886 126.479C196.425 126.479 195.388 127.75 195.388 129.684V129.692C195.388 131.618 196.434 132.888 197.886 132.888ZM206.702 134.166C204.303 134.166 202.701 132.431 202.701 129.684V129.667C202.701 126.919 204.311 125.201 206.694 125.201C209.076 125.201 210.695 126.911 210.695 129.667V129.684C210.695 132.439 209.084 134.166 206.702 134.166ZM206.71 132.888C208.229 132.888 209.217 131.709 209.217 129.684V129.667C209.217 127.642 208.221 126.479 206.694 126.479C205.191 126.479 204.179 127.65 204.179 129.667V129.684C204.179 131.717 205.183 132.888 206.71 132.888ZM215.12 134V125.367H216.564V131.784H216.63L220.93 125.367H222.358V134H220.914V127.583H220.847L216.547 134H215.12ZM228.028 136.905C227.746 136.905 227.439 136.872 227.256 136.839V135.66C227.381 135.685 227.547 135.71 227.721 135.71C228.634 135.71 229.14 135.478 229.489 134.498L229.663 134.008L226.459 125.367H228.003L230.385 132.556H230.419L232.809 125.367H234.328L230.958 134.54C230.344 136.191 229.589 136.905 228.028 136.905ZM235.441 136.366H234.096V132.805H234.818C235.449 132.39 235.756 131.319 235.839 130.157L236.171 125.367H242.115V132.805H243.484V136.366H242.14V134H235.441V136.366ZM240.67 132.805V126.562H237.441L237.176 130.19C237.101 131.277 236.877 132.215 236.445 132.771V132.805H240.67ZM248.025 134.166C245.626 134.166 244.024 132.431 244.024 129.684V129.667C244.024 126.919 245.635 125.201 248.017 125.201C250.399 125.201 252.018 126.911 252.018 129.667V129.684C252.018 132.439 250.408 134.166 248.025 134.166ZM248.034 132.888C249.553 132.888 250.54 131.709 250.54 129.684V129.667C250.54 127.642 249.544 126.479 248.017 126.479C246.515 126.479 245.502 127.65 245.502 129.667V129.684C245.502 131.717 246.506 132.888 248.034 132.888ZM256.999 134.166C254.351 134.166 252.956 132.381 252.956 128.953V128.937C252.956 124.18 254.218 122.205 257.572 122.072L258.211 122.047C259.041 122.014 259.97 121.839 260.46 121.582V122.844C260.186 123.093 259.273 123.309 258.277 123.35L257.638 123.375C255.272 123.466 254.55 124.487 254.193 126.986L254.176 127.102H254.21C254.782 126.081 255.87 125.55 257.215 125.55C259.547 125.55 261.033 127.193 261.033 129.758V129.775C261.033 132.489 259.497 134.166 256.999 134.166ZM256.999 132.888C258.617 132.888 259.555 131.759 259.555 129.775V129.758C259.555 127.882 258.617 126.828 256.999 126.828C255.372 126.828 254.434 127.882 254.434 129.758V129.775C254.434 131.759 255.372 132.888 256.999 132.888ZM267.973 134V130.124H263.748V134H262.303V125.367H263.748V128.928H267.973V125.367H269.417V134H267.973ZM274.697 134.166C272.298 134.166 270.696 132.431 270.696 129.684V129.667C270.696 126.919 272.306 125.201 274.688 125.201C277.071 125.201 278.689 126.911 278.689 129.667V129.684C278.689 132.439 277.079 134.166 274.697 134.166ZM274.705 132.888C276.224 132.888 277.212 131.709 277.212 129.684V129.667C277.212 127.642 276.216 126.479 274.688 126.479C273.186 126.479 272.173 127.65 272.173 129.667V129.684C272.173 131.717 273.178 132.888 274.705 132.888ZM280.574 130.024L280.474 122.022H281.969L281.869 130.024H280.574ZM281.221 134.083C280.69 134.083 280.275 133.668 280.275 133.137C280.275 132.597 280.69 132.19 281.221 132.19C281.761 132.19 282.168 132.597 282.168 133.137C282.168 133.668 281.761 134.083 281.221 134.083Z" fill="#141414"/>
</svg>
