<svg width="18" height="14" viewBox="0 0 18 14" fill="none" xmlns="http://www.w3.org/2000/svg">
<path d="M13.5627 1.7537C16.1463 2.50523 18 4.56012 18 6.97671C18 8.62164 17.1405 10.1001 15.7767 11.113L15.6578 11.197L15.4691 11.3268L15.4498 11.3396C14.9709 11.691 15.2672 12.4304 15.7108 13.0219L15.7931 13.1273C15.8209 13.162 15.8491 13.196 15.8776 13.2292L15.9637 13.3264L16.0399 13.4082L16.0971 13.4737C16.2691 13.6798 16.2524 13.7683 16.0476 13.7469L15.9808 13.7373C15.9398 13.73 15.8992 13.7212 15.859 13.7108C15.4211 13.6029 14.9959 13.4496 14.5903 13.2532L14.4386 13.1768C14.3897 13.1513 14.3422 13.1259 14.2962 13.1008L14.1628 13.0257L14.0368 12.9516L13.5463 12.6522L13.4495 12.5966L13.3554 12.5464C13.1072 12.4199 12.8796 12.3569 12.6058 12.409L12.5515 12.4205C11.9467 12.5097 11.3336 12.5289 10.7245 12.4777C13.5601 11.3849 15.5279 8.99198 15.5279 6.21591C15.5279 4.54095 14.8117 3.00561 13.6205 1.81122L13.5627 1.7537ZM7.26461 0.25C11.2767 0.25 14.5295 2.96344 14.5295 6.30954C14.5295 9.6566 11.2767 12.3697 7.26461 12.3697C6.90139 12.3693 6.54546 12.3477 6.19682 12.3048L5.98629 12.2761C5.69539 12.2074 5.45432 12.2537 5.20104 12.3688L5.10525 12.4144L5.00754 12.4665L4.90725 12.5234L4.64046 12.6854L4.46529 12.7928L4.27629 12.9059L4.14129 12.9832L3.99825 13.0618L3.92336 13.1011L3.76682 13.18C3.28769 13.4129 2.78359 13.5912 2.26414 13.7114L2.18636 13.7255C1.92246 13.7648 1.89129 13.6689 2.09443 13.4274L2.1555 13.358L2.19054 13.3206C2.21946 13.29 2.24839 13.2586 2.27732 13.2267L2.3625 13.1283L2.44671 13.0257L2.52804 12.9196L2.60679 12.8107L2.68136 12.6995C2.69357 12.6809 2.70546 12.6622 2.71704 12.6432L2.78486 12.5298C3.10018 11.9786 3.22329 11.3993 2.80286 11.0919L2.49654 10.881L2.44382 10.8433C0.945 9.7336 0 8.11264 0 6.30954C0 2.96344 3.25189 0.25 7.26461 0.25Z" fill="#141414"/>
</svg>
