<svg width="10" height="10" viewBox="0 0 10 10" fill="none" xmlns="http://www.w3.org/2000/svg">
<path fill-rule="evenodd" clip-rule="evenodd" d="M0.231232 0.231232C0.53954 -0.0770772 1.03941 -0.0770772 1.34772 0.231232L5 3.88352L8.65228 0.231232C8.96059 -0.0770772 9.46046 -0.0770772 9.76877 0.231232C10.0771 0.53954 10.0771 1.03941 9.76877 1.34772L6.11648 5L9.76877 8.65228C10.0771 8.96059 10.0771 9.46046 9.76877 9.76877C9.46046 10.0771 8.96059 10.0771 8.65228 9.76877L5 6.11648L1.34772 9.76877C1.03941 10.0771 0.53954 10.0771 0.231232 9.76877C-0.0770772 9.46046 -0.0770772 8.96059 0.231232 8.65228L3.88352 5L0.231232 1.34772C-0.0770772 1.03941 -0.0770772 0.53954 0.231232 0.231232Z" fill="#141414"/>
</svg>
