<svg width="18" height="18" viewBox="0 0 18 18" fill="none" xmlns="http://www.w3.org/2000/svg">
<path d="M6.18078 0.493394C4.3239 1.12464 2.72253 2.32277 1.61189 3.9118C0.501245 5.50082 -0.0601325 7.39699 0.010214 9.32177C0.0805606 11.2466 0.778924 13.0985 2.00272 14.6056C3.22653 16.1127 4.91126 17.1955 6.80946 17.695C8.34838 18.0841 9.96071 18.1012 11.5079 17.7448C12.9094 17.4363 14.2052 16.7764 15.2683 15.8297C16.3748 14.8143 17.1779 13.5226 17.5914 12.0934C18.0408 10.5393 18.1207 8.90485 17.8251 7.31569H9.18334V10.8286H14.1881C14.0881 11.3888 13.8737 11.9236 13.5579 12.4008C13.242 12.878 12.8312 13.2879 12.35 13.6059C11.7388 14.002 11.0499 14.2685 10.3274 14.3884C9.60286 14.5204 8.85964 14.5204 8.13506 14.3884C7.40066 14.2396 6.70594 13.9426 6.09512 13.5162C5.11384 12.8355 4.37704 11.8685 3.98985 10.7532C3.59611 9.6169 3.59611 8.38507 3.98985 7.24881C4.26546 6.45236 4.72108 5.72719 5.3227 5.12743C6.01119 4.42848 6.88283 3.92886 7.842 3.6834C8.80117 3.43794 9.8108 3.45612 10.7601 3.73594C11.5017 3.95902 12.1799 4.34879 12.7405 4.87417C13.3048 4.32403 13.8682 3.77246 14.4306 3.21946C14.7209 2.9221 15.0375 2.63897 15.3235 2.33449C14.4677 1.55405 13.4631 0.946776 12.3674 0.54746C10.372 -0.162528 8.18875 -0.181609 6.18078 0.493394Z" fill="white"/>
<path d="M6.18078 0.493394C8.18858 -0.182067 10.3719 -0.163493 12.3674 0.546034C13.4633 0.948063 14.4674 1.55826 15.322 2.3416C15.0317 2.64608 14.7253 2.93063 14.4291 3.22658C13.8658 3.77767 13.3029 4.32687 12.7405 4.87417C12.1799 4.34879 11.5017 3.95902 10.7601 3.73594C9.81111 3.45514 8.80152 3.43591 7.8421 3.68036C6.88268 3.92482 6.0105 4.42352 5.32126 5.12174C4.71964 5.72149 4.26401 6.44666 3.9884 7.24312L0.978588 4.95954C2.05592 2.86598 3.92124 1.26458 6.18078 0.493394Z" fill="#E33629"/>
<path d="M0.180033 7.2218C0.341807 6.43612 0.610388 5.67524 0.978588 4.95954L3.9884 7.24883C3.59466 8.38508 3.59466 9.61692 3.9884 10.7532C2.98561 11.512 1.98234 12.2746 0.978585 13.041C0.0568392 11.2431 -0.224277 9.1945 0.180033 7.2218Z" fill="#F8BD00"/>
<path d="M9.18334 7.31425H17.8251C18.1207 8.90342 18.0408 10.5378 17.5914 12.092C17.1779 13.5212 16.3748 14.8129 15.2683 15.8282C14.297 15.0855 13.3213 14.3486 12.35 13.6059C12.8315 13.2875 13.2426 12.8772 13.5584 12.3995C13.8743 11.9218 14.0884 11.3865 14.1881 10.8257H9.18334C9.18189 9.65617 9.18334 8.48521 9.18334 7.31425Z" fill="#587DBD"/>
<path d="M0.977135 13.041C1.98089 12.2822 2.98416 11.5195 3.98695 10.7531C4.37491 11.8689 5.11276 12.836 6.09512 13.5162C6.70784 13.9406 7.40407 14.2352 8.13942 14.3813C8.86401 14.5133 9.60722 14.5133 10.3318 14.3813C11.0543 14.2614 11.7432 13.9949 12.3543 13.5987C13.3257 14.3414 14.3013 15.0784 15.2727 15.8211C14.2097 16.7683 12.9139 17.4287 11.5122 17.7376C9.96507 18.094 8.35274 18.077 6.81382 17.6878C5.59669 17.3694 4.4598 16.808 3.47443 16.0388C2.43146 15.2274 1.57961 14.2048 0.977135 13.041Z" fill="#319F43"/>
</svg>
