<svg width="25" height="24" viewBox="0 0 25 24" fill="none" xmlns="http://www.w3.org/2000/svg">
<path d="M20.5 20.9821C20.5 21.2521 20.3946 21.511 20.2071 21.7019C20.0196 21.8928 19.7652 22 19.5 22H5.5C5.23478 22 4.98043 21.8928 4.79289 21.7019C4.60536 21.511 4.5 21.2521 4.5 20.9821V12.321C4.5 12.0449 4.27614 11.821 4 11.821H2.77652C2.32167 11.821 2.10308 11.263 2.43694 10.954L11.827 2.26502C12.0111 2.0945 12.2511 2 12.5 2C12.7489 2 12.9889 2.0945 13.173 2.26502L22.5631 10.954C22.8969 11.263 22.6783 11.821 22.2235 11.821H21C20.7239 11.821 20.5 12.0449 20.5 12.321V20.9821Z" fill="#FEFEFE"/>
</svg>
