<svg width="18" height="18" viewBox="0 0 18 18" fill="none" xmlns="http://www.w3.org/2000/svg">
<path d="M0 9C0 13.9703 4.02975 18 9 18C13.9703 18 18 13.9703 18 9C18 4.02975 13.9703 0 9 0C4.02975 0 0 4.02975 0 9ZM9.9375 4.5C9.9375 4.74864 9.83873 4.9871 9.66291 5.16291C9.4871 5.33873 9.24864 5.4375 9 5.4375C8.75136 5.4375 8.5129 5.33873 8.33709 5.16291C8.16127 4.9871 8.0625 4.74864 8.0625 4.5C8.0625 4.25136 8.16127 4.0129 8.33709 3.83709C8.5129 3.66127 8.75136 3.5625 9 3.5625C9.24864 3.5625 9.4871 3.66127 9.66291 3.83709C9.83873 4.0129 9.9375 4.25136 9.9375 4.5ZM9 6.75C9.19891 6.75 9.38968 6.82902 9.53033 6.96967C9.67098 7.11032 9.75 7.30109 9.75 7.5V13.5C9.75 13.6989 9.67098 13.8897 9.53033 14.0303C9.38968 14.171 9.19891 14.25 9 14.25C8.80109 14.25 8.61032 14.171 8.46967 14.0303C8.32902 13.8897 8.25 13.6989 8.25 13.5V7.5C8.25 7.30109 8.32902 7.11032 8.46967 6.96967C8.61032 6.82902 8.80109 6.75 9 6.75Z" fill="white"/>
</svg>
