<svg width="17" height="18" viewBox="0 0 17 18" fill="none" xmlns="http://www.w3.org/2000/svg">
<path d="M16.5391 9.38411C16.7789 9.18421 16.7789 8.81579 16.5391 8.61589L11.8254 4.68782C11.63 4.52499 11.3333 4.66394 11.3333 4.91829V6.61111C11.3333 6.88725 11.1095 7.11111 10.8333 7.11111H5.22222C4.94608 7.11111 4.72222 7.33497 4.72222 7.61111V10.3889C4.72222 10.665 4.94608 10.8889 5.22222 10.8889H10.8333C11.1095 10.8889 11.3333 11.1127 11.3333 11.3889V13.0817C11.3333 13.3361 11.63 13.475 11.8254 13.3122L16.5391 9.38411ZM1.88889 2.88889C1.88889 2.61275 2.11275 2.38889 2.38889 2.38889H8.5C9.0216 2.38889 9.44444 1.96605 9.44444 1.44444C9.44444 0.922842 9.0216 0.5 8.5 0.5H1.88889C0.85 0.5 0 1.35 0 2.38889V15.6111C0 16.65 0.85 17.5 1.88889 17.5H8.5C9.0216 17.5 9.44444 17.0772 9.44444 16.5556C9.44444 16.034 9.0216 15.6111 8.5 15.6111H2.38889C2.11275 15.6111 1.88889 15.3873 1.88889 15.1111V2.88889Z" fill="white"/>
</svg>
