<svg width="18" height="14" viewBox="0 0 18 14" fill="none" xmlns="http://www.w3.org/2000/svg">
<path fill-rule="evenodd" clip-rule="evenodd" d="M2.04545 3.45455C2.45533 3.45455 2.84843 3.2989 3.13826 3.02186C3.42808 2.74482 3.59091 2.36907 3.59091 1.97727C3.59091 1.58548 3.42808 1.20973 3.13826 0.932683C2.84843 0.655641 2.45533 0.5 2.04545 0.5C1.63557 0.5 1.24248 0.655641 0.952653 0.932683C0.662824 1.20973 0.5 1.58548 0.5 1.97727C0.5 2.36907 0.662824 2.74482 0.952653 3.02186C1.24248 3.2989 1.63557 3.45455 2.04545 3.45455ZM6.06364 1.09091C5.81771 1.09091 5.58185 1.18429 5.40796 1.35052C5.23406 1.51674 5.13636 1.74219 5.13636 1.97727C5.13636 2.21235 5.23406 2.4378 5.40796 2.60403C5.58185 2.77025 5.81771 2.86364 6.06364 2.86364H16.5727C16.8187 2.86364 17.0545 2.77025 17.2284 2.60403C17.4023 2.4378 17.5 2.21235 17.5 1.97727C17.5 1.74219 17.4023 1.51674 17.2284 1.35052C17.0545 1.18429 16.8187 1.09091 16.5727 1.09091H6.06364ZM6.06364 11.1364C5.81771 11.1364 5.58185 11.2297 5.40796 11.396C5.23406 11.5622 5.13636 11.7876 5.13636 12.0227C5.13636 12.2578 5.23406 12.4833 5.40796 12.6495C5.58185 12.8157 5.81771 12.9091 6.06364 12.9091H16.5727C16.8187 12.9091 17.0545 12.8157 17.2284 12.6495C17.4023 12.4833 17.5 12.2578 17.5 12.0227C17.5 11.7876 17.4023 11.5622 17.2284 11.396C17.0545 11.2297 16.8187 11.1364 16.5727 11.1364H6.06364ZM5.13636 7C5.13636 6.76492 5.23406 6.53947 5.40796 6.37325C5.58185 6.20702 5.81771 6.11364 6.06364 6.11364H16.5727C16.8187 6.11364 17.0545 6.20702 17.2284 6.37325C17.4023 6.53947 17.5 6.76492 17.5 7C17.5 7.23508 17.4023 7.46053 17.2284 7.62675C17.0545 7.79298 16.8187 7.88636 16.5727 7.88636H6.06364C5.81771 7.88636 5.58185 7.79298 5.40796 7.62675C5.23406 7.46053 5.13636 7.23508 5.13636 7ZM3.59091 7C3.59091 7.3918 3.42808 7.76755 3.13826 8.04459C2.84843 8.32163 2.45533 8.47727 2.04545 8.47727C1.63557 8.47727 1.24248 8.32163 0.952653 8.04459C0.662824 7.76755 0.5 7.3918 0.5 7C0.5 6.6082 0.662824 6.23245 0.952653 5.95541C1.24248 5.67837 1.63557 5.52273 2.04545 5.52273C2.45533 5.52273 2.84843 5.67837 3.13826 5.95541C3.42808 6.23245 3.59091 6.6082 3.59091 7ZM2.04545 13.5C2.45533 13.5 2.84843 13.3444 3.13826 13.0673C3.42808 12.7903 3.59091 12.4145 3.59091 12.0227C3.59091 11.6309 3.42808 11.2552 3.13826 10.9781C2.84843 10.7011 2.45533 10.5455 2.04545 10.5455C1.63557 10.5455 1.24248 10.7011 0.952653 10.9781C0.662824 11.2552 0.5 11.6309 0.5 12.0227C0.5 12.4145 0.662824 12.7903 0.952653 13.0673C1.24248 13.3444 1.63557 13.5 2.04545 13.5Z" fill="white"/>
</svg>
