<svg width="18" height="18" viewBox="0 0 18 18" fill="none" xmlns="http://www.w3.org/2000/svg">
<path d="M17 10.0421C16.8104 11.4821 16.2307 12.8435 15.323 13.9803C14.4154 15.1171 13.2142 15.9865 11.8481 16.4952C10.482 17.0038 9.00263 17.1326 7.56862 16.8677C6.13462 16.6028 4.80008 15.9542 3.70813 14.9915C2.61619 14.0287 1.80803 12.7881 1.37033 11.4028C0.93263 10.0175 0.881902 8.5396 1.22359 7.12773C1.56527 5.71586 2.28648 4.42324 3.30986 3.3885C4.33325 2.35376 5.6202 1.61593 7.03269 1.25414C10.9483 0.254143 15.0015 2.26114 16.4979 6.00114M17 2.00049V6.00049H13" stroke="#141414" stroke-width="1.5" stroke-linecap="round" stroke-linejoin="round"/>
</svg>
