<svg width="16" height="16" viewBox="0 0 16 16" fill="none" xmlns="http://www.w3.org/2000/svg">
<path opacity="0.4" fill-rule="evenodd" clip-rule="evenodd" d="M8 16C12.4183 16 16 12.4183 16 8C16 3.58172 12.4183 0 8 0C3.58172 0 0 3.58172 0 8C0 12.4183 3.58172 16 8 16ZM6.30396 14.5568C7.67515 14.8076 9.09135 13.2925 9.7562 11.0729C8.67415 11.2744 7.60793 11.3 6.61312 11.2049C6.74706 11.5326 6.90221 11.8579 7.08004 12.1788C7.13643 12.2729 7.16873 12.3838 7.16873 12.5028C7.16873 12.8422 6.90354 13.1173 6.57655 13.1173C6.3351 13.1173 6.12735 12.9671 6.03517 12.752C5.72668 12.1767 5.4844 11.5911 5.29961 11.0041C3.3646 10.5951 1.85972 9.76171 1.30552 9.02099C1.71283 11.7141 3.70645 13.8868 6.30396 14.5568ZM9.02088 14.6945C11.7175 14.2867 13.8924 12.2884 14.5594 9.68601C14.7846 8.32472 13.2779 6.92442 11.0764 6.26335C11.2787 7.36063 11.3003 8.44128 11.1988 9.44732C11.521 9.31491 11.8409 9.16197 12.1564 8.98709C12.2505 8.9307 12.3615 8.8984 12.4804 8.8984C12.8198 8.8984 13.095 9.16359 13.095 9.49058C13.095 9.73203 12.9447 9.93978 12.7297 10.032C12.1571 10.339 11.5744 10.5804 10.9902 10.7649C10.5765 12.6688 9.75336 14.1465 9.02088 14.6945ZM10.0337 9.83726C8.7259 10.18 7.41608 10.2182 6.22655 10.0434C5.8785 8.70781 5.84789 7.37053 6.03696 6.16184C7.34652 5.82991 8.65585 5.80175 9.84211 5.98522C10.1864 7.31015 10.2185 8.63657 10.0337 9.83726ZM9.45493 4.81997C8.46296 4.71907 7.39819 4.73778 6.31628 4.93139C6.99105 2.69628 8.4281 1.18099 9.8101 1.47486L9.80498 1.47229C12.3575 2.17653 14.3057 4.33784 14.6984 7.00522C14.1561 6.27174 12.678 5.44528 10.7709 5.02946C10.5857 4.43866 10.3423 3.8493 10.0319 3.27034C9.93969 3.05525 9.73194 2.90503 9.49049 2.90503C9.1635 2.90503 8.89832 3.18017 8.89832 3.51955C8.89832 3.63853 8.93061 3.74948 8.987 3.84358C9.16528 4.16528 9.32076 4.49141 9.45493 4.81997ZM4.99379 9.77596C2.73775 9.11965 1.18968 7.68872 1.44327 6.30375C2.12341 3.6671 4.35198 1.65272 7.10143 1.28815C6.35905 1.79911 5.50913 3.29115 5.08298 5.22955C4.4735 5.41684 3.86526 5.66572 3.26807 5.98594C3.05299 6.07812 2.90276 6.28587 2.90276 6.52731C2.90276 6.8543 3.1779 7.11949 3.51728 7.11949C3.63626 7.11949 3.74721 7.0872 3.84131 7.03081C4.18062 6.84276 4.52485 6.68009 4.87168 6.54103C4.76573 7.56187 4.78627 8.66048 4.99379 9.77596Z" fill="#141414"/>
</svg>
