<svg width="18" height="18" viewBox="0 0 18 18" fill="none" xmlns="http://www.w3.org/2000/svg">
<path fill-rule="evenodd" clip-rule="evenodd" d="M8.98328 1.92918C8.44583 1.91948 7.91174 2.01585 7.41157 2.21279C6.91141 2.40973 6.45499 2.70337 6.06844 3.07691C5.68189 3.45044 5.37279 3.89654 5.15884 4.38967C4.94489 4.88279 4.83028 5.41327 4.82158 5.95074V11.5717C4.82158 11.9127 4.68613 12.2397 4.44502 12.4808C4.20391 12.7219 3.8769 12.8573 3.53592 12.8573H1.92883C1.41736 12.8573 0.926843 12.6542 0.56518 12.2925C0.203516 11.9308 0.000335693 11.4403 0.000335693 10.9288L0.000335693 8.35751C0.000335693 7.84604 0.203516 7.35552 0.56518 6.99385C0.926843 6.63219 1.41736 6.42901 1.92883 6.42901H2.89308V5.9276C2.90481 5.13742 3.07209 4.35729 3.38535 3.63177C3.69862 2.90625 4.15174 2.24954 4.71884 1.69916C5.28594 1.14878 5.9559 0.715499 6.69047 0.424072C7.42504 0.132644 8.20982 -0.0112242 8.99999 0.000683092C9.79017 -0.0112242 10.575 0.132644 11.3095 0.424072C12.0441 0.715499 12.7141 1.14878 13.2811 1.69916C13.8482 2.24954 14.3014 2.90625 14.6146 3.63177C14.9279 4.35729 15.0952 5.13742 15.1069 5.9276V6.42901H16.0712C16.5826 6.42901 17.0731 6.63219 17.4348 6.99385C17.7965 7.35552 17.9997 7.84604 17.9997 8.35751V10.9288C17.9997 11.4403 17.7965 11.9308 17.4348 12.2925C17.0731 12.6542 16.5826 12.8573 16.0712 12.8573H15.1069V13.5002C15.1071 14.369 14.7873 15.2074 14.2087 15.8555C13.6301 16.5036 12.8331 16.916 11.9699 17.0139C11.8022 17.3132 11.5578 17.5624 11.2617 17.7357C10.9657 17.9091 10.6287 18.0003 10.2857 18H8.35716C7.84569 18 7.35517 17.7968 6.99351 17.4352C6.63184 17.0735 6.42866 16.583 6.42866 16.0715C6.42866 15.56 6.63184 15.0695 6.99351 14.7078C7.35517 14.3462 7.84569 14.143 8.35716 14.143H10.2857C10.9825 14.143 11.5932 14.512 11.9313 15.0661C12.2857 14.9847 12.6019 14.7855 12.8285 14.501C13.055 14.2166 13.1783 13.8638 13.1784 13.5002V5.94946C13.1696 5.40922 13.0538 4.87609 12.8377 4.38088C12.6215 3.88568 12.3094 3.43822 11.9193 3.06438C11.5292 2.69054 11.0689 2.39773 10.5649 2.20288C10.061 2.00803 9.5234 1.91501 8.98328 1.92918Z" fill="white"/>
</svg>
