<svg width="512" height="512" viewBox="0 0 512 512" fill="none" xmlns="http://www.w3.org/2000/svg">
<path d="M255.537 5.00003C272.539 4.99652 289.498 6.70505 306.154 10.0995C338.306 16.6849 368.833 29.5228 395.979 47.8755C433.59 73.2223 463.639 108.175 482.968 149.059C502.298 189.944 510.195 235.251 505.83 280.219C501.464 325.187 484.996 368.156 458.158 404.609C431.319 441.061 395.101 469.653 353.309 487.378C338.117 493.796 322.321 498.697 306.154 502.007C271.096 509.075 234.925 508.634 200.052 500.714C165.179 492.793 132.403 477.575 103.909 456.072C75.4139 434.57 51.8544 407.277 34.7996 376.011C17.7447 344.745 7.58595 310.225 4.99999 274.75C32.4902 281.144 61.0458 281.552 88.7097 275.948C113.535 270.892 137.117 261.026 158.109 246.911C189.313 225.966 213.738 196.474 228.426 162.006C233.389 150.332 237.177 138.198 239.735 125.782C245.186 99.1801 244.984 71.7393 239.143 45.2197C236.204 31.9574 231.857 19.0428 226.175 6.69291C235.922 5.56455 245.725 4.99931 255.537 5.00003Z" fill="url(#paint0_linear_2558_3407)"/>
<defs>
<linearGradient id="paint0_linear_2558_3407" x1="372.536" y1="5.00001" x2="121.536" y2="507" gradientUnits="userSpaceOnUse">
<stop stop-color="#9873FF"/>
<stop offset="1" stop-color="#713FFD"/>
</linearGradient>
</defs>
</svg>
