<svg width="512" height="512" viewBox="0 0 512 512" fill="none" xmlns="http://www.w3.org/2000/svg">
<g opacity="0.9">
<path d="M140.723 349.229C212.305 349.229 270.333 291.236 270.333 219.699C270.333 148.161 212.305 90.1677 140.723 90.1677C69.1419 90.1677 11.1138 148.161 11.1138 219.699C11.1138 291.236 69.1419 349.229 140.723 349.229Z" fill="url(#paint0_linear_2558_3281)"/>
</g>
<g filter="url(#filter0_b_2558_3281)">
<path d="M135.725 442.457C111.227 442.439 87.685 433.097 70.0286 416.386C52.3722 399.676 41.97 376.894 40.9997 352.808C40.0294 328.723 48.5662 305.202 64.823 287.169C81.0797 269.136 103.796 257.99 128.216 256.064C131.699 231.869 142.803 209.358 159.967 191.696C177.131 174.034 199.491 162.112 223.901 157.606C248.31 153.1 273.542 156.237 296.045 166.575C318.548 176.914 337.191 193.935 349.35 215.242C371.652 207.646 395.748 206.758 418.565 212.692C441.381 218.627 461.884 231.113 477.458 248.56C493.032 266.006 502.971 287.622 506.008 310.649C509.044 333.677 505.041 357.072 494.508 377.852C488.326 396.625 476.259 412.99 460.039 424.596C443.818 436.203 424.277 442.456 404.22 442.457H135.725Z" fill="#ECECEC" fill-opacity="0.4"/>
<path d="M404.221 441.16C414.405 441.16 424.418 439.56 433.982 436.404C443.23 433.353 451.912 428.9 459.788 423.17C467.573 417.505 474.397 410.72 480.071 403.002C485.816 395.188 490.251 386.592 493.254 377.453L493.285 377.36L493.329 377.272C497.323 369.421 500.398 361.117 502.469 352.589C504.6 343.814 505.681 334.746 505.681 325.637C505.681 317.799 504.879 309.965 503.296 302.354C501.753 294.938 499.452 287.643 496.455 280.672C493.512 273.827 489.87 267.225 485.63 261.049C481.429 254.932 476.605 249.179 471.292 243.951C465.978 238.723 460.132 233.977 453.914 229.844C447.638 225.672 440.928 222.088 433.971 219.193C426.886 216.245 419.471 213.98 411.933 212.462C404.198 210.905 396.237 210.115 388.27 210.115C375.078 210.115 362.129 212.251 349.784 216.464L348.742 216.82L348.202 215.874C338.155 198.297 323.541 183.535 305.939 173.185C297.037 167.951 287.474 163.906 277.514 161.163C267.24 158.333 256.567 156.898 245.793 156.898C231.302 156.898 217.156 159.464 203.749 164.525C190.796 169.414 178.915 176.477 168.434 185.516C158.013 194.504 149.365 205.108 142.73 217.035C135.932 229.255 131.489 242.446 129.524 256.24L129.377 257.273L128.321 257.354C116.503 258.264 105.133 261.326 94.5259 266.453C84.2196 271.436 75.0164 278.175 67.172 286.483C51.0535 303.555 42.1766 325.798 42.1766 349.115C42.1766 361.541 44.6499 373.595 49.5277 384.942C51.8723 390.396 54.7741 395.656 58.1528 400.577C61.4996 405.451 65.3432 410.035 69.5769 414.2C73.8105 418.366 78.4691 422.148 83.423 425.441C88.4241 428.765 93.7703 431.62 99.3132 433.927C110.846 438.726 123.097 441.16 135.727 441.16H404.221ZM404.22 442.457H135.725C83.3308 442.457 40.8574 400.666 40.8574 349.115C40.8574 300.049 79.3306 259.829 128.216 256.064C136.302 199.291 185.863 155.6 245.793 155.6C290.254 155.6 329.005 179.647 349.35 215.242C361.543 211.081 374.638 208.817 388.27 208.817C453.842 208.817 507 261.12 507 325.637C507 344.406 502.501 362.138 494.508 377.852C482.19 415.341 446.423 442.457 404.22 442.457Z" fill="#ECECEC" fill-opacity="0.4"/>
<path d="M404.22 442.307H135.725C111.265 442.289 87.7601 432.961 70.1317 416.278C52.5035 399.594 42.1183 376.848 41.1496 352.802C40.1809 328.756 48.7037 305.273 64.9344 287.269C81.1652 269.266 103.846 258.137 128.228 256.213L128.348 256.204L128.365 256.085C131.365 235.24 140.031 215.645 153.36 199.332C157.631 194.11 162.349 189.257 167.459 184.831C183.418 171.016 202.912 161.633 223.928 157.753C248.307 153.253 273.507 156.386 295.983 166.712C302.641 169.771 308.961 173.416 314.874 177.584C328.932 187.515 340.69 200.396 349.215 215.307C349.217 215.31 349.218 215.313 349.22 215.316L349.282 215.424L349.399 215.384C349.401 215.383 349.404 215.382 349.406 215.381C355.735 213.226 362.209 211.612 368.757 210.541C375.105 209.506 381.624 208.967 388.27 208.967C390.287 208.967 392.293 209.017 394.286 209.115C402.435 209.526 410.559 210.765 418.527 212.838C441.315 218.764 461.792 231.235 477.346 248.66C492.9 266.084 502.827 287.671 505.859 310.669C508.892 333.666 504.893 357.031 494.374 377.784L494.369 377.794L494.365 377.805C488.197 396.579 476.137 412.748 460.331 424.201C460.205 424.293 460.078 424.384 459.951 424.474C443.756 436.063 424.246 442.306 404.22 442.307ZM493.151 377.292L493.146 377.302L493.142 377.313L493.111 377.406C490.114 386.53 485.686 395.112 479.95 402.913C474.285 410.619 467.472 417.393 459.699 423.049C451.836 428.77 443.168 433.215 433.935 436.262C424.386 439.412 414.389 441.01 404.221 441.01H135.727C123.116 441.01 110.885 438.58 99.3709 433.788C93.8368 431.485 88.4991 428.635 83.506 425.316C78.56 422.028 73.9089 418.252 69.6821 414.093C65.4553 409.934 61.6178 405.358 58.2764 400.492C54.9033 395.579 52.0062 390.328 49.6655 384.883C44.7958 373.555 42.3266 361.521 42.3266 349.115C42.3266 325.837 51.1887 303.63 67.2811 286.586C75.1129 278.291 84.3013 271.563 94.5912 266.588C105.181 261.469 116.533 258.412 128.332 257.504L129.389 257.422L129.509 257.413L129.526 257.294L129.673 256.261C131.635 242.485 136.072 229.312 142.861 217.108C149.487 205.197 158.124 194.606 168.532 185.63C178.999 176.602 190.866 169.548 203.802 164.665C217.192 159.611 231.32 157.048 245.793 157.048C256.554 157.048 267.213 158.481 277.475 161.307C287.421 164.047 296.973 168.087 305.863 173.314C323.442 183.651 338.038 198.394 348.071 215.948L348.612 216.894L348.673 217.001L348.791 216.961L349.832 216.606C362.162 212.399 375.094 210.265 388.27 210.265C396.227 210.265 404.179 211.054 411.904 212.609C419.432 214.125 426.837 216.387 433.913 219.332C440.861 222.223 447.563 225.802 453.831 229.969C460.041 234.097 465.88 238.837 471.187 244.058C476.493 249.279 481.311 255.025 485.506 261.134C489.741 267.302 493.378 273.895 496.317 280.731C499.31 287.693 501.608 294.978 503.149 302.385C504.73 309.986 505.531 317.809 505.531 325.637C505.531 334.734 504.452 343.79 502.323 352.553C500.255 361.07 497.184 369.363 493.196 377.203L493.151 377.292ZM493.463 377.34L493.329 377.272L493.463 377.34C497.462 369.479 500.541 361.163 502.615 352.624C504.749 343.837 505.831 334.758 505.831 325.637C505.831 317.788 505.027 309.945 503.443 302.324C501.898 294.898 499.593 287.593 496.593 280.612C493.646 273.758 489.999 267.148 485.753 260.964C481.547 254.839 476.717 249.079 471.397 243.844C466.077 238.61 460.223 233.857 453.997 229.719C447.713 225.542 440.994 221.953 434.029 219.055C426.934 216.102 419.51 213.835 411.963 212.315C404.218 210.756 396.247 209.965 388.27 209.965C375.062 209.965 362.097 212.104 349.735 216.322L348.811 216.638L348.332 215.8C338.272 198.199 323.639 183.419 306.015 173.056C297.102 167.815 287.526 163.765 277.554 161.018C267.266 158.185 256.58 156.748 245.793 156.748C231.284 156.748 217.12 159.317 203.696 164.385C190.727 169.28 178.83 176.351 168.336 185.403C157.902 194.402 149.242 205.02 142.599 216.962C135.792 229.198 131.343 242.406 129.376 256.219L129.246 257.133L128.309 257.205C116.473 258.116 105.084 261.183 94.4606 266.318C84.1379 271.309 74.9199 278.058 67.063 286.38C50.9184 303.48 42.0266 325.76 42.0266 349.115C42.0266 361.562 44.504 373.636 49.3899 385.002C51.7383 390.464 54.645 395.733 58.0291 400.662C61.3814 405.544 65.2312 410.135 69.4717 414.307C73.7121 418.479 78.3781 422.267 83.3399 425.565C88.3491 428.895 93.7038 431.755 99.2556 434.065C110.807 438.872 123.077 441.31 135.727 441.31H404.221C414.421 441.31 424.449 439.707 434.029 436.547C443.291 433.491 451.988 429.031 459.876 423.291C467.673 417.618 474.509 410.821 480.192 403.091C485.946 395.264 490.389 386.654 493.396 377.5L493.424 377.417L493.463 377.34Z" stroke="#ECECEC" stroke-opacity="0.5" stroke-width="0.3"/>
</g>
<defs>
<filter id="filter0_b_2558_3281" x="32.8574" y="147.6" width="482.143" height="302.857" filterUnits="userSpaceOnUse" color-interpolation-filters="sRGB">
<feFlood flood-opacity="0" result="BackgroundImageFix"/>
<feGaussianBlur in="BackgroundImageFix" stdDeviation="4"/>
<feComposite in2="SourceAlpha" operator="in" result="effect1_backgroundBlur_2558_3281"/>
<feBlend mode="normal" in="SourceGraphic" in2="effect1_backgroundBlur_2558_3281" result="shape"/>
</filter>
<linearGradient id="paint0_linear_2558_3281" x1="140.723" y1="90.1677" x2="140.723" y2="349.229" gradientUnits="userSpaceOnUse">
<stop stop-color="#FDC500"/>
<stop offset="1" stop-color="#FD8900"/>
</linearGradient>
</defs>
</svg>
