<svg width="512" height="512" viewBox="0 0 512 512" fill="none" xmlns="http://www.w3.org/2000/svg">
<g opacity="0.9">
<path d="M135.633 76.8369C144.5 76.8346 153.345 77.7373 162.032 79.5311C178.798 83.0099 194.716 89.7924 208.871 99.4888C228.482 112.88 244.151 131.347 254.23 152.947C264.309 174.548 268.427 198.485 266.15 222.243C263.874 246 255.287 268.702 241.292 287.961C227.297 307.22 208.412 322.325 186.62 331.69C178.698 335.081 170.461 337.67 162.031 339.419C143.75 343.154 124.89 342.921 106.706 338.736C88.5217 334.551 71.4314 326.511 56.5734 315.151C41.7154 303.79 29.4308 289.37 20.5379 272.852C11.6449 256.333 6.34789 238.095 4.99958 219.353C19.3339 222.732 34.224 222.95 48.6495 219.99C61.5942 217.319 73.8902 212.106 84.8359 204.649C101.107 193.583 113.843 178 121.5 159.789C124.088 153.621 126.063 147.211 127.397 140.651C130.239 126.595 130.134 112.096 127.088 98.0844C125.556 91.0778 123.29 84.2549 120.328 77.7303C125.408 77.1347 130.518 76.8364 135.633 76.8369V76.8369Z" fill="#9873FF"/>
</g>
<g filter="url(#filter0_b_2558_3297)">
<path d="M135.725 442.457C111.227 442.439 87.685 433.097 70.0286 416.387C52.3722 399.677 41.97 376.894 40.9997 352.809C40.0294 328.723 48.5662 305.202 64.823 287.169C81.0797 269.136 103.796 257.99 128.216 256.064C131.699 231.869 142.803 209.358 159.967 191.696C177.131 174.035 199.491 162.112 223.9 157.606C248.31 153.1 273.542 156.237 296.045 166.576C318.548 176.915 337.191 193.935 349.35 215.242C371.652 207.646 395.748 206.759 418.564 212.693C441.381 218.627 461.884 231.113 477.458 248.56C493.032 266.006 502.971 287.622 506.008 310.649C509.044 333.677 505.041 357.072 494.507 377.852C488.326 396.625 476.259 412.99 460.038 424.597C443.817 436.203 424.276 442.456 404.22 442.457H135.725Z" fill="#ECECEC" fill-opacity="0.4"/>
<path d="M404.221 441.16C414.405 441.16 424.417 439.56 433.981 436.405C443.229 433.353 451.912 428.9 459.787 423.17C467.572 417.505 474.397 410.72 480.071 403.002C485.815 395.188 490.251 386.592 493.254 377.453L493.284 377.36L493.329 377.272C497.323 369.421 500.398 361.117 502.469 352.589C504.6 343.814 505.681 334.746 505.681 325.638C505.681 317.799 504.878 309.965 503.295 302.355C501.753 294.938 499.451 287.643 496.454 280.672C493.512 273.827 489.87 267.225 485.629 261.049C481.429 254.932 476.605 249.179 471.292 243.951C465.978 238.723 460.132 233.977 453.914 229.844C447.637 225.672 440.928 222.088 433.971 219.193C426.886 216.245 419.471 213.98 411.933 212.463C404.198 210.905 396.237 210.116 388.27 210.116C375.078 210.116 362.129 212.252 349.784 216.464L348.742 216.82L348.201 215.874C338.155 198.297 323.54 183.535 305.939 173.185C297.037 167.951 287.474 163.906 277.514 161.163C267.239 158.333 256.567 156.898 245.793 156.898C231.302 156.898 217.156 159.464 203.749 164.525C190.796 169.414 178.915 176.477 168.434 185.516C158.013 194.504 149.365 205.109 142.73 217.036C135.932 229.255 131.489 242.446 129.524 256.241L129.377 257.273L128.321 257.354C116.503 258.265 105.133 261.326 94.5259 266.454C84.2196 271.436 75.0164 278.175 67.172 286.483C51.0535 303.555 42.1766 325.798 42.1766 349.115C42.1766 361.541 44.6499 373.596 49.5277 384.942C51.8722 390.396 54.7741 395.656 58.1528 400.577C61.4996 405.451 65.3432 410.035 69.5769 414.2C73.8105 418.366 78.4691 422.148 83.4229 425.441C88.4241 428.765 93.7703 431.62 99.3132 433.927C110.846 438.726 123.097 441.16 135.727 441.16H404.221ZM404.22 442.457H135.725C83.3307 442.457 40.8574 400.667 40.8574 349.115C40.8574 300.049 79.3305 259.829 128.216 256.064C136.302 199.291 185.863 155.6 245.793 155.6C290.254 155.6 329.005 179.647 349.35 215.242C361.543 211.082 374.638 208.818 388.27 208.818C453.842 208.818 507 261.12 507 325.638C507 344.406 502.501 362.138 494.507 377.852C482.19 415.341 446.422 442.457 404.22 442.457Z" fill="#ECECEC" fill-opacity="0.4"/>
<path d="M404.22 442.307H135.725C111.265 442.289 87.76 432.961 70.1317 416.278C52.5035 399.594 42.1183 376.849 41.1496 352.802C40.1809 328.756 48.7036 305.273 64.9344 287.27C81.1612 269.27 103.834 258.142 128.21 256.215C128.216 256.215 128.222 256.214 128.228 256.214C128.228 256.214 128.228 256.214 128.228 256.214L128.348 256.204L128.365 256.086C131.365 235.238 140.032 215.642 153.363 199.328C157.634 194.106 162.353 189.254 167.463 184.827C183.422 171.015 202.914 161.633 223.928 157.754C248.307 153.253 273.507 156.386 295.982 166.712C302.642 169.771 308.962 173.417 314.876 177.586C328.933 187.516 340.69 200.397 349.215 215.307C349.216 215.31 349.218 215.313 349.22 215.316L349.281 215.424L349.399 215.384C355.731 213.227 362.207 211.612 368.758 210.541C375.106 209.506 381.624 208.968 388.27 208.968C390.287 208.968 392.293 209.017 394.286 209.115C402.435 209.526 410.559 210.766 418.527 212.838C441.315 218.765 461.792 231.236 477.346 248.66C492.9 266.084 502.826 287.672 505.859 310.669C508.892 333.666 504.893 357.031 494.374 377.784L494.368 377.794L494.365 377.805C494.364 377.807 494.363 377.81 494.362 377.813C488.239 396.406 476.332 412.632 460.331 424.202C460.204 424.293 460.078 424.384 459.951 424.475C443.756 436.063 424.245 442.306 404.22 442.307ZM493.151 377.292L493.146 377.302L493.142 377.313L493.111 377.407C490.113 386.53 485.685 395.112 479.95 402.913C474.285 410.619 467.472 417.393 459.699 423.049C451.836 428.77 443.168 433.216 433.934 436.262C424.386 439.412 414.389 441.01 404.221 441.01H135.727C123.116 441.01 110.885 438.58 99.3708 433.788C93.8368 431.485 88.4991 428.635 83.506 425.316C78.56 422.028 73.9089 418.252 69.6821 414.093C65.4552 409.935 61.6178 405.358 58.2764 400.492C54.9033 395.58 52.0062 390.328 49.6655 384.883C44.7958 373.555 42.3266 361.521 42.3266 349.115C42.3266 325.837 51.1887 303.631 67.2811 286.586C75.1129 278.291 84.3012 271.563 94.5912 266.589C105.181 261.469 116.533 258.413 128.332 257.504L129.389 257.423L129.509 257.413L129.526 257.294L129.673 256.262C131.635 242.485 136.072 229.312 142.861 217.108C149.487 205.197 158.124 194.606 168.532 185.63C178.999 176.602 190.866 169.548 203.802 164.666C217.192 159.611 231.32 157.048 245.793 157.048C256.554 157.048 267.213 158.481 277.474 161.308C287.421 164.047 296.973 168.087 305.863 173.314C323.442 183.651 338.037 198.394 348.071 215.949L348.612 216.894L348.673 217.002L348.79 216.962L349.832 216.606C362.162 212.399 375.094 210.266 388.27 210.266C396.227 210.266 404.178 211.054 411.904 212.61C419.432 214.125 426.837 216.387 433.913 219.332C440.861 222.223 447.562 225.802 453.831 229.969C460.041 234.097 465.88 238.837 471.186 244.058C476.493 249.28 481.311 255.025 485.506 261.134C489.741 267.302 493.378 273.895 496.317 280.731C499.31 287.693 501.608 294.979 503.149 302.385C504.729 309.986 505.531 317.809 505.531 325.638C505.531 334.734 504.452 343.79 502.323 352.553C500.255 361.07 497.184 369.364 493.196 377.204L493.151 377.292ZM493.463 377.34L493.348 377.281L493.463 377.34C497.462 369.479 500.541 361.164 502.615 352.624C504.749 343.837 505.831 334.758 505.831 325.638C505.831 317.789 505.027 309.945 503.442 302.324C501.898 294.898 499.593 287.593 496.592 280.613C493.646 273.759 489.999 267.148 485.753 260.964C481.547 254.839 476.717 249.079 471.397 243.844C466.077 238.61 460.223 233.857 453.997 229.719C447.712 225.542 440.994 221.954 434.028 219.055C426.934 216.103 419.51 213.835 411.963 212.315C404.218 210.756 396.246 209.966 388.27 209.966C375.062 209.966 362.097 212.104 349.735 216.322L348.811 216.638L348.332 215.8C338.272 198.2 323.639 183.419 306.015 173.056C297.102 167.815 287.526 163.765 277.554 161.018C267.266 158.185 256.58 156.748 245.793 156.748C231.284 156.748 217.12 159.317 203.696 164.385C190.727 169.28 178.83 176.352 168.336 185.403C157.901 194.402 149.242 205.02 142.599 216.963C135.792 229.198 131.343 242.406 129.376 256.219L129.246 257.133L128.309 257.205C116.473 258.116 105.084 261.183 94.4606 266.319C84.1379 271.309 74.9199 278.059 67.063 286.38C50.9184 303.48 42.0266 325.76 42.0266 349.115C42.0266 361.562 44.504 373.636 49.3899 385.002C51.7383 390.464 54.645 395.733 58.0291 400.662C61.3814 405.544 65.2312 410.135 69.4717 414.307C73.7121 418.48 78.3781 422.267 83.3399 425.566C88.349 428.895 93.7038 431.755 99.2556 434.065C110.806 438.872 123.077 441.31 135.727 441.31H404.221C414.421 441.31 424.449 439.707 434.028 436.547C443.291 433.491 451.988 429.031 459.876 423.291C467.673 417.618 474.508 410.821 480.192 403.091C485.946 395.264 490.388 386.654 493.396 377.5L493.423 377.417L493.463 377.34Z" stroke="#ECECEC" stroke-opacity="0.5" stroke-width="0.3"/>
</g>
<defs>
<filter id="filter0_b_2558_3297" x="32.8574" y="147.6" width="482.143" height="302.857" filterUnits="userSpaceOnUse" color-interpolation-filters="sRGB">
<feFlood flood-opacity="0" result="BackgroundImageFix"/>
<feGaussianBlur in="BackgroundImageFix" stdDeviation="4"/>
<feComposite in2="SourceAlpha" operator="in" result="effect1_backgroundBlur_2558_3297"/>
<feBlend mode="normal" in="SourceGraphic" in2="effect1_backgroundBlur_2558_3297" result="shape"/>
</filter>
</defs>
</svg>
