<svg width="513" height="512" viewBox="0 0 513 512" fill="none" xmlns="http://www.w3.org/2000/svg">
<g filter="url(#filter0_b_2558_3302)">
<path d="M107.962 416C81.6313 415.98 56.3293 405.558 37.3526 386.917C18.3759 368.277 7.19583 342.862 6.15296 315.994C5.11009 289.125 14.2852 262.887 31.7576 242.77C49.23 222.654 73.645 210.22 99.8913 208.072C103.634 181.081 115.569 155.969 134.016 136.267C152.464 116.565 176.495 103.265 202.731 98.2377C228.966 93.211 256.084 96.7104 280.27 108.244C304.456 119.777 324.493 138.764 337.561 162.533C361.531 154.059 387.429 153.069 411.951 159.689C436.474 166.309 458.51 180.238 475.249 199.7C491.987 219.163 502.67 243.275 505.933 268.963C509.197 294.651 504.894 320.75 493.573 343.93C486.93 364.873 473.96 383.128 456.527 396.076C439.093 409.024 418.09 415.999 396.534 416H107.962Z" fill="url(#paint0_linear_2558_3302)" fill-opacity="0.7"/>
<path d="M396.535 414.553C407.481 414.553 418.242 412.768 428.521 409.248C438.461 405.844 447.792 400.877 456.257 394.484C464.624 388.166 471.959 380.596 478.057 371.986C484.231 363.27 488.998 353.681 492.226 343.486L492.259 343.381L492.307 343.283C496.599 334.526 499.904 325.262 502.13 315.749C504.421 305.96 505.582 295.844 505.582 285.683C505.582 276.939 504.72 268.2 503.018 259.71C501.361 251.437 498.887 243.299 495.666 235.522C492.503 227.887 488.589 220.522 484.031 213.633C479.517 206.808 474.332 200.391 468.621 194.559C462.911 188.727 456.627 183.433 449.944 178.822C443.198 174.168 435.987 170.17 428.51 166.941C420.895 163.651 412.926 161.125 404.824 159.432C396.511 157.695 387.954 156.814 379.391 156.814C365.213 156.814 351.296 159.197 338.027 163.896L336.908 164.293L336.327 163.238C325.529 143.63 309.822 127.163 290.904 115.617C281.336 109.778 271.058 105.266 260.354 102.206C249.311 99.0486 237.84 97.448 226.26 97.448C210.685 97.448 195.482 100.311 181.072 105.956C167.151 111.41 154.381 119.289 143.116 129.373C131.916 139.399 122.621 151.229 115.49 164.534C108.184 178.165 103.409 192.88 101.297 208.268L101.139 209.42L100.004 209.511C87.3021 210.526 75.0816 213.941 63.6817 219.661C52.6047 225.219 42.7133 232.737 34.2824 242.005C16.9586 261.05 7.41788 285.863 7.41788 311.873C7.41788 325.735 10.0761 339.182 15.3187 351.84C17.8385 357.924 20.9574 363.792 24.5887 369.281C28.1858 374.719 32.3168 379.832 36.867 384.478C41.4173 389.125 46.4242 393.344 51.7485 397.018C57.1236 400.726 62.8696 403.911 68.827 406.484C81.2218 411.838 94.3892 414.553 107.963 414.553H396.535ZM396.534 416H107.962C51.6494 416 6 369.381 6 311.873C6 257.138 47.3501 212.271 99.8913 208.072C108.582 144.739 161.849 96 226.26 96C274.046 96 315.695 122.825 337.561 162.533C350.666 157.892 364.74 155.366 379.391 155.366C449.867 155.366 507 213.712 507 285.683C507 306.62 502.164 326.401 493.573 343.93C480.334 385.751 441.892 416 396.534 416Z" fill="url(#paint1_linear_2558_3302)" fill-opacity="0.7"/>
</g>
<defs>
<filter id="filter0_b_2558_3302" x="-2" y="88" width="517" height="336" filterUnits="userSpaceOnUse" color-interpolation-filters="sRGB">
<feFlood flood-opacity="0" result="BackgroundImageFix"/>
<feGaussianBlur in="BackgroundImageFix" stdDeviation="4"/>
<feComposite in2="SourceAlpha" operator="in" result="effect1_backgroundBlur_2558_3302"/>
<feBlend mode="normal" in="SourceGraphic" in2="effect1_backgroundBlur_2558_3302" result="shape"/>
</filter>
<linearGradient id="paint0_linear_2558_3302" x1="473.6" y1="162.667" x2="6.32343" y2="376.706" gradientUnits="userSpaceOnUse">
<stop stop-color="#ECECEC"/>
<stop offset="1" stop-color="#DBDBDB"/>
</linearGradient>
<linearGradient id="paint1_linear_2558_3302" x1="473.6" y1="162.667" x2="6.32343" y2="376.706" gradientUnits="userSpaceOnUse">
<stop stop-color="#ECECEC"/>
<stop offset="1" stop-color="#DBDBDB"/>
</linearGradient>
</defs>
</svg>
