<svg width="512" height="512" viewBox="0 0 512 512" fill="none" xmlns="http://www.w3.org/2000/svg">
<path d="M198.268 268.084C203.136 268.137 252.52 341.416 252.52 369.892C252.52 383.567 246.805 396.681 236.63 406.351C226.456 416.02 212.657 421.452 198.268 421.452C183.879 421.452 170.08 416.02 159.906 406.351C149.731 396.681 144.016 383.567 144.016 369.892C144.016 341.416 193.4 268.034 198.268 268.084Z" fill="#42A0F0"/>
<path d="M156.903 389.166C162.324 390.742 169.213 384.262 172.291 374.694C175.369 365.126 173.47 356.092 168.049 354.517C162.628 352.942 155.739 359.422 152.661 368.99C149.583 378.558 151.482 387.591 156.903 389.166Z" fill="white"/>
<path d="M326.078 364.721C329.144 364.755 360.262 410.926 360.262 428.869C360.207 437.451 356.582 445.664 350.177 451.715C343.772 457.765 335.108 461.161 326.077 461.161C317.047 461.161 308.383 457.765 301.978 451.715C295.573 445.664 291.948 437.451 291.893 428.869C291.893 410.926 323.01 364.689 326.078 364.721Z" fill="#42A0F0"/>
<path d="M300.014 441.014C303.43 442.007 307.771 437.924 309.71 431.896C311.65 425.867 310.453 420.176 307.037 419.183C303.621 418.191 299.28 422.273 297.341 428.302C295.402 434.33 296.598 440.022 300.014 441.014Z" fill="white"/>
<g filter="url(#filter0_b_2558_3311)">
<path d="M107.165 360.761C80.7823 360.742 55.4297 350.681 36.4151 332.686C17.4006 314.69 6.19821 290.155 5.15326 264.217C4.10831 238.279 13.3018 212.948 30.809 193.528C48.3163 174.108 72.78 162.105 99.0788 160.03C102.829 133.975 114.788 109.731 133.272 90.7111C151.756 71.691 175.836 58.8514 202.123 53.9987C228.411 49.1459 255.583 52.5242 279.818 63.6583C304.052 74.7924 324.129 93.1219 337.223 116.068C361.24 107.888 387.19 106.932 411.762 113.323C436.333 119.713 458.413 133.16 475.185 151.949C491.957 170.738 502.661 194.016 505.931 218.815C509.201 243.613 504.89 268.809 493.546 291.186C486.89 311.404 473.894 329.027 456.426 341.527C438.957 354.027 417.913 360.76 396.313 360.761H107.165Z" fill="#ECECEC" fill-opacity="0.4"/>
<path d="M396.315 359.364C407.282 359.364 418.065 357.641 428.364 354.243C438.324 350.957 447.674 346.162 456.156 339.991C464.539 333.89 471.889 326.583 477.999 318.271C484.186 309.856 488.962 300.599 492.196 290.757L492.229 290.657L492.278 290.562C496.578 282.108 499.89 273.164 502.12 263.98C504.416 254.53 505.579 244.765 505.579 234.956C505.579 226.514 504.715 218.078 503.01 209.882C501.349 201.895 498.871 194.038 495.643 186.531C492.474 179.16 488.552 172.05 483.986 165.399C479.462 158.811 474.267 152.616 468.545 146.986C462.823 141.356 456.526 136.244 449.831 131.794C443.071 127.3 435.845 123.441 428.353 120.323C420.723 117.148 412.738 114.709 404.62 113.075C396.29 111.398 387.716 110.547 379.136 110.547C364.93 110.547 350.985 112.848 337.69 117.384L336.568 117.767L335.986 116.749C325.166 97.8195 309.428 81.9224 290.472 70.7762C280.886 65.1392 270.587 60.7832 259.861 57.8291C248.796 54.7815 237.303 53.2362 225.7 53.2362C210.094 53.2362 194.86 55.9998 180.421 61.45C166.473 66.7152 153.677 74.321 142.39 84.056C131.167 93.735 121.854 105.155 114.709 118C107.388 131.159 102.603 145.365 100.487 160.22L100.329 161.332L99.1914 161.42C86.4644 162.4 74.2195 165.697 62.7968 171.219C51.6977 176.585 41.7866 183.842 33.3388 192.79C15.9804 211.175 6.42071 235.129 6.42071 260.239C6.42071 273.621 9.08421 286.603 14.3373 298.823C16.8621 304.696 19.9872 310.361 23.6258 315.66C27.23 320.909 31.3693 325.845 35.9286 330.331C40.488 334.817 45.5049 338.89 50.8398 342.436C56.2256 346.016 61.9831 349.091 67.9524 351.575C80.372 356.744 93.5656 359.364 107.167 359.364H396.315ZM396.313 360.761H107.165C50.7405 360.761 5 315.756 5 260.239C5 207.399 46.4326 164.085 99.0788 160.03C107.787 98.8903 161.16 51.8384 225.7 51.8384C273.581 51.8384 315.313 77.7353 337.223 116.068C350.354 111.588 364.456 109.149 379.136 109.149C449.753 109.149 507 165.475 507 234.956C507 255.168 502.155 274.264 493.546 291.186C480.281 331.559 441.762 360.761 396.313 360.761Z" fill="#ECECEC" fill-opacity="0.4"/>
<path d="M107.165 360.611H396.313C417.882 360.61 438.895 353.886 456.338 341.405C456.473 341.308 456.608 341.212 456.743 341.114C473.769 328.778 486.759 311.362 493.404 291.139L493.407 291.129L493.413 291.119C504.742 268.768 509.049 243.603 505.783 218.834C502.516 194.066 491.826 170.815 475.073 152.049C458.321 133.283 436.267 119.851 411.724 113.468C403.142 111.236 394.391 109.901 385.614 109.458C383.468 109.353 381.309 109.299 379.136 109.299C371.98 109.299 364.962 109.879 358.126 110.994C351.069 112.147 344.092 113.887 337.272 116.21L337.154 116.25L337.093 116.143C337.091 116.139 337.089 116.136 337.088 116.133C327.906 100.074 315.242 86.2 300.102 75.5043C293.733 71.0149 286.926 67.0893 279.755 63.7946C255.549 52.6734 228.408 49.299 202.151 54.1462C179.52 58.3239 158.528 68.4276 141.34 83.302C135.836 88.0706 130.752 93.2981 126.15 98.9238C111.794 116.493 102.46 137.597 99.2279 160.047L107.165 360.611ZM107.165 360.611C80.8204 360.592 55.5048 350.546 36.5183 332.577C17.5318 314.608 6.3465 290.11 5.30314 264.211C4.25978 238.312 13.4392 213.02 30.9205 193.629C48.4018 174.238 72.8297 162.251 99.0905 160.18L99.2101 160.171M107.165 360.611L99.2101 160.171M99.2101 160.171L99.2272 160.052M99.2101 160.171L99.2272 160.052M99.2272 160.052C99.2272 160.052 99.2273 160.052 99.2273 160.052L99.2272 160.052ZM492.339 290.804L492.196 290.757L492.339 290.804L492.368 290.714L492.411 290.63C496.717 282.165 500.033 273.211 502.266 264.016C504.564 254.554 505.729 244.777 505.729 234.956C505.729 226.504 504.864 218.058 503.157 209.851C501.494 201.854 499.012 193.988 495.781 186.472C492.608 179.091 488.681 171.973 484.109 165.314C479.58 158.718 474.379 152.516 468.65 146.879C462.921 141.242 456.617 136.125 449.914 131.669C443.146 127.17 435.911 123.307 428.411 120.185C420.771 117.006 412.777 114.564 404.65 112.928C396.31 111.249 387.726 110.397 379.136 110.397C364.914 110.397 350.953 112.7 337.641 117.242L336.637 117.585L336.116 116.675C325.283 97.7222 309.526 81.8062 290.548 70.6469C280.951 65.0032 270.64 60.6421 259.901 57.6845C248.823 54.6333 237.316 53.0862 225.7 53.0862C210.076 53.0862 194.824 55.853 180.368 61.3097C166.403 66.5811 153.592 74.1959 142.292 83.9424C131.056 93.6328 121.732 105.067 114.578 117.927C107.248 131.103 102.457 145.325 100.339 160.199L100.198 161.192L99.1799 161.27C86.4343 162.252 74.1712 165.554 62.7316 171.084C51.616 176.458 41.6901 183.726 33.2298 192.687C15.8453 211.099 6.27071 235.09 6.27071 260.239C6.27071 273.642 8.93831 286.643 14.1995 298.882C16.7282 304.764 19.8581 310.438 23.5021 315.745C27.1119 321.002 31.2573 325.945 35.8234 330.438C40.3896 334.931 45.4139 339.009 50.7568 342.561C56.1506 346.146 61.9166 349.226 67.8948 351.714C80.3328 356.89 93.546 359.514 107.167 359.514H396.315C407.298 359.514 418.097 357.789 428.411 354.386C438.386 351.095 447.75 346.292 456.244 340.112C464.64 334.003 472 326.684 478.12 318.36C484.316 309.933 489.1 300.661 492.339 290.804ZM492.096 290.589L492.09 290.599L492.087 290.61L492.054 290.711C488.825 300.537 484.056 309.78 477.878 318.183C471.777 326.482 464.439 333.778 456.067 339.869C447.599 346.032 438.262 350.82 428.317 354.101C418.033 357.494 407.266 359.214 396.315 359.214H107.167C93.5852 359.214 80.4111 356.598 68.01 351.437C62.0496 348.956 56.3007 345.886 50.9228 342.311C45.5958 338.77 40.5863 334.703 36.0338 330.224C31.4814 325.745 27.3482 320.816 23.7494 315.575C20.1164 310.284 16.996 304.628 14.4751 298.763C9.23011 286.562 6.57071 273.601 6.57071 260.239C6.57071 235.167 16.1156 211.25 33.4479 192.893C41.8831 183.958 51.7794 176.712 62.8621 171.354C74.2678 165.84 86.4945 162.548 99.2029 161.57L100.341 161.482L100.461 161.473L100.478 161.354L100.636 160.242C102.749 145.404 107.528 131.216 114.84 118.073C121.977 105.244 131.278 93.8372 142.488 84.1696C153.762 74.4461 166.542 66.8494 180.474 61.5904C194.896 56.1466 210.112 53.3862 225.7 53.3862C237.289 53.3862 248.769 54.9297 259.822 57.9737C270.535 60.9243 280.821 65.2752 290.396 70.9055C309.33 82.0385 325.049 97.9169 335.856 116.823L336.438 117.842L336.499 117.949L336.617 117.909L337.738 117.526C351.018 112.995 364.946 110.697 379.136 110.697C387.706 110.697 396.27 111.547 404.591 113.222C412.699 114.854 420.674 117.29 428.295 120.462C435.778 123.576 442.996 127.431 449.748 131.919C456.435 136.364 462.724 141.469 468.44 147.093C474.155 152.716 479.344 158.904 483.862 165.484C488.423 172.127 492.341 179.228 495.505 186.59C498.729 194.089 501.204 201.935 502.864 209.912C504.566 218.098 505.429 226.524 505.429 234.956C505.429 244.753 504.267 254.506 501.975 263.945C499.747 273.117 496.439 282.05 492.144 290.494L492.096 290.589Z" stroke="#ECECEC" stroke-opacity="0.5" stroke-width="0.3"/>
</g>
<defs>
<filter id="filter0_b_2558_3311" x="2" y="48.8384" width="508" height="314.923" filterUnits="userSpaceOnUse" color-interpolation-filters="sRGB">
<feFlood flood-opacity="0" result="BackgroundImageFix"/>
<feGaussianBlur in="BackgroundImageFix" stdDeviation="1.5"/>
<feComposite in2="SourceAlpha" operator="in" result="effect1_backgroundBlur_2558_3311"/>
<feBlend mode="normal" in="SourceGraphic" in2="effect1_backgroundBlur_2558_3311" result="shape"/>
</filter>
</defs>
</svg>
