<svg width="512" height="512" viewBox="0 0 512 512" fill="none" xmlns="http://www.w3.org/2000/svg">
<path d="M122.512 374.324C124.742 374.35 147.347 411.673 147.347 426.177C147.347 433.142 144.731 439.822 140.073 444.747C135.416 449.672 129.099 452.439 122.512 452.439C115.925 452.439 109.608 449.672 104.951 444.747C100.293 439.822 97.6768 433.142 97.6768 426.177C97.6768 411.674 120.283 374.297 122.512 374.324Z" fill="#42A0F0"/>
<path d="M103.577 435.993C106.059 436.795 109.213 433.495 110.621 428.622C112.03 423.749 111.161 419.148 108.679 418.346C106.198 417.544 103.044 420.844 101.635 425.717C100.226 430.59 101.096 435.19 103.577 435.993Z" fill="white"/>
<path d="M252.138 374.324C254.368 374.35 276.974 411.673 276.974 426.177C276.974 433.142 274.357 439.822 269.7 444.747C265.042 449.672 258.725 452.439 252.138 452.439C245.552 452.439 239.235 449.672 234.577 444.747C229.92 439.822 227.303 433.142 227.303 426.177C227.303 411.674 249.91 374.297 252.138 374.324Z" fill="#42A0F0"/>
<path d="M233.203 435.993C235.685 436.795 238.839 433.495 240.248 428.622C241.657 423.749 240.787 419.148 238.306 418.346C235.824 417.544 232.67 420.844 231.261 425.717C229.852 430.59 230.722 435.19 233.203 435.993Z" fill="white"/>
<path d="M381.765 374.324C383.995 374.35 406.6 411.673 406.6 426.177C406.6 433.142 403.983 439.822 399.326 444.747C394.668 449.672 388.351 452.439 381.765 452.439C375.178 452.439 368.861 449.672 364.203 444.747C359.546 439.822 356.929 433.142 356.929 426.177C356.929 411.674 379.536 374.297 381.765 374.324Z" fill="#42A0F0"/>
<path d="M362.83 435.993C365.311 436.795 368.465 433.495 369.874 428.622C371.283 423.749 370.413 419.148 367.932 418.346C365.45 417.544 362.296 420.844 360.887 425.717C359.479 430.59 360.348 435.19 362.83 435.993Z" fill="white"/>
<path d="M188.022 259.362C190.252 259.388 212.857 296.711 212.857 311.216C212.857 318.18 210.241 324.86 205.583 329.785C200.926 334.71 194.609 337.477 188.022 337.477C181.435 337.477 175.118 334.71 170.461 329.785C165.803 324.86 163.187 318.18 163.187 311.216C163.187 296.713 185.793 259.335 188.022 259.362Z" fill="#42A0F0"/>
<path d="M169.087 321.031C171.569 321.833 174.723 318.533 176.132 313.66C177.54 308.787 176.671 304.186 174.189 303.384C171.708 302.582 168.554 305.882 167.145 310.755C165.736 315.628 166.606 320.229 169.087 321.031Z" fill="white"/>
<path d="M324.618 259.362C326.848 259.388 349.453 296.711 349.453 311.216C349.453 318.18 346.836 324.86 342.179 329.785C337.521 334.71 331.204 337.477 324.618 337.477C318.031 337.477 311.714 334.71 307.056 329.785C302.399 324.86 299.782 318.18 299.782 311.216C299.782 296.713 322.389 259.335 324.618 259.362Z" fill="#42A0F0"/>
<path d="M305.683 321.031C308.164 321.833 311.318 318.533 312.727 313.66C314.136 308.787 313.266 304.186 310.785 303.384C308.303 302.582 305.149 305.882 303.74 310.755C302.331 315.628 303.201 320.229 305.683 321.031Z" fill="white"/>
<g filter="url(#filter0_b_2558_3316)">
<path d="M107.165 367.485C80.7823 367.465 55.4297 357.404 36.4151 339.409C17.4006 321.413 6.19821 296.878 5.15326 270.94C4.10831 245.002 13.3018 219.671 30.809 200.252C48.3163 180.832 72.78 168.828 99.0788 166.754C102.829 140.698 114.788 116.455 133.272 97.4345C151.756 78.4144 175.836 65.5748 202.123 60.722C228.411 55.8693 255.583 59.2476 279.818 70.3817C304.052 81.5158 324.129 99.8453 337.223 122.792C361.24 114.611 387.19 113.656 411.762 120.046C436.333 126.437 458.413 139.884 475.185 158.672C491.957 177.461 502.661 200.739 505.931 225.538C509.201 250.337 504.89 275.532 493.546 297.91C486.89 318.128 473.894 335.751 456.426 348.25C438.957 360.75 417.913 367.484 396.313 367.485H107.165Z" fill="#ECECEC" fill-opacity="0.4"/>
<path d="M396.315 366.088C407.282 366.088 418.065 364.365 428.364 360.967C438.324 357.681 447.674 352.885 456.156 346.714C464.539 340.614 471.889 333.306 477.999 324.995C484.186 316.58 488.962 307.323 492.196 297.481L492.229 297.38L492.278 297.285C496.578 288.831 499.89 279.888 502.12 270.704C504.416 261.254 505.579 251.488 505.579 241.679C505.579 233.237 504.715 224.801 503.01 216.605C501.349 208.618 498.871 200.762 495.643 193.254C492.474 185.883 488.552 178.773 483.986 172.122C479.462 165.535 474.267 159.339 468.545 153.709C462.823 148.079 456.526 142.968 449.831 138.517C443.071 134.024 435.845 130.165 428.353 127.047C420.723 123.871 412.738 121.433 404.62 119.798C396.29 118.121 387.716 117.271 379.136 117.271C364.93 117.271 350.985 119.571 337.69 124.108L336.568 124.491L335.986 123.472C325.166 104.543 309.428 88.6458 290.472 77.4996C280.886 71.8626 270.587 67.5066 259.861 64.5525C248.796 61.5049 237.303 59.9596 225.7 59.9596C210.094 59.9596 194.86 62.7232 180.421 68.1734C166.473 73.4386 153.677 81.0444 142.39 90.7794C131.167 100.458 121.854 111.879 114.709 124.723C107.388 137.883 102.603 152.088 100.487 166.944L100.329 168.056L99.1914 168.143C86.4644 169.124 74.2195 172.421 62.7968 177.943C51.6977 183.308 41.7866 190.566 33.3388 199.513C15.9804 217.898 6.42071 241.852 6.42071 266.963C6.42071 280.345 9.08421 293.326 14.3373 305.546C16.8621 311.419 19.9872 317.084 23.6258 322.383C27.23 327.632 31.3693 332.569 35.9286 337.055C40.488 341.541 45.5049 345.613 50.8398 349.16C56.2256 352.74 61.9831 355.814 67.9524 358.299C80.372 363.467 93.5656 366.088 107.167 366.088H396.315ZM396.313 367.485H107.165C50.7405 367.485 5 322.48 5 266.963C5 214.122 46.4326 170.808 99.0788 166.754C107.787 105.614 161.16 58.5618 225.7 58.5618C273.581 58.5618 315.313 84.4587 337.223 122.792C350.354 118.311 364.456 115.873 379.136 115.873C449.753 115.873 507 172.199 507 241.679C507 261.891 502.155 280.987 493.546 297.91C480.281 338.283 441.762 367.485 396.313 367.485Z" fill="#ECECEC" fill-opacity="0.4"/>
<path d="M107.165 367.335H396.313C417.882 367.334 438.895 360.61 456.338 348.128C456.473 348.032 456.608 347.935 456.742 347.838C473.769 335.502 486.759 318.086 493.404 297.863L493.407 297.852L493.413 297.842C504.742 275.491 509.049 250.326 505.783 225.558C502.516 200.789 491.826 177.539 475.073 158.772C458.321 140.006 436.267 126.574 411.724 120.191C403.142 117.959 394.391 116.624 385.614 116.182C383.468 116.076 381.309 116.023 379.136 116.023C371.98 116.023 364.962 116.603 358.126 117.717C351.069 118.871 344.092 120.61 337.272 122.934L337.154 122.973L337.093 122.866C337.091 122.863 337.089 122.86 337.088 122.856C327.906 106.797 315.242 92.9233 300.102 82.2276C293.733 77.7382 286.926 73.8127 279.755 70.518C255.549 59.3968 228.408 56.0224 202.151 60.8696C179.521 65.0471 158.529 75.1502 141.342 90.0237C135.836 94.7932 130.751 100.022 126.149 105.649C111.793 123.218 102.46 144.321 99.2279 166.771L107.165 367.335ZM107.165 367.335C80.8204 367.315 55.5048 357.269 36.5183 339.3C17.5318 321.331 6.3465 296.833 5.30314 270.934C4.25978 245.035 13.4392 219.743 30.9205 200.352C48.3975 180.966 72.8177 168.981 99.0712 166.905M107.165 367.335L99.0712 166.905M99.0712 166.905C99.0775 166.904 99.0839 166.904 99.0903 166.903C99.0904 166.903 99.0905 166.903 99.0905 166.903L99.2101 166.894L99.2272 166.775C99.2272 166.775 99.2273 166.775 99.2273 166.775L99.0712 166.905ZM492.339 297.528L492.196 297.481L492.339 297.528L492.368 297.438L492.411 297.353C496.717 288.889 500.033 279.934 502.266 270.739C504.564 261.277 505.729 251.5 505.729 241.679C505.729 233.227 504.864 224.781 503.157 216.575C501.494 208.578 499.012 200.712 495.781 193.195C492.608 185.815 488.681 178.696 484.109 172.038C479.58 165.442 474.379 159.239 468.65 153.602C462.921 147.966 456.617 142.848 449.914 138.392C443.146 133.894 435.911 130.03 428.411 126.908C420.771 123.729 412.777 121.288 404.65 119.651C396.31 117.972 387.726 117.121 379.136 117.121C364.914 117.121 350.953 119.424 337.641 123.966L336.637 124.309L336.116 123.398C325.283 104.446 309.526 88.5296 290.548 77.3703C280.951 71.7266 270.64 67.3655 259.901 64.4079C248.823 61.3566 237.316 59.8096 225.7 59.8096C210.076 59.8096 194.824 62.5764 180.368 68.0331C166.403 73.3045 153.592 80.9193 142.292 90.6658C131.056 100.356 121.732 111.79 114.578 124.65C107.248 137.826 102.457 152.049 100.339 166.923L100.198 167.915L99.1799 167.994C86.4343 168.975 74.1712 172.277 62.7316 177.807C51.616 183.181 41.6901 190.449 33.2298 199.41C15.8453 217.823 6.27071 241.814 6.27071 266.963C6.27071 280.365 8.93831 293.367 14.1995 305.605C16.7282 311.488 19.8581 317.161 23.5021 322.468C27.1119 327.725 31.2573 332.669 35.8234 337.161C40.3896 341.654 45.4139 345.733 50.7568 349.284C56.1506 352.87 61.9166 355.949 67.8948 358.437C80.3328 363.613 93.546 366.238 107.167 366.238H396.315C407.298 366.238 418.097 364.512 428.411 361.109C438.386 357.818 447.75 353.016 456.244 346.835C464.64 340.726 472 333.408 478.12 325.084C484.316 316.656 489.1 307.385 492.339 297.528ZM492.096 297.312L492.09 297.322L492.087 297.333L492.054 297.434C488.825 307.261 484.056 316.504 477.878 324.906C471.777 333.205 464.439 340.502 456.067 346.593C447.599 352.755 438.262 357.543 428.317 360.824C418.033 364.217 407.266 365.938 396.315 365.938H107.167C93.5852 365.938 80.4111 363.321 68.01 358.16C62.0496 355.68 56.3007 352.609 50.9228 349.035C45.5958 345.494 40.5863 341.427 36.0338 336.948C31.4814 332.468 27.3482 327.54 23.7494 322.298C20.1164 317.007 16.996 311.351 14.4751 305.487C9.23011 293.286 6.57071 280.325 6.57071 266.963C6.57071 241.891 16.1156 217.973 33.4479 199.616C41.8831 190.682 51.7794 183.435 62.8621 178.078C74.2678 172.564 86.4945 169.272 99.2029 168.293L100.341 168.205L100.461 168.196L100.478 168.077L100.636 166.965C102.749 152.127 107.528 137.94 114.84 124.796C121.977 111.967 131.278 100.561 142.488 90.893C153.762 81.1695 166.542 73.5728 180.474 68.3138C194.896 62.87 210.112 60.1096 225.7 60.1096C237.289 60.1096 248.769 61.6531 259.822 64.6971C270.535 67.6477 280.821 71.9986 290.396 77.6289C309.33 88.7619 325.049 104.64 335.856 123.547L336.438 124.565L336.499 124.673L336.617 124.633L337.738 124.25C351.018 119.718 364.946 117.421 379.136 117.421C387.706 117.421 396.27 118.27 404.591 119.945C412.699 121.578 420.674 124.014 428.295 127.185C435.778 130.299 442.996 134.154 449.748 138.642C456.435 143.087 462.724 148.193 468.44 153.816C474.155 159.44 479.344 165.627 483.862 172.207C488.423 178.85 492.341 185.951 495.505 193.314C498.729 200.812 501.204 208.659 502.864 216.636C504.566 224.822 505.429 233.248 505.429 241.679C505.429 251.477 504.267 261.23 501.975 270.668C499.747 279.841 496.439 288.773 492.144 297.217L492.096 297.312Z" stroke="#ECECEC" stroke-opacity="0.5" stroke-width="0.3"/>
</g>
<defs>
<filter id="filter0_b_2558_3316" x="2" y="55.5618" width="508" height="314.923" filterUnits="userSpaceOnUse" color-interpolation-filters="sRGB">
<feFlood flood-opacity="0" result="BackgroundImageFix"/>
<feGaussianBlur in="BackgroundImageFix" stdDeviation="1.5"/>
<feComposite in2="SourceAlpha" operator="in" result="effect1_backgroundBlur_2558_3316"/>
<feBlend mode="normal" in="SourceGraphic" in2="effect1_backgroundBlur_2558_3316" result="shape"/>
</filter>
</defs>
</svg>
