<svg width="512" height="512" viewBox="0 0 512 512" fill="none" xmlns="http://www.w3.org/2000/svg">
<g opacity="0.9">
<path d="M140.723 309.286C212.305 309.286 270.333 251.294 270.333 179.756C270.333 108.218 212.305 50.2249 140.723 50.2249C69.1419 50.2249 11.1138 108.218 11.1138 179.756C11.1138 251.294 69.1419 309.286 140.723 309.286Z" fill="url(#paint0_linear_2558_3321)"/>
</g>
<path d="M149.975 408.865C152.046 408.889 173.037 443.546 173.037 457.014C173.037 463.482 170.607 469.684 166.282 474.258C161.957 478.831 156.092 481.4 149.975 481.4C143.859 481.4 137.993 478.831 133.669 474.258C129.344 469.684 126.914 463.482 126.914 457.014C126.914 443.547 147.906 408.84 149.975 408.865Z" fill="#42A0F0"/>
<path d="M132.393 466.129C134.697 466.874 137.626 463.809 138.934 459.284C140.242 454.759 139.435 450.487 137.131 449.742C134.826 448.998 131.898 452.062 130.589 456.587C129.281 461.112 130.089 465.384 132.393 466.129Z" fill="white"/>
<path d="M270.343 408.865C272.413 408.889 293.404 443.546 293.404 457.014C293.404 463.482 290.974 469.684 286.649 474.258C282.325 478.831 276.459 481.4 270.343 481.4C264.226 481.4 258.361 478.831 254.036 474.258C249.711 469.684 247.281 463.482 247.281 457.014C247.281 443.547 268.273 408.84 270.343 408.865Z" fill="#42A0F0"/>
<path d="M252.76 466.129C255.065 466.874 257.993 463.809 259.301 459.284C260.61 454.759 259.802 450.487 257.498 449.742C255.194 448.998 252.265 452.062 250.957 456.587C249.648 461.112 250.456 465.384 252.76 466.129Z" fill="white"/>
<path d="M390.71 408.865C392.781 408.889 413.771 443.546 413.771 457.014C413.771 463.482 411.342 469.684 407.017 474.258C402.692 478.831 396.826 481.4 390.71 481.4C384.594 481.4 378.728 478.831 374.403 474.258C370.078 469.684 367.649 463.482 367.649 457.014C367.649 443.547 388.64 408.84 390.71 408.865Z" fill="#42A0F0"/>
<path d="M373.127 466.129C375.432 466.874 378.36 463.809 379.669 459.284C380.977 454.759 380.169 450.487 377.865 449.742C375.561 448.998 372.632 452.062 371.324 456.587C370.016 461.112 370.823 465.384 373.127 466.129Z" fill="white"/>
<path d="M210.806 302.114C212.877 302.139 233.867 336.796 233.867 350.264C233.867 356.732 231.438 362.934 227.113 367.507C222.788 372.081 216.922 374.65 210.806 374.65C204.69 374.65 198.824 372.081 194.499 367.507C190.174 362.934 187.745 356.732 187.745 350.264C187.745 336.797 208.737 302.09 210.806 302.114Z" fill="#42A0F0"/>
<path d="M193.224 359.378C195.528 360.123 198.457 357.059 199.765 352.534C201.073 348.009 200.266 343.737 197.961 342.992C195.657 342.247 192.729 345.311 191.42 349.836C190.112 354.361 190.919 358.633 193.224 359.378Z" fill="white"/>
<path d="M337.645 302.114C339.716 302.139 360.706 336.796 360.706 350.264C360.706 356.732 358.276 362.934 353.952 367.507C349.627 372.081 343.761 374.65 337.645 374.65C331.529 374.65 325.663 372.081 321.338 367.507C317.013 362.934 314.583 356.732 314.583 350.264C314.583 336.797 335.575 302.09 337.645 302.114Z" fill="#42A0F0"/>
<path d="M320.062 359.378C322.367 360.123 325.295 357.059 326.604 352.534C327.912 348.009 327.104 343.737 324.8 342.992C322.496 342.247 319.567 345.311 318.259 349.836C316.951 354.361 317.758 358.633 320.062 359.378Z" fill="white"/>
<g filter="url(#filter0_b_2558_3321)">
<path d="M135.725 402.514C111.226 402.496 87.6845 393.154 70.0281 376.444C52.3717 359.734 41.9696 336.951 40.9992 312.866C40.0289 288.78 48.5657 265.259 64.8225 247.226C81.0792 229.194 103.796 218.048 128.216 216.121C131.698 191.927 142.803 169.415 159.966 151.753C177.13 134.092 199.49 122.169 223.9 117.663C248.31 113.157 273.541 116.294 296.045 126.633C318.548 136.972 337.191 153.992 349.35 175.299C371.652 167.703 395.748 166.816 418.564 172.75C441.381 178.684 461.884 191.171 477.458 208.617C493.032 226.064 502.971 247.679 506.007 270.707C509.044 293.734 505.04 317.13 494.507 337.909C488.326 356.683 476.259 373.047 460.038 384.654C443.817 396.261 424.276 402.513 404.219 402.514H135.725Z" fill="#ECECEC" fill-opacity="0.4"/>
<path d="M404.221 401.217C414.404 401.217 424.417 399.617 433.981 396.462C443.229 393.41 451.912 388.958 459.787 383.227C467.572 377.563 474.396 370.777 480.07 363.059C485.815 355.245 490.251 346.65 493.253 337.511L493.284 337.417L493.329 337.329C497.322 329.479 500.397 321.174 502.469 312.646C504.6 303.871 505.681 294.803 505.681 285.695C505.681 277.856 504.878 270.023 503.295 262.412C501.753 254.995 499.451 247.7 496.454 240.729C493.512 233.884 489.87 227.282 485.629 221.106C481.429 214.989 476.605 209.236 471.291 204.009C465.978 198.781 460.131 194.034 453.914 189.901C447.637 185.729 440.927 182.146 433.97 179.251C426.885 176.302 419.471 174.037 411.933 172.52C404.198 170.962 396.236 170.173 388.269 170.173C375.078 170.173 362.129 172.309 349.783 176.521L348.742 176.877L348.201 175.931C338.154 158.354 323.54 143.592 305.938 133.242C297.037 128.008 287.473 123.963 277.514 121.22C267.239 118.39 256.567 116.955 245.793 116.955C231.301 116.955 217.156 119.521 203.748 124.582C190.796 129.471 178.914 136.534 168.433 145.574C158.012 154.561 149.364 165.166 142.729 177.093C135.932 189.313 131.489 202.503 129.524 216.298L129.377 217.33L128.32 217.412C116.502 218.322 105.132 221.383 94.5254 226.511C84.2191 231.493 75.0159 238.232 67.1716 246.54C51.0531 263.612 42.1762 285.855 42.1762 309.172C42.1762 321.599 44.6494 333.653 49.5273 345C51.8718 350.453 54.7736 355.714 58.1523 360.634C61.4991 365.509 65.3428 370.092 69.5764 374.258C73.81 378.423 78.4686 382.205 83.4225 385.498C88.4236 388.822 93.7698 391.677 99.3127 393.984C110.845 398.784 123.096 401.217 135.726 401.217H404.221ZM404.219 402.514H135.725C83.3303 402.514 40.8569 360.724 40.8569 309.172C40.8569 260.106 79.3301 219.886 128.216 216.121C136.302 159.348 185.862 115.657 245.793 115.657C290.254 115.657 329.005 139.704 349.35 175.299C361.543 171.139 374.638 168.875 388.269 168.875C453.842 168.875 507 221.177 507 285.695C507 304.463 502.501 322.195 494.507 337.909C482.189 375.398 446.422 402.514 404.219 402.514Z" fill="#ECECEC" fill-opacity="0.4"/>
<path d="M404.219 402.364H135.725C111.264 402.346 87.7596 393.018 70.1312 376.335C52.503 359.651 42.1178 336.906 41.1491 312.86C40.1804 288.814 48.7032 265.331 64.9339 247.327C81.1607 229.327 103.834 218.2 128.21 216.272C128.215 216.272 128.221 216.271 128.227 216.271C128.227 216.271 128.227 216.271 128.228 216.271L128.347 216.261L128.364 216.143C131.365 195.296 140.032 175.699 153.362 159.386C157.634 154.164 162.352 149.312 167.461 144.885C183.421 131.073 202.913 121.69 223.927 117.811C248.307 113.31 273.507 116.443 295.982 126.769C302.643 129.829 308.965 133.476 314.88 137.646C328.938 147.578 340.696 160.461 349.22 175.374L349.281 175.481L349.398 175.441C349.401 175.44 349.403 175.44 349.405 175.439C355.733 173.284 362.205 171.67 368.752 170.599C375.101 169.564 381.621 169.025 388.269 169.025C390.286 169.025 392.292 169.074 394.284 169.172C402.434 169.583 410.558 170.823 418.526 172.895C441.314 178.822 461.791 191.293 477.346 208.717C492.9 226.141 502.826 247.729 505.859 270.726C508.891 293.724 504.893 317.089 494.373 337.841L494.368 337.851L494.365 337.862C488.193 356.645 476.126 372.82 460.309 384.274C460.19 384.36 460.07 384.446 459.951 384.532C443.755 396.12 424.245 402.363 404.219 402.364ZM493.15 337.349L493.145 337.359L493.142 337.37L493.111 337.464C490.113 346.588 485.685 355.169 479.95 362.971C474.285 370.676 467.471 377.45 459.699 383.106C451.836 388.827 443.167 393.273 433.934 396.319C424.385 399.47 414.389 401.067 404.221 401.067H135.726C123.116 401.067 110.884 398.637 99.3704 393.846C93.8363 391.543 88.4986 388.692 83.5055 385.373C78.5596 382.085 73.9084 378.31 69.6816 374.151C65.4548 369.992 61.6173 365.416 58.276 360.549C54.9028 355.637 52.0057 350.385 49.6651 344.94C44.7953 333.612 42.3262 321.578 42.3262 309.172C42.3262 285.894 51.1882 263.688 67.2806 246.643C75.1124 238.348 84.3008 231.62 94.5907 226.646C105.181 221.526 116.533 218.47 128.332 217.561L129.388 217.48L129.508 217.471L129.525 217.351L129.672 216.319C131.635 202.542 136.072 189.369 142.86 177.166C149.487 165.254 158.123 154.663 168.531 145.687C178.999 136.659 190.865 129.606 203.801 124.723C217.191 119.668 231.319 117.105 245.793 117.105C256.553 117.105 267.212 118.538 277.474 121.365C287.421 124.104 296.972 128.144 305.862 133.372C323.442 143.709 338.037 158.451 348.071 176.006L348.611 176.951L348.673 177.059L348.79 177.019L349.832 176.663C362.162 172.456 375.094 170.323 388.269 170.323C396.226 170.323 404.178 171.111 411.903 172.667C419.432 174.182 426.837 176.444 433.913 179.389C440.861 182.28 447.562 185.859 453.831 190.026C460.04 194.154 465.88 198.894 471.186 204.115C476.493 209.337 481.311 215.082 485.506 221.191C489.741 227.359 493.378 233.952 496.316 240.788C499.309 247.75 501.608 255.036 503.148 262.442C504.729 270.043 505.531 277.866 505.531 285.695C505.531 294.791 504.451 303.847 502.323 312.611C500.254 321.127 497.183 329.421 493.195 337.261L493.15 337.349ZM493.463 337.397L493.329 337.329L493.463 337.397C497.461 329.536 500.54 321.221 502.614 312.681C504.749 303.895 505.831 294.815 505.831 285.695C505.831 277.846 505.027 270.002 503.442 262.381C501.897 254.955 499.593 247.65 496.592 240.67C493.646 233.816 489.999 227.205 485.753 221.022C481.547 214.896 476.717 209.136 471.397 203.902C466.076 198.667 460.222 193.915 453.997 189.776C447.712 185.599 440.994 182.011 434.028 179.112C426.934 176.16 419.51 173.892 411.963 172.373C404.218 170.813 396.246 170.023 388.269 170.023C375.061 170.023 362.096 172.161 349.735 176.379L348.81 176.695L348.331 175.857C338.271 158.257 323.638 143.476 306.014 133.113C297.102 127.872 287.526 123.822 277.554 121.075C267.266 118.242 256.58 116.805 245.793 116.805C231.283 116.805 217.12 119.375 203.695 124.442C190.727 129.337 178.83 136.409 168.335 145.46C157.901 154.459 149.242 165.077 142.598 177.02C135.792 189.256 131.343 202.464 129.375 216.277L129.245 217.19L128.309 217.262C116.472 218.174 105.084 221.24 94.4601 226.376C84.1374 231.366 74.9194 238.116 67.0625 246.437C50.9179 263.537 42.0262 285.817 42.0262 309.172C42.0262 321.619 44.5035 333.693 49.3894 345.059C51.7378 350.522 54.6445 355.791 58.0286 360.719C61.3809 365.601 65.2307 370.192 69.4712 374.365C73.7116 378.537 78.3776 382.325 83.3394 385.623C88.3486 388.953 93.7033 391.812 99.2551 394.123C110.806 398.93 123.077 401.367 135.726 401.367H404.221C414.42 401.367 424.449 399.765 434.028 396.604C443.291 393.548 451.987 389.088 459.875 383.349C467.673 377.675 474.508 370.879 480.191 363.148C485.945 355.322 490.388 346.712 493.396 337.557L493.423 337.475L493.463 337.397Z" stroke="#ECECEC" stroke-opacity="0.5" stroke-width="0.3"/>
</g>
<defs>
<filter id="filter0_b_2558_3321" x="32.8569" y="107.657" width="482.143" height="302.857" filterUnits="userSpaceOnUse" color-interpolation-filters="sRGB">
<feFlood flood-opacity="0" result="BackgroundImageFix"/>
<feGaussianBlur in="BackgroundImageFix" stdDeviation="4"/>
<feComposite in2="SourceAlpha" operator="in" result="effect1_backgroundBlur_2558_3321"/>
<feBlend mode="normal" in="SourceGraphic" in2="effect1_backgroundBlur_2558_3321" result="shape"/>
</filter>
<linearGradient id="paint0_linear_2558_3321" x1="140.723" y1="50.2249" x2="140.723" y2="309.286" gradientUnits="userSpaceOnUse">
<stop stop-color="#FDC500"/>
<stop offset="1" stop-color="#FD8900"/>
</linearGradient>
</defs>
</svg>
