<svg width="512" height="512" viewBox="0 0 512 512" fill="none" xmlns="http://www.w3.org/2000/svg">
<path d="M149.975 408.865C152.046 408.89 173.037 443.547 173.037 457.015C173.037 463.482 170.607 469.685 166.282 474.258C161.957 478.831 156.091 481.4 149.975 481.4C143.859 481.4 137.993 478.831 133.668 474.258C129.343 469.685 126.914 463.482 126.914 457.015C126.914 443.548 147.906 408.84 149.975 408.865Z" fill="#42A0F0"/>
<path d="M132.393 466.129C134.697 466.874 137.626 463.81 138.934 459.285C140.242 454.76 139.435 450.488 137.13 449.743C134.826 448.998 131.898 452.062 130.589 456.587C129.281 461.112 130.088 465.384 132.393 466.129Z" fill="white"/>
<path d="M270.343 408.865C272.413 408.89 293.404 443.547 293.404 457.015C293.404 463.482 290.974 469.685 286.649 474.258C282.325 478.831 276.459 481.4 270.343 481.4C264.226 481.4 258.361 478.831 254.036 474.258C249.711 469.685 247.281 463.482 247.281 457.015C247.281 443.548 268.273 408.84 270.343 408.865Z" fill="#42A0F0"/>
<path d="M252.76 466.129C255.064 466.874 257.993 463.81 259.301 459.285C260.61 454.76 259.802 450.488 257.498 449.743C255.194 448.998 252.265 452.062 250.957 456.587C249.648 461.112 250.456 465.384 252.76 466.129Z" fill="white"/>
<path d="M390.71 408.865C392.781 408.89 413.771 443.547 413.771 457.015C413.771 463.482 411.342 469.685 407.017 474.258C402.692 478.831 396.826 481.4 390.71 481.4C384.594 481.4 378.728 478.831 374.403 474.258C370.078 469.685 367.649 463.482 367.649 457.015C367.649 443.548 388.64 408.84 390.71 408.865Z" fill="#42A0F0"/>
<path d="M373.128 466.129C375.432 466.874 378.361 463.81 379.669 459.285C380.977 454.76 380.17 450.488 377.865 449.743C375.561 448.998 372.632 452.062 371.324 456.587C370.016 461.112 370.823 465.384 373.128 466.129Z" fill="white"/>
<path d="M210.806 302.115C212.877 302.139 233.867 336.796 233.867 350.264C233.867 356.732 231.438 362.934 227.113 367.508C222.788 372.081 216.922 374.65 210.806 374.65C204.69 374.65 198.824 372.081 194.499 367.508C190.174 362.934 187.745 356.732 187.745 350.264C187.745 336.797 208.736 302.09 210.806 302.115Z" fill="#42A0F0"/>
<path d="M193.224 359.379C195.528 360.124 198.457 357.059 199.765 352.534C201.073 348.01 200.266 343.737 197.961 342.993C195.657 342.248 192.728 345.312 191.42 349.837C190.112 354.362 190.919 358.634 193.224 359.379Z" fill="white"/>
<path d="M337.645 302.115C339.716 302.139 360.706 336.796 360.706 350.264C360.706 356.732 358.277 362.934 353.952 367.508C349.627 372.081 343.761 374.65 337.645 374.65C331.529 374.65 325.663 372.081 321.338 367.508C317.013 362.934 314.583 356.732 314.583 350.264C314.583 336.797 335.575 302.09 337.645 302.115Z" fill="#42A0F0"/>
<path d="M320.062 359.379C322.367 360.124 325.295 357.059 326.604 352.534C327.912 348.01 327.104 343.737 324.8 342.993C322.496 342.248 319.567 345.312 318.259 349.837C316.951 354.362 317.758 358.634 320.062 359.379Z" fill="white"/>
<g opacity="0.9">
<path d="M135.634 36.8935C144.501 36.8912 153.346 37.7939 162.033 39.5876C178.799 43.0665 194.717 49.849 208.872 59.5454C228.483 72.9369 244.152 91.4033 254.231 113.004C264.311 134.604 268.428 158.542 266.152 182.299C263.875 206.057 255.288 228.759 241.293 248.018C227.299 267.277 208.413 282.382 186.621 291.747C178.699 295.138 170.462 297.727 162.032 299.476C143.751 303.211 124.891 302.978 106.707 298.793C88.5226 294.608 71.4323 286.568 56.5742 275.208C41.7162 263.847 29.4315 249.427 20.5386 232.909C11.6457 216.39 6.34862 198.152 5.00031 179.41C19.3346 182.789 34.2248 183.007 48.6503 180.047C61.595 177.376 73.891 172.163 84.8367 164.706C101.108 153.64 113.843 138.057 121.501 119.846C124.089 113.678 126.064 107.267 127.398 100.707C130.24 86.652 130.135 72.1531 127.089 58.141C125.557 51.1345 123.291 44.3115 120.329 37.7869C125.409 37.1912 130.519 36.8929 135.634 36.8935V36.8935Z" fill="#9873FF"/>
</g>
<g filter="url(#filter0_b_2558_3326)">
<path d="M135.724 402.514C111.226 402.496 87.6841 393.154 70.0277 376.444C52.3713 359.734 41.9691 336.951 40.9988 312.866C40.0284 288.78 48.5653 265.259 64.822 247.226C81.0788 229.193 103.795 218.047 128.215 216.121C131.698 191.926 142.802 169.414 159.966 151.753C177.13 134.091 199.49 122.169 223.9 117.663C248.31 113.157 273.541 116.294 296.045 126.632C318.548 136.971 337.191 153.991 349.35 175.299C371.652 167.703 395.748 166.815 418.564 172.749C441.381 178.684 461.884 191.17 477.458 208.617C493.032 226.063 502.971 247.679 506.008 270.706C509.044 293.734 505.041 317.129 494.507 337.909C488.326 356.682 476.259 373.047 460.038 384.654C443.817 396.261 424.276 402.513 404.219 402.514H135.724Z" fill="#ECECEC" fill-opacity="0.4"/>
<path d="M404.221 401.217C414.405 401.217 424.417 399.617 433.981 396.462C443.229 393.41 451.912 388.958 459.787 383.227C467.572 377.563 474.396 370.777 480.071 363.059C485.815 355.245 490.251 346.649 493.254 337.51L493.284 337.417L493.329 337.329C497.323 329.478 500.398 321.174 502.469 312.646C504.6 303.871 505.681 294.803 505.681 285.695C505.681 277.856 504.878 270.022 503.295 262.412C501.753 254.995 499.451 247.7 496.454 240.729C493.512 233.884 489.87 227.282 485.629 221.106C481.429 214.989 476.605 209.236 471.292 204.008C465.978 198.78 460.131 194.034 453.914 189.901C447.637 185.729 440.927 182.145 433.971 179.25C426.885 176.302 419.471 174.037 411.933 172.519C404.198 170.962 396.236 170.172 388.269 170.172C375.078 170.172 362.129 172.308 349.783 176.521L348.742 176.876L348.201 175.931C338.154 158.354 323.54 143.592 305.938 133.242C297.037 128.008 287.473 123.963 277.514 121.22C267.239 118.39 256.566 116.955 245.793 116.955C231.301 116.955 217.155 119.521 203.748 124.582C190.796 129.471 178.914 136.533 168.433 145.573C158.012 154.561 149.364 165.165 142.729 177.092C135.931 189.312 131.488 202.503 129.524 216.297L129.376 217.33L128.32 217.411C116.502 218.321 105.132 221.383 94.525 226.51C84.2187 231.493 75.0155 238.232 67.1711 246.54C51.0526 263.612 42.1757 285.855 42.1757 309.172C42.1757 321.598 44.6489 333.653 49.5268 345C51.8713 350.453 54.7732 355.714 58.1518 360.634C61.4987 365.508 65.3423 370.092 69.5759 374.257C73.8096 378.423 78.4682 382.205 83.422 385.498C88.4232 388.822 93.7694 391.677 99.3123 393.984C110.845 398.784 123.096 401.217 135.726 401.217H404.221ZM404.219 402.514H135.724C83.3299 402.514 40.8564 360.724 40.8564 309.172C40.8564 260.106 79.3296 219.886 128.215 216.121C136.302 159.348 185.862 115.657 245.793 115.657C290.253 115.657 329.005 139.704 349.35 175.299C361.543 171.138 374.638 168.874 388.269 168.874C453.842 168.874 507 221.177 507 285.695C507 304.463 502.501 322.195 494.507 337.909C482.19 375.398 446.422 402.514 404.219 402.514Z" fill="#ECECEC" fill-opacity="0.4"/>
<path d="M135.724 402.364H404.219C424.245 402.363 443.756 396.12 459.951 384.532C460.073 384.445 460.194 384.357 460.316 384.269C476.129 372.815 488.194 356.642 494.365 337.862L494.368 337.851L494.374 337.841C494.374 337.839 494.375 337.837 494.376 337.836C504.894 317.085 508.891 293.721 505.859 270.726C502.826 247.729 492.9 226.141 477.346 208.717C461.792 191.292 441.315 178.821 418.526 172.895C410.558 170.822 402.434 169.583 394.284 169.172C392.292 169.074 390.287 169.024 388.269 169.024C381.625 169.024 375.108 169.563 368.762 170.597C362.212 171.668 355.736 173.282 349.405 175.438C349.403 175.439 349.401 175.44 349.398 175.441L349.281 175.481L349.22 175.373C349.217 175.369 349.215 175.365 349.213 175.361C340.69 160.454 328.934 147.575 314.88 137.645C308.965 133.475 302.643 129.829 295.982 126.769C273.507 116.443 248.307 113.31 223.927 117.81C202.911 121.69 183.418 131.073 167.458 144.888C162.35 149.313 157.632 154.165 153.362 159.385C140.032 175.698 131.366 195.292 128.365 216.138L135.724 402.364ZM135.724 402.364C111.264 402.346 87.7592 393.018 70.1308 376.335C52.5025 359.651 42.1174 336.906 41.1486 312.86C40.1799 288.813 48.7027 265.33 64.9334 247.327C81.1603 229.327 103.834 218.199 128.209 216.272M135.724 402.364L128.209 216.272M128.209 216.272C128.215 216.271 128.221 216.271 128.227 216.271C128.227 216.271 128.227 216.271 128.227 216.271L128.347 216.261L128.364 216.142C128.364 216.142 128.364 216.142 128.364 216.142L128.209 216.272ZM493.396 337.557L493.28 337.519L493.396 337.557L493.423 337.474L493.463 337.397L493.329 337.329L493.463 337.397C497.461 329.536 500.541 321.221 502.615 312.681C504.749 303.894 505.831 294.815 505.831 285.695C505.831 277.846 505.027 270.002 503.442 262.381C501.898 254.955 499.593 247.65 496.592 240.669C493.646 233.816 489.999 227.205 485.753 221.021C481.547 214.896 476.717 209.136 471.397 203.901C466.077 198.667 460.222 193.914 453.997 189.776C447.712 185.599 440.994 182.01 434.028 179.112C426.934 176.159 419.51 173.892 411.963 172.372C404.218 170.813 396.246 170.022 388.269 170.022C375.061 170.022 362.096 172.161 349.735 176.379L348.81 176.695L348.331 175.857C338.271 158.256 323.638 143.476 306.014 133.113C297.101 127.872 287.526 123.822 277.554 121.075C267.266 118.241 256.58 116.805 245.793 116.805C231.283 116.805 217.119 119.374 203.695 124.442C190.726 129.337 178.829 136.408 168.335 145.46C157.901 154.459 149.242 165.077 142.598 177.019C135.791 189.255 131.342 202.463 129.375 216.276L129.245 217.19L128.309 217.262C116.472 218.173 105.083 221.24 94.4597 226.375C84.137 231.366 74.919 238.116 67.062 246.437C50.9174 263.537 42.0257 285.817 42.0257 309.172C42.0257 321.619 44.503 333.693 49.389 345.059C51.7374 350.522 54.644 355.79 58.0282 360.719C61.3805 365.601 65.2303 370.192 69.4707 374.364C73.7112 378.537 78.3772 382.325 83.339 385.623C88.3482 388.952 93.7029 391.812 99.2547 394.123C110.806 398.93 123.076 401.367 135.726 401.367H404.221C414.42 401.367 424.449 399.765 434.028 396.604C443.291 393.548 451.987 389.088 459.876 383.348C467.673 377.675 474.508 370.878 480.191 363.148C485.946 355.321 490.388 346.711 493.396 337.557ZM493.151 337.349L493.145 337.359L493.142 337.37L493.111 337.464C490.113 346.587 485.685 355.169 479.95 362.97C474.285 370.676 467.472 377.45 459.699 383.106C451.836 388.827 443.167 393.273 433.934 396.319C424.386 399.47 414.389 401.067 404.221 401.067H135.726C123.116 401.067 110.884 398.637 99.37 393.846C93.8359 391.543 88.4982 388.692 83.5051 385.373C78.5591 382.085 73.908 378.309 69.6811 374.151C65.4543 369.992 61.6169 365.416 58.2755 360.549C54.9023 355.637 52.0052 350.385 49.6646 344.94C44.7948 333.612 42.3257 321.578 42.3257 309.172C42.3257 285.894 51.1877 263.687 67.2802 246.643C75.112 238.348 84.3003 231.62 94.5903 226.646C105.18 221.526 116.532 218.47 128.332 217.561L129.388 217.479L129.508 217.47L129.525 217.351L129.672 216.318C131.634 202.542 136.071 189.369 142.86 177.165C149.486 165.254 158.123 154.663 168.531 145.687C178.999 136.659 190.865 129.605 203.801 124.722C217.191 119.668 231.319 117.105 245.793 117.105C256.553 117.105 267.212 118.538 277.474 121.364C287.421 124.104 296.972 128.144 305.862 133.371C323.442 143.708 338.037 158.451 348.071 176.005L348.611 176.951L348.673 177.058L348.79 177.018L349.832 176.663C362.162 172.456 375.094 170.322 388.269 170.322C396.227 170.322 404.178 171.111 411.903 172.666C419.432 174.182 426.837 176.444 433.913 179.389C440.861 182.28 447.562 185.859 453.831 190.026C460.04 194.154 465.88 198.894 471.186 204.115C476.493 209.336 481.311 215.082 485.506 221.191C489.741 227.359 493.378 233.952 496.317 240.788C499.309 247.75 501.608 255.035 503.149 262.442C504.729 270.043 505.531 277.866 505.531 285.695C505.531 294.791 504.452 303.847 502.323 312.61C500.255 321.127 497.184 329.421 493.195 337.261L493.151 337.349Z" stroke="#ECECEC" stroke-opacity="0.5" stroke-width="0.3"/>
</g>
<defs>
<filter id="filter0_b_2558_3326" x="32.8564" y="107.657" width="482.144" height="302.858" filterUnits="userSpaceOnUse" color-interpolation-filters="sRGB">
<feFlood flood-opacity="0" result="BackgroundImageFix"/>
<feGaussianBlur in="BackgroundImageFix" stdDeviation="4"/>
<feComposite in2="SourceAlpha" operator="in" result="effect1_backgroundBlur_2558_3326"/>
<feBlend mode="normal" in="SourceGraphic" in2="effect1_backgroundBlur_2558_3326" result="shape"/>
</filter>
</defs>
</svg>
