<svg width="512" height="512" viewBox="0 0 512 512" fill="none" xmlns="http://www.w3.org/2000/svg">
<path d="M246.178 357.287C246.534 356.745 247.287 356.4 248.113 356.4H315.67C317.392 356.4 318.411 357.799 317.442 358.833L280.009 398.743C279.05 399.765 280.037 401.152 281.74 401.175L322.317 401.733C324.122 401.758 325.079 403.292 323.914 404.294L230.082 484.926C228.604 486.196 225.781 485.124 226.375 483.518L248.101 424.77C248.467 423.782 247.441 422.81 246.031 422.81H206.561C204.985 422.81 203.948 421.617 204.626 420.584L246.178 357.287Z" fill="url(#paint0_linear_2558_3331)"/>
<path d="M358.921 404.356C359.277 403.814 360.03 403.469 360.856 403.469H387.485C389.206 403.469 390.225 404.868 389.256 405.901L375.352 420.726C374.394 421.748 375.381 423.135 377.084 423.158L390.15 423.338C391.955 423.362 392.912 424.897 391.747 425.898L355.658 456.91C354.179 458.181 351.356 457.108 351.95 455.502L359.685 434.587C360.051 433.598 359.025 432.627 357.615 432.627H343.763C342.187 432.627 341.149 431.434 341.827 430.401L358.921 404.356Z" fill="url(#paint1_linear_2558_3331)"/>
<path d="M137.048 424.213C137.403 423.671 138.156 423.326 138.983 423.326H165.611C167.333 423.326 168.352 424.726 167.383 425.759L153.479 440.584C152.52 441.606 153.507 442.992 155.21 443.016L168.276 443.195C170.081 443.22 171.038 444.755 169.873 445.756L133.784 476.768C132.306 478.038 129.482 476.966 130.076 475.36L137.812 454.444C138.177 453.456 137.151 452.484 135.741 452.484H121.889C120.313 452.484 119.276 451.291 119.954 450.258L137.048 424.213Z" fill="url(#paint2_linear_2558_3331)"/>
<g opacity="0.9">
<path d="M140.723 306.201C212.305 306.201 270.333 248.208 270.333 176.67C270.333 105.132 212.305 47.1392 140.723 47.1392C69.1419 47.1392 11.1138 105.132 11.1138 176.67C11.1138 248.208 69.1419 306.201 140.723 306.201Z" fill="url(#paint3_linear_2558_3331)"/>
</g>
<g filter="url(#filter0_b_2558_3331)">
<path d="M135.725 399.429C111.226 399.41 87.6845 390.068 70.0281 373.358C52.3717 356.648 41.9696 333.866 40.9992 309.78C40.0289 285.695 48.5657 262.173 64.8225 244.141C81.0792 226.108 103.796 214.962 128.216 213.036C131.698 188.841 142.803 166.329 159.966 148.668C177.13 131.006 199.49 119.084 223.9 114.578C248.31 110.071 273.541 113.208 296.045 123.547C318.548 133.886 337.191 150.906 349.35 172.213C371.652 164.618 395.748 163.73 418.564 169.664C441.381 175.598 461.884 188.085 477.458 205.531C493.032 222.978 502.971 244.593 506.007 267.621C509.044 290.648 505.04 314.044 494.507 334.823C488.326 353.597 476.259 369.961 460.038 381.568C443.817 393.175 424.276 399.428 404.219 399.429H135.725Z" fill="#ECECEC" fill-opacity="0.4"/>
<path d="M404.221 398.131C414.404 398.131 424.417 396.531 433.981 393.376C443.229 390.325 451.912 385.872 459.787 380.142C467.572 374.477 474.396 367.692 480.07 359.974C485.815 352.16 490.251 343.564 493.253 334.425L493.284 334.331L493.329 334.243C497.322 326.393 500.397 318.088 502.469 309.56C504.6 300.785 505.681 291.718 505.681 282.609C505.681 274.77 504.878 266.937 503.295 259.326C501.753 251.91 499.451 244.614 496.454 237.643C493.512 230.798 489.87 224.196 485.629 218.021C481.429 211.903 476.605 206.151 471.291 200.923C465.978 195.695 460.131 190.949 453.914 186.816C447.637 182.643 440.927 179.06 433.97 176.165C426.885 173.216 419.471 170.952 411.933 169.434C404.198 167.877 396.236 167.087 388.269 167.087C375.078 167.087 362.129 169.223 349.783 173.436L348.742 173.791L348.201 172.846C338.154 155.268 323.54 140.507 305.938 130.157C297.037 124.922 287.473 120.877 277.514 118.134C267.239 115.304 256.567 113.87 245.793 113.87C231.301 113.87 217.156 116.436 203.748 121.497C190.796 126.386 178.914 133.448 168.433 142.488C158.012 151.476 149.364 162.08 142.729 174.007C135.932 186.227 131.489 199.417 129.524 213.212L129.377 214.245L128.32 214.326C116.502 215.236 105.132 218.298 94.5254 223.425C84.2191 228.407 75.0159 235.146 67.1716 243.455C51.0531 260.527 42.1762 282.77 42.1762 306.087C42.1762 318.513 44.6494 330.567 49.5273 341.914C51.8718 347.368 54.7736 352.628 58.1523 357.549C61.4991 362.423 65.3428 367.006 69.5764 371.172C73.81 375.337 78.4686 379.119 83.4225 382.412C88.4236 385.737 93.7698 388.592 99.3127 390.899C110.845 395.698 123.096 398.131 135.726 398.131H404.221ZM404.219 399.429H135.725C83.3303 399.429 40.8569 357.638 40.8569 306.087C40.8569 257.021 79.3301 216.801 128.216 213.036C136.302 156.263 185.862 112.572 245.793 112.572C290.254 112.572 329.005 136.619 349.35 172.213C361.543 168.053 374.638 165.789 388.269 165.789C453.842 165.789 507 218.092 507 282.609C507 301.377 502.501 319.109 494.507 334.823C482.189 372.312 446.422 399.429 404.219 399.429Z" fill="#ECECEC" fill-opacity="0.4"/>
<path d="M404.219 399.279H135.725C111.264 399.26 87.7596 389.933 70.1312 373.249C52.503 356.566 42.1178 333.82 41.1491 309.774C40.1804 285.728 48.7032 262.245 64.9339 244.241C81.1607 226.242 103.834 215.114 128.21 213.187C128.215 213.186 128.221 213.186 128.227 213.185C128.227 213.185 128.227 213.185 128.228 213.185L128.347 213.176L128.364 213.057C131.365 192.21 140.032 172.614 153.362 156.3C157.634 151.078 162.352 146.226 167.461 141.799C183.421 127.987 202.913 118.604 223.927 114.725C248.307 110.224 273.507 113.358 295.982 123.683C302.643 126.744 308.965 130.39 314.88 134.56C328.938 144.492 340.696 157.376 349.22 172.288L349.281 172.395L349.398 172.355C349.401 172.355 349.403 172.354 349.405 172.353C355.733 170.198 362.205 168.584 368.752 167.514C375.101 166.478 381.621 165.939 388.269 165.939C390.286 165.939 392.292 165.989 394.284 166.086C402.434 166.498 410.558 167.737 418.526 169.809C441.314 175.736 461.791 188.207 477.346 205.631C492.9 223.056 502.826 244.643 505.859 267.641C508.891 290.638 504.893 314.003 494.373 334.755L494.368 334.766L494.365 334.776C488.193 353.559 476.126 369.734 460.309 381.189C460.19 381.275 460.07 381.361 459.951 381.446C443.755 393.035 424.245 399.278 404.219 399.279ZM493.15 334.263L493.145 334.273L493.142 334.284L493.111 334.378C490.113 343.502 485.685 352.084 479.95 359.885C474.285 367.59 467.471 374.365 459.699 380.02C451.836 385.742 443.167 390.187 433.934 393.234C424.385 396.384 414.389 397.981 404.221 397.981H135.726C123.116 397.981 110.884 395.552 99.3704 390.76C93.8363 388.457 88.4986 385.606 83.5055 382.287C78.5596 379 73.9084 375.224 69.6816 371.065C65.4548 366.906 61.6173 362.33 58.276 357.464C54.9028 352.551 52.0057 347.299 49.6651 341.855C44.7953 330.527 42.3262 318.493 42.3262 306.087C42.3262 282.808 51.1882 260.602 67.2806 243.558C75.1124 235.263 84.3008 228.535 94.5907 223.56C105.181 218.441 116.533 215.384 128.332 214.475L129.388 214.394L129.508 214.385L129.525 214.266L129.672 213.233C131.635 199.457 136.072 186.284 142.86 174.08C149.487 162.169 158.123 151.578 168.531 142.601C178.999 133.573 190.865 126.52 203.801 121.637C217.191 116.582 231.319 114.02 245.793 114.02C256.553 114.02 267.212 115.453 277.474 118.279C287.421 121.019 296.972 125.058 305.862 130.286C323.442 140.623 338.037 155.366 348.071 172.92L348.611 173.866L348.673 173.973L348.79 173.933L349.832 173.578C362.162 169.37 375.094 167.237 388.269 167.237C396.226 167.237 404.178 168.026 411.903 169.581C419.432 171.097 426.837 173.358 433.913 176.303C440.861 179.195 447.562 182.774 453.831 186.941C460.04 191.068 465.88 195.808 471.186 201.03C476.493 206.251 481.311 211.996 485.506 218.106C489.741 224.273 493.378 230.867 496.316 237.703C499.309 244.665 501.608 251.95 503.148 259.357C504.729 266.957 505.531 274.781 505.531 282.609C505.531 291.706 504.451 300.762 502.323 309.525C500.254 318.042 497.183 326.335 493.195 334.175L493.15 334.263ZM493.463 334.311L493.329 334.243L493.463 334.311C497.461 326.451 500.54 318.135 502.614 309.596C504.749 300.809 505.831 291.729 505.831 282.609C505.831 274.76 505.027 266.916 503.442 259.296C501.897 251.869 499.593 244.564 496.592 237.584C493.646 230.73 489.999 224.12 485.753 217.936C481.547 211.811 476.717 206.051 471.397 200.816C466.076 195.581 460.222 190.829 453.997 186.691C447.712 182.513 440.994 178.925 434.028 176.026C426.934 173.074 419.51 170.807 411.963 169.287C404.218 167.728 396.246 166.937 388.269 166.937C375.061 166.937 362.096 169.076 349.735 173.294L348.81 173.609L348.331 172.771C338.271 155.171 323.638 140.39 306.014 130.027C297.102 124.786 287.526 120.736 277.554 117.99C267.266 115.156 256.58 113.72 245.793 113.72C231.283 113.72 217.12 116.289 203.695 121.356C190.727 126.252 178.83 133.323 168.335 142.374C157.901 151.373 149.242 161.992 142.598 173.934C135.792 186.17 131.343 199.378 129.375 213.191L129.245 214.104L128.309 214.176C116.472 215.088 105.084 218.154 94.4601 223.29C84.1374 228.28 74.9194 235.03 67.0625 243.352C50.9179 260.451 42.0262 282.731 42.0262 306.087C42.0262 318.533 44.5035 330.607 49.3894 341.973C51.7378 347.436 54.6445 352.705 58.0286 357.634C61.3809 362.516 65.2307 367.107 69.4712 371.279C73.7116 375.451 78.3776 379.239 83.3394 382.537C88.3486 385.867 93.7033 388.727 99.2551 391.037C110.806 395.844 123.077 398.281 135.726 398.281H404.221C414.42 398.281 424.449 396.679 434.028 393.519C443.291 390.462 451.987 386.002 459.875 380.263C467.673 374.589 474.508 367.793 480.191 360.063C485.945 352.236 490.388 343.626 493.396 334.472L493.423 334.389L493.463 334.311Z" stroke="#ECECEC" stroke-opacity="0.5" stroke-width="0.3"/>
</g>
<defs>
<filter id="filter0_b_2558_3331" x="32.8569" y="104.572" width="482.143" height="302.857" filterUnits="userSpaceOnUse" color-interpolation-filters="sRGB">
<feFlood flood-opacity="0" result="BackgroundImageFix"/>
<feGaussianBlur in="BackgroundImageFix" stdDeviation="4"/>
<feComposite in2="SourceAlpha" operator="in" result="effect1_backgroundBlur_2558_3331"/>
<feBlend mode="normal" in="SourceGraphic" in2="effect1_backgroundBlur_2558_3331" result="shape"/>
</filter>
<linearGradient id="paint0_linear_2558_3331" x1="256" y1="356.4" x2="256" y2="485.486" gradientUnits="userSpaceOnUse">
<stop stop-color="#FDC500"/>
<stop offset="1" stop-color="#FD8900"/>
</linearGradient>
<linearGradient id="paint1_linear_2558_3331" x1="256" y1="356.4" x2="256" y2="485.486" gradientUnits="userSpaceOnUse">
<stop stop-color="#FDC500"/>
<stop offset="1" stop-color="#FD8900"/>
</linearGradient>
<linearGradient id="paint2_linear_2558_3331" x1="256" y1="356.4" x2="256" y2="485.486" gradientUnits="userSpaceOnUse">
<stop stop-color="#FDC500"/>
<stop offset="1" stop-color="#FD8900"/>
</linearGradient>
<linearGradient id="paint3_linear_2558_3331" x1="140.723" y1="47.1392" x2="140.723" y2="306.201" gradientUnits="userSpaceOnUse">
<stop stop-color="#FDC500"/>
<stop offset="1" stop-color="#FD8900"/>
</linearGradient>
</defs>
</svg>
