<svg width="512" height="512" viewBox="0 0 512 512" fill="none" xmlns="http://www.w3.org/2000/svg">
<path d="M246.179 357.287C246.534 356.745 247.287 356.4 248.114 356.4H315.671C317.392 356.4 318.412 357.799 317.443 358.832L280.009 398.743C279.051 399.765 280.038 401.152 281.741 401.175L322.317 401.733C324.122 401.757 325.079 403.292 323.914 404.293L230.083 484.926C228.605 486.196 225.781 485.124 226.375 483.518L248.102 424.77C248.467 423.781 247.441 422.81 246.031 422.81H206.562C204.986 422.81 203.949 421.617 204.627 420.584L246.179 357.287Z" fill="url(#paint0_linear_2558_3335)"/>
<path d="M358.922 404.355C359.277 403.814 360.03 403.468 360.857 403.468H387.485C389.207 403.468 390.226 404.868 389.257 405.901L375.353 420.726C374.394 421.748 375.381 423.135 377.084 423.158L390.15 423.337C391.955 423.362 392.913 424.897 391.747 425.898L355.658 456.91C354.18 458.18 351.356 457.108 351.95 455.502L359.686 434.587C360.051 433.598 359.025 432.626 357.615 432.626H343.763C342.187 432.626 341.15 431.433 341.828 430.401L358.922 404.355Z" fill="url(#paint1_linear_2558_3335)"/>
<path d="M137.048 424.213C137.404 423.671 138.157 423.326 138.983 423.326H165.611C167.333 423.326 168.352 424.725 167.383 425.759L153.479 440.583C152.521 441.606 153.508 442.992 155.211 443.016L168.277 443.195C170.082 443.22 171.039 444.754 169.874 445.756L133.785 476.768C132.306 478.038 129.483 476.966 130.077 475.36L137.812 454.444C138.178 453.455 137.152 452.484 135.742 452.484H121.889C120.314 452.484 119.276 451.291 119.954 450.258L137.048 424.213Z" fill="url(#paint2_linear_2558_3335)"/>
<g opacity="0.9">
<path d="M135.633 33.8079C144.5 33.8057 153.345 34.7084 162.032 36.5021C178.798 39.981 194.716 46.7635 208.871 56.4599C228.482 69.8513 244.151 88.3177 254.23 109.918C264.309 131.519 268.427 155.456 266.15 179.214C263.874 202.972 255.287 225.673 241.292 244.932C227.297 264.191 208.412 279.296 186.62 288.661C178.698 292.052 170.461 294.641 162.031 296.39C143.75 300.125 124.89 299.892 106.706 295.707C88.5217 291.523 71.4314 283.482 56.5733 272.122C41.7153 260.761 29.4307 246.341 20.5378 229.823C11.6448 213.304 6.34779 195.066 4.99948 176.324C19.3338 179.703 34.2239 179.921 48.6494 176.961C61.5941 174.29 73.8901 169.077 84.8358 161.621C101.107 150.554 113.842 134.971 121.5 116.76C124.088 110.592 126.063 104.182 127.397 97.6218C130.239 83.5664 130.134 69.0675 127.088 55.0555C125.556 48.0489 123.29 41.226 120.328 34.7013C125.408 34.1057 130.518 33.8074 135.633 33.8079V33.8079Z" fill="#9873FF"/>
</g>
<g filter="url(#filter0_b_2558_3335)">
<path d="M135.725 399.428C111.227 399.41 87.685 390.068 70.0286 373.358C52.3722 356.648 41.97 333.865 40.9997 309.78C40.0294 285.694 48.5662 262.173 64.823 244.14C81.0797 226.108 103.796 214.962 128.216 213.035C131.699 188.841 142.803 166.329 159.967 148.667C177.131 131.006 199.491 119.083 223.901 114.577C248.31 110.071 273.542 113.208 296.045 123.547C318.548 133.886 337.191 150.906 349.35 172.213C371.652 164.617 395.748 163.73 418.565 169.664C441.381 175.598 461.884 188.085 477.458 205.531C493.032 222.978 502.971 244.593 506.008 267.621C509.044 290.648 505.041 314.044 494.508 334.823C488.326 353.597 476.259 369.961 460.038 381.568C443.818 393.175 424.277 399.427 404.22 399.428H135.725Z" fill="#ECECEC" fill-opacity="0.4"/>
<path d="M404.221 398.131C414.405 398.131 424.418 396.531 433.981 393.376C443.23 390.325 451.912 385.872 459.788 380.141C467.573 374.477 474.397 367.691 480.071 359.973C485.816 352.159 490.251 343.564 493.254 334.425L493.285 334.331L493.329 334.243C497.323 326.393 500.398 318.088 502.469 309.56C504.6 300.785 505.681 291.717 505.681 282.609C505.681 274.77 504.878 266.937 503.296 259.326C501.753 251.909 499.452 244.614 496.455 237.643C493.512 230.798 489.87 224.196 485.63 218.02C481.429 211.903 476.605 206.151 471.292 200.923C465.978 195.695 460.132 190.948 453.914 186.815C447.638 182.643 440.928 179.06 433.971 176.165C426.886 173.216 419.471 170.951 411.933 169.434C404.198 167.876 396.237 167.087 388.27 167.087C375.078 167.087 362.129 169.223 349.784 173.435L348.742 173.791L348.202 172.845C338.155 155.268 323.541 140.506 305.939 130.156C297.037 124.922 287.474 120.877 277.514 118.134C267.24 115.304 256.567 113.869 245.793 113.869C231.302 113.869 217.156 116.435 203.749 121.496C190.796 126.386 178.915 133.448 168.434 142.488C158.013 151.475 149.365 162.08 142.73 174.007C135.932 186.227 131.489 199.417 129.524 213.212L129.377 214.244L128.321 214.326C116.503 215.236 105.133 218.297 94.5259 223.425C84.2196 228.407 75.0164 235.146 67.172 243.455C51.0535 260.526 42.1766 282.77 42.1766 306.086C42.1766 318.513 44.6499 330.567 49.5277 341.914C51.8722 347.367 54.7741 352.628 58.1528 357.548C61.4996 362.423 65.3432 367.006 69.5769 371.172C73.8105 375.337 78.4691 379.119 83.4229 382.412C88.4241 385.736 93.7703 388.591 99.3132 390.898C110.846 395.698 123.097 398.131 135.727 398.131H404.221ZM404.22 399.428H135.725C83.3308 399.428 40.8574 357.638 40.8574 306.086C40.8574 257.02 79.3306 216.8 128.216 213.035C136.302 156.262 185.863 112.571 245.793 112.571C290.254 112.571 329.005 136.618 349.35 172.213C361.543 168.053 374.638 165.789 388.27 165.789C453.842 165.789 507 218.091 507 282.609C507 301.377 502.501 319.109 494.508 334.823C482.19 372.312 446.423 399.428 404.22 399.428Z" fill="#ECECEC" fill-opacity="0.4"/>
<path d="M404.22 399.278H135.725C111.265 399.26 87.7601 389.933 70.1317 373.249C52.5035 356.566 42.1183 333.82 41.1496 309.774C40.1809 285.728 48.7037 262.245 64.9344 244.241C81.1612 226.241 103.835 215.114 128.21 213.186C128.216 213.186 128.222 213.185 128.228 213.185C128.228 213.185 128.228 213.185 128.228 213.185L128.348 213.175L128.365 213.057C131.365 192.21 140.032 172.613 153.363 156.3C157.634 151.078 162.353 146.226 167.462 141.799C183.421 127.987 202.914 118.604 223.928 114.725C248.307 110.224 273.507 113.357 295.983 123.683C302.643 126.743 308.966 130.39 314.881 134.56C328.938 144.492 340.697 157.375 349.22 172.288L349.282 172.395L349.399 172.355C349.401 172.354 349.403 172.354 349.406 172.353C355.733 170.198 362.206 168.584 368.752 167.513C375.102 166.478 381.622 165.939 388.27 165.939C390.287 165.939 392.292 165.988 394.285 166.086C402.434 166.497 410.559 167.737 418.527 169.809C441.315 175.736 461.792 188.207 477.346 205.631C492.9 223.055 502.826 244.643 505.859 267.64C508.892 290.638 504.893 314.003 494.374 334.755L494.369 334.765L494.365 334.776C488.194 353.559 476.126 369.734 460.309 381.188C460.19 381.274 460.071 381.36 459.951 381.446C443.756 393.034 424.245 399.277 404.22 399.278ZM493.151 334.263L493.146 334.273L493.142 334.284L493.111 334.378C490.114 343.502 485.686 352.083 479.95 359.885C474.285 367.59 467.472 374.365 459.699 380.02C451.836 385.741 443.168 390.187 433.934 393.233C424.386 396.384 414.389 397.981 404.221 397.981H135.727C123.116 397.981 110.885 395.551 99.3709 390.76C93.8368 388.457 88.4991 385.606 83.506 382.287C78.56 378.999 73.9089 375.224 69.6821 371.065C65.4553 366.906 61.6178 362.33 58.2764 357.463C54.9033 352.551 52.0062 347.299 49.6655 341.855C44.7958 330.526 42.3266 318.492 42.3266 306.086C42.3266 282.808 51.1887 260.602 67.2811 243.558C75.1129 235.262 84.3013 228.534 94.5912 223.56C105.181 218.441 116.533 215.384 128.332 214.475L129.389 214.394L129.509 214.385L129.526 214.265L129.673 213.233C131.635 199.456 136.072 186.284 142.861 174.08C149.487 162.168 158.124 151.577 168.532 142.601C178.999 133.573 190.866 126.52 203.802 121.637C217.192 116.582 231.32 114.019 245.793 114.019C256.554 114.019 267.213 115.452 277.475 118.279C287.421 121.018 296.973 125.058 305.863 130.286C323.442 140.623 338.038 155.365 348.071 172.92L348.612 173.865L348.673 173.973L348.791 173.933L349.832 173.577C362.162 169.37 375.094 167.237 388.27 167.237C396.227 167.237 404.179 168.025 411.904 169.581C419.432 171.097 426.837 173.358 433.913 176.303C440.861 179.195 447.563 182.773 453.831 186.94C460.041 191.068 465.88 195.808 471.187 201.03C476.493 206.251 481.311 211.996 485.506 218.105C489.741 224.273 493.378 230.866 496.317 237.702C499.31 244.664 501.608 251.95 503.149 259.356C504.73 266.957 505.531 274.78 505.531 282.609C505.531 291.706 504.452 300.761 502.323 309.525C500.255 318.041 497.184 326.335 493.196 334.175L493.151 334.263ZM493.463 334.311L493.329 334.243L493.463 334.311C497.462 326.45 500.541 318.135 502.615 309.596C504.749 300.809 505.831 291.729 505.831 282.609C505.831 274.76 505.027 266.916 503.443 259.295C501.898 251.869 499.593 244.564 496.592 237.584C493.646 230.73 489.999 224.119 485.753 217.936C481.547 211.81 476.717 206.05 471.397 200.816C466.077 195.581 460.223 190.829 453.997 186.691C447.713 182.513 440.994 178.925 434.029 176.026C426.934 173.074 419.51 170.806 411.963 169.287C404.218 167.727 396.247 166.937 388.27 166.937C375.062 166.937 362.097 169.075 349.735 173.294L348.811 173.609L348.332 172.771C338.272 155.171 323.639 140.39 306.015 130.027C297.102 124.786 287.526 120.736 277.554 117.989C267.266 115.156 256.58 113.719 245.793 113.719C231.284 113.719 217.12 116.289 203.696 121.356C190.727 126.251 178.83 133.323 168.336 142.374C157.902 151.373 149.242 161.991 142.599 173.934C135.792 186.17 131.343 199.378 129.376 213.191L129.246 214.104L128.309 214.176C116.473 215.088 105.084 218.154 94.4606 223.29C84.1379 228.28 74.9199 235.03 67.063 243.352C50.9184 260.451 42.0266 282.731 42.0266 306.086C42.0266 318.533 44.504 330.607 49.3899 341.973C51.7383 347.436 54.645 352.705 58.0291 357.633C61.3814 362.515 65.2312 367.106 69.4717 371.279C73.7121 375.451 78.3781 379.239 83.3399 382.537C88.3491 385.867 93.7038 388.726 99.2556 391.037C110.807 395.844 123.077 398.281 135.727 398.281H404.221C414.421 398.281 424.449 396.679 434.029 393.518C443.291 390.462 451.988 386.002 459.876 380.263C467.673 374.589 474.508 367.793 480.192 360.062C485.946 352.236 490.389 343.626 493.396 334.472L493.424 334.389L493.463 334.311Z" stroke="#ECECEC" stroke-opacity="0.5" stroke-width="0.3"/>
</g>
<defs>
<filter id="filter0_b_2558_3335" x="32.8574" y="104.571" width="482.143" height="302.857" filterUnits="userSpaceOnUse" color-interpolation-filters="sRGB">
<feFlood flood-opacity="0" result="BackgroundImageFix"/>
<feGaussianBlur in="BackgroundImageFix" stdDeviation="4"/>
<feComposite in2="SourceAlpha" operator="in" result="effect1_backgroundBlur_2558_3335"/>
<feBlend mode="normal" in="SourceGraphic" in2="effect1_backgroundBlur_2558_3335" result="shape"/>
</filter>
<linearGradient id="paint0_linear_2558_3335" x1="256" y1="356.4" x2="256" y2="485.486" gradientUnits="userSpaceOnUse">
<stop stop-color="#FDC500"/>
<stop offset="1" stop-color="#FD8900"/>
</linearGradient>
<linearGradient id="paint1_linear_2558_3335" x1="256" y1="356.4" x2="256" y2="485.486" gradientUnits="userSpaceOnUse">
<stop stop-color="#FDC500"/>
<stop offset="1" stop-color="#FD8900"/>
</linearGradient>
<linearGradient id="paint2_linear_2558_3335" x1="256" y1="356.4" x2="256" y2="485.486" gradientUnits="userSpaceOnUse">
<stop stop-color="#FDC500"/>
<stop offset="1" stop-color="#FD8900"/>
</linearGradient>
</defs>
</svg>
