<svg width="512" height="512" viewBox="0 0 512 512" fill="none" xmlns="http://www.w3.org/2000/svg">
<path fill-rule="evenodd" clip-rule="evenodd" d="M163.15 297.641C165.307 296.264 168.139 296.917 169.475 299.1L241.069 416.071C242.405 418.253 241.739 421.139 239.582 422.516C237.425 423.893 234.593 423.239 233.257 421.056L161.663 304.086C160.327 301.903 160.993 299.017 163.15 297.641Z" fill="#42A0F0"/>
<path fill-rule="evenodd" clip-rule="evenodd" d="M190.804 292.368C193.285 292.886 194.867 295.356 194.337 297.884L187.337 331.27C186.806 333.798 184.365 335.427 181.884 334.909C179.402 334.391 177.82 331.921 178.35 329.393L185.351 296.007C185.881 293.478 188.322 291.849 190.804 292.368Z" fill="#42A0F0"/>
<path fill-rule="evenodd" clip-rule="evenodd" d="M145.28 321.482C145.872 318.968 148.353 317.401 150.82 317.982L183.913 325.781C186.381 326.362 187.901 328.872 187.309 331.386C186.717 333.9 184.237 335.467 181.769 334.886L148.676 327.088C146.209 326.506 144.688 323.997 145.28 321.482Z" fill="#42A0F0"/>
<path fill-rule="evenodd" clip-rule="evenodd" d="M216.578 391.589C217.209 389.084 219.713 387.557 222.171 388.178L254.628 396.383C257.086 397.004 258.566 399.538 257.935 402.043C257.304 404.548 254.8 406.075 252.342 405.454L219.886 397.249C217.428 396.628 215.947 394.094 216.578 391.589Z" fill="#42A0F0"/>
<path fill-rule="evenodd" clip-rule="evenodd" d="M222.057 388.153C224.529 388.712 226.072 391.207 225.503 393.727L217.866 427.519C217.297 430.038 214.831 431.628 212.358 431.07C209.885 430.512 208.342 428.016 208.911 425.497L216.548 391.704C217.118 389.185 219.584 387.595 222.057 388.153Z" fill="#42A0F0"/>
<path fill-rule="evenodd" clip-rule="evenodd" d="M235.255 295.691C237.485 296.902 238.328 299.738 237.137 302.027L173.73 423.824C172.539 426.113 169.765 426.986 167.534 425.775C165.303 424.564 164.46 421.728 165.651 419.439L229.058 297.642C230.249 295.353 233.024 294.48 235.255 295.691Z" fill="#42A0F0"/>
<path fill-rule="evenodd" clip-rule="evenodd" d="M253.536 317.535C254.304 319.999 252.973 322.642 250.563 323.437L218.748 333.939C216.338 334.735 213.762 333.382 212.995 330.918C212.227 328.454 213.558 325.812 215.967 325.017L247.783 314.514C250.192 313.719 252.768 315.071 253.536 317.535Z" fill="#42A0F0"/>
<path fill-rule="evenodd" clip-rule="evenodd" d="M206.085 291.838C208.503 291.07 211.064 292.453 211.804 294.926L221.737 328.09C222.478 330.562 221.118 333.189 218.7 333.957C216.281 334.724 213.721 333.342 212.98 330.869L203.047 297.705C202.307 295.232 203.666 292.606 206.085 291.838Z" fill="#42A0F0"/>
<path fill-rule="evenodd" clip-rule="evenodd" d="M182.269 389.943C184.699 389.215 187.238 390.639 187.94 393.123L197.21 425.928C197.912 428.412 196.512 431.017 194.082 431.745C191.652 432.473 189.113 431.049 188.411 428.565L179.141 395.76C178.439 393.276 179.839 390.671 182.269 389.943Z" fill="#42A0F0"/>
<path fill-rule="evenodd" clip-rule="evenodd" d="M187.925 393.07C188.655 395.547 187.283 398.167 184.862 398.923L152.384 409.066C149.962 409.822 147.408 408.428 146.678 405.952C145.949 403.475 147.32 400.855 149.742 400.099L182.22 389.956C184.641 389.2 187.196 390.594 187.925 393.07Z" fill="#42A0F0"/>
<path fill-rule="evenodd" clip-rule="evenodd" d="M272.934 358.51C273.022 361.089 271.037 363.252 268.501 363.343L133.5 368.17C130.964 368.261 128.836 366.244 128.747 363.666C128.659 361.087 130.644 358.924 133.18 358.833L268.181 354.006C270.717 353.915 272.845 355.932 272.934 358.51Z" fill="#42A0F0"/>
<path fill-rule="evenodd" clip-rule="evenodd" d="M263.556 385.6C261.851 387.511 258.944 387.655 257.065 385.922L232.25 363.038C230.37 361.305 230.23 358.351 231.935 356.44C233.641 354.529 236.548 354.385 238.427 356.118L263.242 379.002C265.121 380.735 265.262 383.689 263.556 385.6Z" fill="#42A0F0"/>
<path fill-rule="evenodd" clip-rule="evenodd" d="M261.625 330.787C263.485 332.542 263.593 335.498 261.866 337.389L238.706 362.755C236.979 364.646 234.071 364.757 232.211 363.002C230.351 361.248 230.243 358.292 231.97 356.401L255.13 331.035C256.857 329.143 259.765 329.033 261.625 330.787Z" fill="#42A0F0"/>
<path fill-rule="evenodd" clip-rule="evenodd" d="M166.52 358.778C168.352 360.562 168.414 363.519 166.658 365.383L143.472 389.983C141.715 391.846 138.806 391.91 136.974 390.125C135.141 388.341 135.079 385.384 136.836 383.52L160.022 358.92C161.778 357.057 164.687 356.993 166.52 358.778Z" fill="#42A0F0"/>
<path fill-rule="evenodd" clip-rule="evenodd" d="M166.693 365.344C164.958 367.227 162.05 367.325 160.198 365.561L135.357 341.912C133.504 340.148 133.41 337.192 135.145 335.309C136.88 333.426 139.789 333.328 141.641 335.092L166.482 358.741C168.334 360.505 168.429 363.461 166.693 365.344Z" fill="#42A0F0"/>
<path fill-rule="evenodd" clip-rule="evenodd" d="M345.239 373.017C346.598 373.635 347.216 375.245 346.619 376.613L319.378 439.081C318.782 440.449 317.196 441.058 315.837 440.44C314.478 439.822 313.86 438.212 314.457 436.843L341.698 374.376C342.295 373.007 343.88 372.399 345.239 373.017Z" fill="#42A0F0"/>
<path fill-rule="evenodd" clip-rule="evenodd" d="M355.233 383.38C355.803 384.772 355.155 386.357 353.785 386.919L338.407 393.235C337.036 393.797 335.463 393.125 334.893 391.733C334.322 390.341 334.97 388.756 336.341 388.193L351.719 381.878C353.089 381.316 354.662 381.988 355.233 383.38Z" fill="#42A0F0"/>
<path fill-rule="evenodd" clip-rule="evenodd" d="M330.383 372.111C331.769 371.59 333.323 372.31 333.852 373.718L339.885 389.769C340.414 391.177 339.719 392.741 338.332 393.262C336.946 393.782 335.393 393.063 334.863 391.655L328.83 375.604C328.301 374.196 328.996 372.632 330.383 372.111Z" fill="#42A0F0"/>
<path fill-rule="evenodd" clip-rule="evenodd" d="M321.93 421.467C323.325 420.968 324.867 421.712 325.374 423.129L331.066 439.025C331.574 440.441 330.854 441.993 329.459 442.492C328.064 442.99 326.522 442.246 326.015 440.83L320.323 424.934C319.816 423.517 320.535 421.965 321.93 421.467Z" fill="#42A0F0"/>
<path fill-rule="evenodd" clip-rule="evenodd" d="M325.346 423.054C325.895 424.455 325.221 426.029 323.842 426.569L308.123 432.73C306.744 433.27 305.182 432.573 304.633 431.172C304.084 429.771 304.757 428.197 306.137 427.657L321.855 421.496C323.235 420.956 324.797 421.653 325.346 423.054Z" fill="#42A0F0"/>
<path fill-rule="evenodd" clip-rule="evenodd" d="M366.243 403.068C366.396 404.563 365.326 405.903 363.852 406.061L297.252 413.205C295.778 413.363 294.458 412.279 294.304 410.784C294.15 409.289 295.221 407.949 296.695 407.791L363.295 400.647C364.769 400.489 366.089 401.573 366.243 403.068Z" fill="#42A0F0"/>
<path fill-rule="evenodd" clip-rule="evenodd" d="M362.436 417.091C361.517 418.271 359.829 418.474 358.666 417.543L345.621 407.101C344.459 406.171 344.261 404.459 345.181 403.279C346.1 402.098 347.788 401.896 348.951 402.826L361.996 413.268C363.158 414.199 363.356 415.91 362.436 417.091Z" fill="#42A0F0"/>
<path fill-rule="evenodd" clip-rule="evenodd" d="M359.565 389.481C360.72 390.422 360.902 392.136 359.972 393.308L349.376 406.668C348.446 407.841 346.757 408.028 345.602 407.087C344.448 406.146 344.266 404.432 345.195 403.26L355.792 389.9C356.721 388.727 358.411 388.54 359.565 389.481Z" fill="#42A0F0"/>
<path fill-rule="evenodd" clip-rule="evenodd" d="M313.486 406.678C314.626 407.638 314.781 409.354 313.833 410.511L303.198 423.493C302.25 424.65 300.557 424.81 299.418 423.85C298.278 422.891 298.123 421.175 299.071 420.017L309.706 407.036C310.654 405.878 312.347 405.718 313.486 406.678Z" fill="#42A0F0"/>
<path fill-rule="evenodd" clip-rule="evenodd" d="M313.848 410.493C312.91 411.658 311.219 411.834 310.071 410.884L296.987 400.064C295.839 399.115 295.669 397.4 296.607 396.234C297.545 395.069 299.235 394.894 300.383 395.843L313.467 406.663C314.615 407.613 314.786 409.327 313.848 410.493Z" fill="#42A0F0"/>
<path fill-rule="evenodd" clip-rule="evenodd" d="M351.244 436.672C350.053 437.555 348.382 437.279 347.51 436.054L308.152 380.731C307.28 379.506 307.54 377.797 308.731 376.913C309.922 376.03 311.593 376.307 312.465 377.531L351.823 432.855C352.694 434.079 352.435 435.788 351.244 436.672Z" fill="#42A0F0"/>
<path fill-rule="evenodd" clip-rule="evenodd" d="M337.442 440.309C335.981 440.086 334.965 438.695 335.173 437.201L337.506 420.444C337.714 418.951 339.067 417.921 340.528 418.143C341.989 418.366 343.005 419.757 342.797 421.251L340.464 438.008C340.256 439.502 338.903 440.532 337.442 440.309Z" fill="#42A0F0"/>
<path fill-rule="evenodd" clip-rule="evenodd" d="M359.422 423.968C359.201 425.46 357.839 426.477 356.38 426.241L339.751 423.551C338.292 423.315 337.288 421.914 337.509 420.423C337.73 418.931 339.092 417.914 340.551 418.15L357.18 420.84C358.639 421.076 359.643 422.477 359.422 423.968Z" fill="#42A0F0"/>
<path fill-rule="evenodd" clip-rule="evenodd" d="M321.799 391.812C321.555 393.3 320.177 394.295 318.722 394.035L302.394 391.121C300.939 390.861 299.957 389.445 300.201 387.957C300.445 386.47 301.823 385.475 303.278 385.734L319.606 388.648C321.061 388.908 322.043 390.325 321.799 391.812Z" fill="#42A0F0"/>
<path fill-rule="evenodd" clip-rule="evenodd" d="M318.744 394.038C317.287 393.792 316.293 392.384 316.524 390.894L319.159 373.914C319.39 372.424 320.759 371.416 322.216 371.662C323.674 371.909 324.668 373.316 324.436 374.806L321.802 391.787C321.57 393.277 320.202 394.285 318.744 394.038Z" fill="#42A0F0"/>
<g filter="url(#filter0_b_2558_3339)">
<path d="M107.165 356.564C80.7823 356.544 55.4297 346.484 36.4151 328.488C17.4006 310.493 6.19821 285.958 5.15326 260.02C4.10831 234.081 13.3018 208.751 30.809 189.331C48.3163 169.911 72.78 157.908 99.0788 155.833C102.829 129.777 114.788 105.534 133.272 86.5139C151.756 67.4938 175.836 54.6542 202.123 49.8014C228.411 44.9486 255.583 48.3269 279.818 59.461C304.052 70.5951 324.129 88.9246 337.223 111.871C361.24 103.691 387.19 102.735 411.762 109.125C436.333 115.516 458.413 128.963 475.185 147.752C491.957 166.54 502.661 189.819 505.931 214.617C509.201 239.416 504.89 264.611 493.546 286.989C486.89 307.207 473.894 324.83 456.426 337.33C438.957 349.829 417.913 356.563 396.313 356.564H107.165Z" fill="#ECECEC" fill-opacity="0.4"/>
<path d="M396.315 355.167C407.282 355.167 418.065 353.444 428.364 350.046C438.324 346.76 447.674 341.965 456.156 335.793C464.539 329.693 471.889 322.386 477.999 314.074C484.186 305.659 488.962 296.402 492.196 286.56L492.229 286.459L492.278 286.364C496.578 277.91 499.89 268.967 502.12 259.783C504.416 250.333 505.579 240.568 505.579 230.759C505.579 222.317 504.715 213.881 503.01 205.685C501.349 197.698 498.871 189.841 495.643 182.334C492.474 174.962 488.552 167.853 483.986 161.202C479.462 154.614 474.267 148.419 468.545 142.789C462.823 137.159 456.526 132.047 449.831 127.596C443.071 123.103 435.845 119.244 428.353 116.126C420.723 112.951 412.738 110.512 404.62 108.878C396.29 107.2 387.716 106.35 379.136 106.35C364.93 106.35 350.985 108.65 337.69 113.187L336.568 113.57L335.986 112.552C325.166 93.6222 309.428 77.7251 290.472 66.5789C280.886 60.942 270.587 56.5859 259.861 53.6318C248.796 50.5842 237.303 49.039 225.7 49.039C210.094 49.039 194.86 51.8025 180.421 57.2528C166.473 62.518 153.677 70.1237 142.39 79.8587C131.167 89.5377 121.854 100.958 114.709 113.802C107.388 126.962 102.603 141.167 100.487 156.023L100.329 157.135L99.1914 157.223C86.4644 158.203 74.2195 161.5 62.7968 167.022C51.6977 172.387 41.7866 179.645 33.3388 188.592C15.9804 206.977 6.42071 230.932 6.42071 256.042C6.42071 269.424 9.08421 282.406 14.3373 294.625C16.8621 300.499 19.9872 306.163 23.6258 311.463C27.23 316.712 31.3693 321.648 35.9286 326.134C40.488 330.62 45.5049 334.693 50.8398 338.239C56.2256 341.819 61.9831 344.894 67.9524 347.378C80.372 352.546 93.5656 355.167 107.167 355.167H396.315ZM396.313 356.564H107.165C50.7405 356.564 5 311.559 5 256.042C5 203.202 46.4326 159.888 99.0788 155.833C107.787 94.6931 161.16 47.6411 225.7 47.6411C273.581 47.6411 315.313 73.538 337.223 111.871C350.354 107.39 364.456 104.952 379.136 104.952C449.753 104.952 507 161.278 507 230.759C507 250.97 502.155 270.067 493.546 286.989C480.281 327.362 441.762 356.564 396.313 356.564Z" fill="#ECECEC" fill-opacity="0.4"/>
<path d="M107.165 356.414H396.313C417.882 356.413 438.895 349.689 456.338 337.208C456.476 337.109 456.613 337.01 456.75 336.911C473.773 324.575 486.76 307.162 493.404 286.942L493.407 286.931L493.413 286.921C504.742 264.57 509.049 239.406 505.783 214.637C502.516 189.868 491.826 166.618 475.073 147.852C458.321 129.085 436.267 115.654 411.724 109.271C403.142 107.039 394.392 105.704 385.616 105.261C383.469 105.156 381.309 105.102 379.136 105.102C371.979 105.102 364.958 105.682 358.121 106.797C351.066 107.951 344.091 109.69 337.272 112.013L337.154 112.053L337.093 111.945C337.091 111.942 337.089 111.939 337.088 111.936C327.906 95.8763 315.242 82.0023 300.101 71.3065C293.733 66.8174 286.926 62.892 279.755 59.5973C255.549 48.4762 228.408 45.1017 202.151 49.9489C179.516 54.1272 158.521 64.2335 141.332 79.1118C135.83 83.879 130.748 89.1048 126.149 94.7284C111.793 112.297 102.46 133.4 99.2279 155.85L107.165 356.414ZM107.165 356.414C80.8204 356.394 55.5048 346.348 36.5183 328.379C17.5318 310.41 6.3465 285.912 5.30314 260.013C4.25978 234.115 13.4392 208.822 30.9205 189.431C48.3975 170.045 72.8177 158.06 99.0712 155.984C99.0775 155.984 99.0839 155.983 99.0903 155.983C99.0904 155.983 99.0905 155.983 99.0905 155.983L99.2101 155.973M107.165 356.414L99.2101 155.973M99.2101 155.973L99.2272 155.855M99.2101 155.973L99.2272 155.855M99.2272 155.855C99.2272 155.855 99.2273 155.854 99.2273 155.854L99.2272 155.855ZM492.339 286.607L492.196 286.56L492.339 286.607L492.368 286.517L492.411 286.433C496.717 277.968 500.033 269.014 502.266 259.818C504.564 250.357 505.729 240.579 505.729 230.759C505.729 222.307 504.864 213.86 503.157 205.654C501.494 197.657 499.012 189.791 495.781 182.275C492.608 174.894 488.681 167.776 484.109 161.117C479.58 154.521 474.379 148.319 468.65 142.682C462.921 137.045 456.617 131.927 449.914 127.471C443.146 122.973 435.911 119.109 428.411 115.988C420.771 112.809 412.777 110.367 404.65 108.731C396.31 107.051 387.726 106.2 379.136 106.2C364.914 106.2 350.953 108.503 337.641 113.045L336.637 113.388L336.116 112.477C325.283 93.5249 309.526 77.6089 290.548 66.4496C280.951 60.806 270.64 56.4448 259.901 53.4872C248.823 50.436 237.316 48.889 225.7 48.889C210.076 48.889 194.824 51.6557 180.368 57.1124C166.403 62.3838 153.592 69.9986 142.292 79.7451C131.056 89.4356 121.732 100.87 114.578 113.729C107.248 126.905 102.457 141.128 100.339 156.002L100.198 156.995L99.1799 157.073C86.4343 158.055 74.1712 161.357 62.7316 166.887C51.616 172.26 41.6901 179.529 33.2298 188.489C15.8453 206.902 6.27071 230.893 6.27071 256.042C6.27071 269.444 8.93831 282.446 14.1995 294.685C16.7282 300.567 19.8581 306.24 23.5021 311.547C27.1119 316.805 31.2573 321.748 35.8234 326.241C40.3896 330.733 45.4139 334.812 50.7568 338.364C56.1506 341.949 61.9166 345.028 67.8948 347.516C80.3328 352.693 93.546 355.317 107.167 355.317H396.315C407.298 355.317 418.097 353.592 428.411 350.188C438.386 346.898 447.75 342.095 456.244 335.915C464.64 329.805 472 322.487 478.12 314.163C484.316 305.735 489.1 296.464 492.339 286.607ZM492.096 286.391L492.09 286.402L492.087 286.413L492.054 286.513C488.825 296.34 484.056 305.583 477.878 313.985C471.777 322.284 464.439 329.581 456.067 335.672C447.599 341.834 438.262 346.622 428.317 349.904C418.033 353.297 407.266 355.017 396.315 355.017H107.167C93.5852 355.017 80.4111 352.4 68.01 347.239C62.0496 344.759 56.3007 341.689 50.9228 338.114C45.5958 334.573 40.5863 330.506 36.0338 326.027C31.4814 321.548 27.3482 316.619 23.7494 311.378C20.1164 306.087 16.996 300.43 14.4751 294.566C9.23011 282.365 6.57071 269.404 6.57071 256.042C6.57071 230.97 16.1156 207.053 33.4479 188.695C41.8831 179.761 51.7794 172.515 62.8621 167.157C74.2678 161.643 86.4945 158.351 99.2029 157.372L100.341 157.285L100.461 157.275L100.478 157.156L100.636 156.044C102.749 141.207 107.528 127.019 114.84 113.875C121.977 101.047 131.278 89.6399 142.488 79.9723C153.762 70.2488 166.542 62.6521 180.474 57.3931C194.896 51.9493 210.112 49.189 225.7 49.189C237.289 49.189 248.769 50.7324 259.822 53.7765C270.535 56.7271 280.821 61.0779 290.396 66.7082C309.33 77.8413 325.049 93.7196 335.856 112.626L336.438 113.644L336.499 113.752L336.617 113.712L337.738 113.329C351.018 108.798 364.946 106.5 379.136 106.5C387.706 106.5 396.27 107.349 404.591 109.025C412.699 110.657 420.674 113.093 428.295 116.265C435.778 119.379 442.996 123.233 449.748 127.721C456.435 132.167 462.724 137.272 468.44 142.896C474.155 148.519 479.344 154.707 483.862 161.287C488.423 167.929 492.341 175.031 495.505 182.393C498.729 189.891 501.204 197.738 502.864 205.715C504.566 213.901 505.429 222.327 505.429 230.759C505.429 240.556 504.267 250.309 501.975 259.748C499.747 268.92 496.439 277.853 492.144 286.296L492.096 286.391Z" stroke="#ECECEC" stroke-opacity="0.5" stroke-width="0.3"/>
</g>
<defs>
<filter id="filter0_b_2558_3339" x="2" y="44.6411" width="508" height="314.923" filterUnits="userSpaceOnUse" color-interpolation-filters="sRGB">
<feFlood flood-opacity="0" result="BackgroundImageFix"/>
<feGaussianBlur in="BackgroundImageFix" stdDeviation="1.5"/>
<feComposite in2="SourceAlpha" operator="in" result="effect1_backgroundBlur_2558_3339"/>
<feBlend mode="normal" in="SourceGraphic" in2="effect1_backgroundBlur_2558_3339" result="shape"/>
</filter>
</defs>
</svg>
