<svg width="512" height="512" viewBox="0 0 512 512" fill="none" xmlns="http://www.w3.org/2000/svg">
<path fill-rule="evenodd" clip-rule="evenodd" d="M390.627 369.707C392.76 369.707 394.489 371.435 394.489 373.568V450.756C394.489 452.888 392.76 454.617 390.627 454.617C388.495 454.617 386.766 452.888 386.766 450.756V373.568C386.766 371.435 388.495 369.707 390.627 369.707Z" fill="#42A0F0"/>
<path fill-rule="evenodd" clip-rule="evenodd" d="M406.211 375.92C407.755 377.391 407.814 379.835 406.343 381.379L393.272 395.101C391.801 396.645 389.357 396.704 387.813 395.233C386.269 393.762 386.209 391.318 387.68 389.774L400.751 376.052C402.222 374.508 404.667 374.449 406.211 375.92Z" fill="#42A0F0"/>
<path fill-rule="evenodd" clip-rule="evenodd" d="M374.276 375.962C375.797 374.467 378.242 374.487 379.737 376.008L393.229 389.73C394.725 391.251 394.704 393.696 393.183 395.191C391.663 396.686 389.218 396.665 387.723 395.145L374.23 381.423C372.735 379.902 372.756 377.457 374.276 375.962Z" fill="#42A0F0"/>
<path fill-rule="evenodd" clip-rule="evenodd" d="M387.813 430.805C389.357 429.334 391.801 429.393 393.272 430.938L406.343 444.659C407.814 446.204 407.755 448.648 406.211 450.119C404.667 451.59 402.222 451.53 400.751 449.986L387.68 436.264C386.209 434.72 386.269 432.276 387.813 430.805Z" fill="#42A0F0"/>
<path fill-rule="evenodd" clip-rule="evenodd" d="M393.183 430.848C394.704 432.343 394.725 434.788 393.229 436.308L379.737 450.03C378.242 451.551 375.797 451.572 374.276 450.076C372.756 448.581 372.735 446.136 374.23 444.615L387.723 430.894C389.218 429.373 391.663 429.352 393.183 430.848Z" fill="#42A0F0"/>
<path fill-rule="evenodd" clip-rule="evenodd" d="M426.639 391.23C427.691 393.084 427.054 395.463 425.215 396.543L359.486 435.137C357.647 436.217 355.303 435.589 354.25 433.734C353.197 431.879 353.834 429.5 355.673 428.421L421.402 389.827C423.241 388.747 425.586 389.375 426.639 391.23Z" fill="#42A0F0"/>
<path fill-rule="evenodd" clip-rule="evenodd" d="M429.102 408.082C428.569 410.163 426.475 411.426 424.424 410.902L406.204 406.251C404.152 405.727 402.921 403.615 403.453 401.534C403.985 399.453 406.079 398.19 408.131 398.714L426.351 403.365C428.402 403.889 429.634 406.001 429.102 408.082Z" fill="#42A0F0"/>
<path fill-rule="evenodd" clip-rule="evenodd" d="M413.097 379.979C415.144 380.518 416.36 382.639 415.813 384.717L410.874 403.461C410.327 405.538 408.223 406.785 406.176 406.246C404.129 405.707 402.913 403.586 403.46 401.509L408.399 382.764C408.946 380.687 411.049 379.44 413.097 379.979Z" fill="#42A0F0"/>
<path fill-rule="evenodd" clip-rule="evenodd" d="M373.163 419.325C375.201 419.897 376.383 422.038 375.804 424.106L370.655 442.479C370.075 444.548 367.953 445.761 365.914 445.189C363.876 444.617 362.694 442.477 363.273 440.408L368.422 422.035C369.002 419.966 371.124 418.753 373.163 419.325Z" fill="#42A0F0"/>
<path fill-rule="evenodd" clip-rule="evenodd" d="M375.812 424.075C375.247 426.148 373.134 427.377 371.091 426.821L352.66 421.798C350.618 421.241 349.419 419.11 349.984 417.037C350.548 414.965 352.662 413.736 354.704 414.292L373.135 419.315C375.178 419.871 376.376 422.003 375.812 424.075Z" fill="#42A0F0"/>
<path fill-rule="evenodd" clip-rule="evenodd" d="M426.277 433.733C425.224 435.588 422.88 436.216 421.041 435.136L355.312 396.542C353.473 395.462 352.835 393.084 353.888 391.229C354.941 389.374 357.286 388.746 359.125 389.826L424.853 428.42C426.693 429.5 427.33 431.879 426.277 433.733Z" fill="#42A0F0"/>
<path fill-rule="evenodd" clip-rule="evenodd" d="M413.155 444.328C411.116 444.9 408.994 443.687 408.414 441.619L403.265 423.245C402.685 421.177 403.868 419.036 405.906 418.464C407.945 417.892 410.067 419.106 410.647 421.174L415.796 439.547C416.375 441.616 415.193 443.756 413.155 444.328Z" fill="#42A0F0"/>
<path fill-rule="evenodd" clip-rule="evenodd" d="M429.085 416.18C429.65 418.253 428.451 420.384 426.409 420.941L407.978 425.963C405.935 426.52 403.822 425.291 403.257 423.218C402.693 421.145 403.891 419.014 405.934 418.457L424.365 413.435C426.407 412.878 428.521 414.107 429.085 416.18Z" fill="#42A0F0"/>
<path fill-rule="evenodd" clip-rule="evenodd" d="M375.615 400.681C376.148 402.762 374.916 404.874 372.865 405.397L354.644 410.049C352.593 410.573 350.499 409.31 349.967 407.229C349.435 405.148 350.666 403.036 352.718 402.512L370.938 397.861C372.989 397.337 375.083 398.6 375.615 400.681Z" fill="#42A0F0"/>
<path fill-rule="evenodd" clip-rule="evenodd" d="M372.893 405.391C370.845 405.93 368.742 404.683 368.195 402.606L363.256 383.861C362.709 381.784 363.925 379.663 365.972 379.124C368.019 378.585 370.123 379.832 370.67 381.909L375.609 400.653C376.156 402.731 374.94 404.852 372.893 405.391Z" fill="#42A0F0"/>
<path fill-rule="evenodd" clip-rule="evenodd" d="M256.242 369.707C258.375 369.707 260.104 371.436 260.104 373.568V450.756C260.104 452.889 258.375 454.617 256.242 454.617C254.109 454.617 252.38 452.889 252.38 450.756V373.568C252.38 371.436 254.109 369.707 256.242 369.707Z" fill="#42A0F0"/>
<path fill-rule="evenodd" clip-rule="evenodd" d="M271.826 375.92C273.37 377.391 273.43 379.835 271.959 381.379L258.888 395.101C257.417 396.645 254.972 396.705 253.428 395.234C251.884 393.763 251.825 391.318 253.296 389.774L266.367 376.052C267.838 374.508 270.282 374.449 271.826 375.92Z" fill="#42A0F0"/>
<path fill-rule="evenodd" clip-rule="evenodd" d="M239.891 375.962C241.412 374.467 243.857 374.488 245.352 376.008L258.844 389.73C260.339 391.251 260.319 393.696 258.798 395.191C257.277 396.686 254.833 396.666 253.337 395.145L239.845 381.423C238.35 379.903 238.37 377.458 239.891 375.962Z" fill="#42A0F0"/>
<path fill-rule="evenodd" clip-rule="evenodd" d="M253.428 430.805C254.972 429.334 257.417 429.394 258.888 430.938L271.959 444.66C273.43 446.204 273.37 448.648 271.826 450.119C270.282 451.59 267.838 451.531 266.367 449.987L253.296 436.265C251.825 434.721 251.884 432.276 253.428 430.805Z" fill="#42A0F0"/>
<path fill-rule="evenodd" clip-rule="evenodd" d="M258.798 430.848C260.319 432.343 260.339 434.788 258.844 436.309L245.352 450.03C243.857 451.551 241.412 451.572 239.891 450.077C238.37 448.581 238.35 446.136 239.845 444.616L253.337 430.894C254.833 429.373 257.277 429.353 258.798 430.848Z" fill="#42A0F0"/>
<path fill-rule="evenodd" clip-rule="evenodd" d="M292.254 391.23C293.307 393.085 292.669 395.464 290.83 396.544L225.101 435.137C223.262 436.217 220.918 435.589 219.865 433.735C218.812 431.88 219.449 429.501 221.289 428.421L287.017 389.827C288.856 388.747 291.201 389.376 292.254 391.23Z" fill="#42A0F0"/>
<path fill-rule="evenodd" clip-rule="evenodd" d="M294.717 408.082C294.185 410.163 292.091 411.426 290.039 410.902L271.819 406.251C269.768 405.727 268.536 403.615 269.068 401.534C269.6 399.453 271.695 398.19 273.746 398.714L291.966 403.365C294.017 403.889 295.249 406.001 294.717 408.082Z" fill="#42A0F0"/>
<path fill-rule="evenodd" clip-rule="evenodd" d="M278.708 379.979C280.755 380.518 281.971 382.639 281.423 384.717L276.485 403.461C275.938 405.538 273.834 406.785 271.787 406.246C269.74 405.707 268.524 403.586 269.071 401.509L274.01 382.764C274.557 380.687 276.66 379.44 278.708 379.979Z" fill="#42A0F0"/>
<path fill-rule="evenodd" clip-rule="evenodd" d="M238.778 419.325C240.816 419.897 241.999 422.038 241.419 424.106L236.27 442.48C235.69 444.548 233.568 445.761 231.53 445.189C229.491 444.617 228.309 442.477 228.888 440.408L234.038 422.035C234.617 419.967 236.74 418.753 238.778 419.325Z" fill="#42A0F0"/>
<path fill-rule="evenodd" clip-rule="evenodd" d="M241.427 424.076C240.862 426.148 238.749 427.377 236.706 426.821L218.275 421.798C216.233 421.242 215.035 419.11 215.599 417.038C216.164 414.965 218.277 413.736 220.32 414.292L238.751 419.315C240.793 419.872 241.991 422.003 241.427 424.076Z" fill="#42A0F0"/>
<path fill-rule="evenodd" clip-rule="evenodd" d="M291.893 433.733C290.84 435.588 288.495 436.216 286.656 435.136L220.928 396.543C219.088 395.463 218.451 393.084 219.504 391.229C220.557 389.374 222.901 388.746 224.74 389.826L290.469 428.42C292.308 429.5 292.946 431.879 291.893 433.733Z" fill="#42A0F0"/>
<path fill-rule="evenodd" clip-rule="evenodd" d="M278.77 444.329C276.732 444.901 274.609 443.687 274.03 441.619L268.88 423.246C268.301 421.177 269.483 419.037 271.521 418.465C273.56 417.893 275.682 419.106 276.262 421.174L281.411 439.548C281.991 441.616 280.808 443.757 278.77 444.329Z" fill="#42A0F0"/>
<path fill-rule="evenodd" clip-rule="evenodd" d="M294.7 416.18C295.265 418.253 294.067 420.384 292.024 420.941L273.593 425.963C271.551 426.52 269.437 425.291 268.873 423.218C268.308 421.146 269.506 419.014 271.549 418.458L289.98 413.435C292.022 412.879 294.136 414.108 294.7 416.18Z" fill="#42A0F0"/>
<path fill-rule="evenodd" clip-rule="evenodd" d="M241.232 400.681C241.764 402.762 240.532 404.874 238.481 405.398L220.261 410.049C218.209 410.573 216.115 409.31 215.583 407.229C215.051 405.148 216.283 403.036 218.334 402.512L236.554 397.861C238.605 397.337 240.7 398.6 241.232 400.681Z" fill="#42A0F0"/>
<path fill-rule="evenodd" clip-rule="evenodd" d="M238.508 405.391C236.461 405.93 234.357 404.683 233.81 402.606L228.872 383.862C228.324 381.784 229.54 379.663 231.587 379.124C233.635 378.585 235.738 379.832 236.285 381.909L241.224 400.654C241.771 402.731 240.555 404.852 238.508 405.391Z" fill="#42A0F0"/>
<path fill-rule="evenodd" clip-rule="evenodd" d="M122.102 369.708C124.235 369.708 125.964 371.437 125.964 373.57V450.757C125.964 452.89 124.235 454.619 122.102 454.619C119.97 454.619 118.241 452.89 118.241 450.757V373.57C118.241 371.437 119.97 369.708 122.102 369.708Z" fill="#42A0F0"/>
<path fill-rule="evenodd" clip-rule="evenodd" d="M137.682 375.921C139.226 377.392 139.286 379.836 137.815 381.38L124.743 395.102C123.273 396.646 120.828 396.706 119.284 395.235C117.74 393.764 117.681 391.32 119.151 389.775L132.223 376.054C133.694 374.509 136.138 374.45 137.682 375.921Z" fill="#42A0F0"/>
<path fill-rule="evenodd" clip-rule="evenodd" d="M105.747 375.964C107.268 374.468 109.713 374.489 111.208 376.01L124.701 389.731C126.196 391.252 126.175 393.697 124.655 395.192C123.134 396.687 120.689 396.667 119.194 395.146L105.701 381.424C104.206 379.904 104.227 377.459 105.747 375.964Z" fill="#42A0F0"/>
<path fill-rule="evenodd" clip-rule="evenodd" d="M119.284 430.806C120.828 429.335 123.273 429.394 124.743 430.938L137.815 444.66C139.286 446.204 139.226 448.649 137.682 450.12C136.138 451.591 133.694 451.531 132.223 449.987L119.151 436.265C117.681 434.721 117.74 432.277 119.284 430.806Z" fill="#42A0F0"/>
<path fill-rule="evenodd" clip-rule="evenodd" d="M124.655 430.849C126.175 432.344 126.196 434.789 124.701 436.309L111.208 450.031C109.713 451.552 107.268 451.573 105.747 450.077C104.227 448.582 104.206 446.137 105.701 444.616L119.194 430.895C120.689 429.374 123.134 429.353 124.655 430.849Z" fill="#42A0F0"/>
<path fill-rule="evenodd" clip-rule="evenodd" d="M158.11 391.231C159.163 393.086 158.525 395.465 156.686 396.545L90.9573 435.138C89.1183 436.218 86.7739 435.59 85.721 433.735C84.6681 431.881 85.3054 429.502 87.1445 428.422L152.873 389.828C154.712 388.748 157.057 389.377 158.11 391.231Z" fill="#42A0F0"/>
<path fill-rule="evenodd" clip-rule="evenodd" d="M160.573 408.083C160.041 410.164 157.947 411.427 155.896 410.903L137.675 406.252C135.624 405.728 134.393 403.616 134.925 401.535C135.457 399.454 137.551 398.191 139.602 398.715L157.823 403.366C159.874 403.89 161.105 406.002 160.573 408.083Z" fill="#42A0F0"/>
<path fill-rule="evenodd" clip-rule="evenodd" d="M144.568 379.979C146.615 380.518 147.831 382.639 147.284 384.716L142.345 403.46C141.798 405.538 139.695 406.785 137.647 406.245C135.6 405.706 134.384 403.585 134.932 401.508L139.87 382.764C140.417 380.686 142.521 379.439 144.568 379.979Z" fill="#42A0F0"/>
<path fill-rule="evenodd" clip-rule="evenodd" d="M104.634 419.326C106.673 419.898 107.855 422.039 107.275 424.107L102.126 442.481C101.547 444.549 99.4243 445.762 97.386 445.19C95.3477 444.618 94.1652 442.478 94.7449 440.409L99.8941 422.036C100.474 419.968 102.596 418.754 104.634 419.326Z" fill="#42A0F0"/>
<path fill-rule="evenodd" clip-rule="evenodd" d="M107.283 424.077C106.718 426.149 104.605 427.378 102.562 426.822L84.1313 421.799C82.0887 421.243 80.8905 419.111 81.4551 417.039C82.0196 414.966 84.1331 413.737 86.1756 414.293L104.607 419.316C106.649 419.873 107.847 422.004 107.283 424.077Z" fill="#42A0F0"/>
<path fill-rule="evenodd" clip-rule="evenodd" d="M157.748 433.731C156.695 435.586 154.35 436.214 152.511 435.134L86.7825 396.54C84.9435 395.46 84.3061 393.081 85.359 391.227C86.4119 389.372 88.7563 388.744 90.5953 389.824L156.324 428.418C158.163 429.497 158.801 431.876 157.748 433.731Z" fill="#42A0F0"/>
<path fill-rule="evenodd" clip-rule="evenodd" d="M144.625 444.326C142.587 444.898 140.464 443.685 139.885 441.616L134.735 423.243C134.156 421.174 135.338 419.034 137.376 418.462C139.415 417.89 141.537 419.103 142.117 421.172L147.266 439.545C147.846 441.613 146.663 443.754 144.625 444.326Z" fill="#42A0F0"/>
<path fill-rule="evenodd" clip-rule="evenodd" d="M160.556 416.178C161.12 418.25 159.922 420.382 157.88 420.938L139.449 425.961C137.406 426.517 135.293 425.288 134.728 423.216C134.164 421.143 135.362 419.012 137.404 418.455L155.835 413.432C157.878 412.876 159.991 414.105 160.556 416.178Z" fill="#42A0F0"/>
<path fill-rule="evenodd" clip-rule="evenodd" d="M107.088 400.678C107.62 402.759 106.388 404.871 104.337 405.395L86.1166 410.046C84.0653 410.57 81.9711 409.307 81.4391 407.226C80.907 405.145 82.1385 403.033 84.1898 402.509L102.41 397.858C104.461 397.334 106.556 398.597 107.088 400.678Z" fill="#42A0F0"/>
<path fill-rule="evenodd" clip-rule="evenodd" d="M104.364 405.389C102.317 405.928 100.214 404.681 99.6665 402.604L94.728 383.859C94.1807 381.782 95.3966 379.661 97.4439 379.122C99.4911 378.583 101.594 379.83 102.142 381.907L107.08 400.651C107.628 402.729 106.412 404.85 104.364 405.389Z" fill="#42A0F0"/>
<path fill-rule="evenodd" clip-rule="evenodd" d="M187.009 253.819C189.142 253.819 190.871 255.548 190.871 257.68V334.868C190.871 337.001 189.142 338.73 187.009 338.73C184.876 338.73 183.148 337.001 183.148 334.868V257.68C183.148 255.548 184.876 253.819 187.009 253.819Z" fill="#42A0F0"/>
<path fill-rule="evenodd" clip-rule="evenodd" d="M202.593 260.03C204.137 261.501 204.196 263.945 202.725 265.489L189.654 279.211C188.183 280.755 185.739 280.815 184.195 279.344C182.651 277.873 182.591 275.428 184.062 273.884L197.133 260.162C198.604 258.618 201.049 258.559 202.593 260.03Z" fill="#42A0F0"/>
<path fill-rule="evenodd" clip-rule="evenodd" d="M170.659 260.072C172.179 258.577 174.624 258.598 176.119 260.118L189.612 273.84C191.107 275.361 191.086 277.806 189.566 279.301C188.045 280.796 185.6 280.776 184.105 279.255L170.612 265.533C169.117 264.013 169.138 261.568 170.659 260.072Z" fill="#42A0F0"/>
<path fill-rule="evenodd" clip-rule="evenodd" d="M184.195 314.915C185.739 313.444 188.183 313.504 189.654 315.048L202.725 328.77C204.196 330.314 204.137 332.758 202.593 334.229C201.049 335.7 198.604 335.641 197.133 334.097L184.062 320.375C182.591 318.831 182.651 316.386 184.195 314.915Z" fill="#42A0F0"/>
<path fill-rule="evenodd" clip-rule="evenodd" d="M189.566 314.958C191.086 316.453 191.107 318.898 189.612 320.419L176.119 334.141C174.624 335.661 172.179 335.682 170.659 334.187C169.138 332.691 169.117 330.246 170.612 328.726L184.105 315.004C185.6 313.483 188.045 313.463 189.566 314.958Z" fill="#42A0F0"/>
<path fill-rule="evenodd" clip-rule="evenodd" d="M223.024 275.342C224.077 277.196 223.44 279.575 221.601 280.655L155.872 319.249C154.033 320.329 151.688 319.701 150.636 317.846C149.583 315.991 150.22 313.613 152.059 312.533L217.788 273.939C219.627 272.859 221.971 273.487 223.024 275.342Z" fill="#42A0F0"/>
<path fill-rule="evenodd" clip-rule="evenodd" d="M225.487 292.192C224.955 294.273 222.861 295.536 220.809 295.012L202.589 290.36C200.538 289.837 199.306 287.725 199.838 285.644C200.37 283.563 202.465 282.3 204.516 282.824L222.736 287.475C224.787 287.999 226.019 290.111 225.487 292.192Z" fill="#42A0F0"/>
<path fill-rule="evenodd" clip-rule="evenodd" d="M209.482 264.088C211.53 264.627 212.746 266.748 212.198 268.825L207.26 287.569C206.713 289.647 204.609 290.894 202.562 290.355C200.515 289.815 199.299 287.694 199.846 285.617L204.785 266.873C205.332 264.796 207.435 263.549 209.482 264.088Z" fill="#42A0F0"/>
<path fill-rule="evenodd" clip-rule="evenodd" d="M169.546 303.432C171.584 304.004 172.766 306.144 172.187 308.213L167.037 326.586C166.458 328.654 164.335 329.868 162.297 329.296C160.259 328.724 159.076 326.583 159.656 324.515L164.805 306.141C165.385 304.073 167.507 302.86 169.546 303.432Z" fill="#42A0F0"/>
<path fill-rule="evenodd" clip-rule="evenodd" d="M172.193 308.182C171.629 310.255 169.515 311.484 167.473 310.927L149.042 305.904C146.999 305.348 145.801 303.216 146.366 301.144C146.93 299.071 149.044 297.842 151.086 298.399L169.517 303.421C171.56 303.978 172.758 306.109 172.193 308.182Z" fill="#42A0F0"/>
<path fill-rule="evenodd" clip-rule="evenodd" d="M222.663 317.845C221.61 319.7 219.265 320.328 217.426 319.248L151.698 280.654C149.858 279.574 149.221 277.195 150.274 275.341C151.327 273.486 153.671 272.858 155.51 273.938L221.239 312.532C223.078 313.611 223.716 315.99 222.663 317.845Z" fill="#42A0F0"/>
<path fill-rule="evenodd" clip-rule="evenodd" d="M209.54 328.436C207.502 329.008 205.379 327.795 204.8 325.726L199.65 307.353C199.071 305.285 200.253 303.144 202.291 302.572C204.33 302 206.452 303.213 207.032 305.282L212.181 323.655C212.761 325.724 211.578 327.864 209.54 328.436Z" fill="#42A0F0"/>
<path fill-rule="evenodd" clip-rule="evenodd" d="M225.471 300.292C226.035 302.365 224.837 304.496 222.795 305.053L204.364 310.075C202.321 310.632 200.208 309.403 199.643 307.33C199.079 305.258 200.277 303.126 202.319 302.569L220.75 297.547C222.793 296.99 224.906 298.219 225.471 300.292Z" fill="#42A0F0"/>
<path fill-rule="evenodd" clip-rule="evenodd" d="M172.002 284.792C172.534 286.874 171.303 288.985 169.251 289.509L151.031 294.161C148.98 294.684 146.886 293.422 146.354 291.34C145.822 289.259 147.053 287.147 149.104 286.624L167.325 281.972C169.376 281.448 171.47 282.711 172.002 284.792Z" fill="#42A0F0"/>
<path fill-rule="evenodd" clip-rule="evenodd" d="M169.275 289.497C167.228 290.036 165.124 288.789 164.577 286.712L159.639 267.968C159.091 265.89 160.307 263.769 162.355 263.23C164.402 262.691 166.505 263.938 167.052 266.015L171.991 284.76C172.538 286.837 171.322 288.958 169.275 289.497Z" fill="#42A0F0"/>
<path fill-rule="evenodd" clip-rule="evenodd" d="M335.58 253.819C337.713 253.819 339.442 255.548 339.442 257.68V334.868C339.442 337.001 337.713 338.73 335.58 338.73C333.448 338.73 331.719 337.001 331.719 334.868V257.68C331.719 255.548 333.448 253.819 335.58 253.819Z" fill="#42A0F0"/>
<path fill-rule="evenodd" clip-rule="evenodd" d="M351.161 260.03C352.705 261.501 352.765 263.945 351.294 265.489L338.222 279.211C336.752 280.755 334.307 280.815 332.763 279.344C331.219 277.873 331.16 275.428 332.63 273.884L345.702 260.162C347.173 258.618 349.617 258.559 351.161 260.03Z" fill="#42A0F0"/>
<path fill-rule="evenodd" clip-rule="evenodd" d="M319.226 260.072C320.747 258.577 323.191 258.598 324.687 260.118L338.179 273.84C339.674 275.361 339.654 277.806 338.133 279.301C336.612 280.796 334.168 280.776 332.672 279.255L319.18 265.533C317.685 264.013 317.705 261.568 319.226 260.072Z" fill="#42A0F0"/>
<path fill-rule="evenodd" clip-rule="evenodd" d="M332.763 314.915C334.307 313.444 336.752 313.504 338.222 315.048L351.294 328.77C352.765 330.314 352.705 332.758 351.161 334.229C349.617 335.7 347.173 335.641 345.702 334.097L332.63 320.375C331.16 318.831 331.219 316.386 332.763 314.915Z" fill="#42A0F0"/>
<path fill-rule="evenodd" clip-rule="evenodd" d="M338.133 314.958C339.654 316.453 339.674 318.898 338.179 320.419L324.687 334.141C323.191 335.661 320.747 335.682 319.226 334.187C317.705 332.691 317.685 330.246 319.18 328.726L332.672 315.004C334.168 313.483 336.612 313.463 338.133 314.958Z" fill="#42A0F0"/>
<path fill-rule="evenodd" clip-rule="evenodd" d="M371.592 275.345C372.645 277.2 372.008 279.579 370.169 280.659L304.44 319.253C302.601 320.332 300.256 319.704 299.203 317.85C298.151 315.995 298.788 313.616 300.627 312.536L366.356 273.943C368.195 272.863 370.539 273.491 371.592 275.345Z" fill="#42A0F0"/>
<path fill-rule="evenodd" clip-rule="evenodd" d="M374.055 292.194C373.523 294.275 371.428 295.538 369.377 295.014L351.157 290.363C349.106 289.839 347.874 287.727 348.406 285.646C348.938 283.565 351.032 282.302 353.084 282.826L371.304 287.478C373.355 288.001 374.587 290.113 374.055 292.194Z" fill="#42A0F0"/>
<path fill-rule="evenodd" clip-rule="evenodd" d="M358.045 264.091C360.093 264.631 361.309 266.752 360.761 268.829L355.823 287.573C355.276 289.65 353.172 290.897 351.125 290.358C349.078 289.819 347.862 287.698 348.409 285.621L353.348 266.877C353.895 264.799 355.998 263.552 358.045 264.091Z" fill="#42A0F0"/>
<path fill-rule="evenodd" clip-rule="evenodd" d="M318.113 303.437C320.152 304.009 321.334 306.15 320.754 308.218L315.605 326.592C315.026 328.66 312.903 329.873 310.865 329.301C308.827 328.729 307.644 326.589 308.224 324.52L313.373 306.147C313.953 304.078 316.075 302.865 318.113 303.437Z" fill="#42A0F0"/>
<path fill-rule="evenodd" clip-rule="evenodd" d="M320.761 308.188C320.197 310.26 318.083 311.489 316.041 310.933L297.61 305.91C295.567 305.353 294.369 303.222 294.934 301.149C295.498 299.077 297.612 297.848 299.654 298.404L318.085 303.427C320.128 303.983 321.326 306.115 320.761 308.188Z" fill="#42A0F0"/>
<path fill-rule="evenodd" clip-rule="evenodd" d="M371.23 317.845C370.177 319.7 367.833 320.328 365.994 319.248L300.265 280.654C298.426 279.574 297.789 277.195 298.841 275.341C299.894 273.486 302.239 272.858 304.078 273.938L369.807 312.532C371.646 313.611 372.283 315.99 371.23 317.845Z" fill="#42A0F0"/>
<path fill-rule="evenodd" clip-rule="evenodd" d="M358.107 328.436C356.069 329.008 353.947 327.795 353.367 325.726L348.218 307.353C347.638 305.285 348.821 303.144 350.859 302.572C352.897 302 355.019 303.213 355.599 305.282L360.748 323.655C361.328 325.724 360.146 327.864 358.107 328.436Z" fill="#42A0F0"/>
<path fill-rule="evenodd" clip-rule="evenodd" d="M374.039 300.292C374.603 302.365 373.405 304.496 371.362 305.053L352.932 310.075C350.889 310.632 348.776 309.403 348.211 307.33C347.646 305.258 348.845 303.126 350.887 302.569L369.318 297.547C371.361 296.99 373.474 298.219 374.039 300.292Z" fill="#42A0F0"/>
<path fill-rule="evenodd" clip-rule="evenodd" d="M320.57 284.794C321.102 286.876 319.871 288.987 317.819 289.511L299.599 294.162C297.548 294.686 295.454 293.424 294.921 291.342C294.389 289.261 295.621 287.149 297.672 286.626L315.893 281.974C317.944 281.45 320.038 282.713 320.57 284.794Z" fill="#42A0F0"/>
<path fill-rule="evenodd" clip-rule="evenodd" d="M317.847 289.501C315.8 290.04 313.697 288.793 313.149 286.716L308.211 267.971C307.664 265.894 308.88 263.773 310.927 263.234C312.974 262.695 315.077 263.942 315.625 266.019L320.563 284.763C321.111 286.841 319.895 288.962 317.847 289.501Z" fill="#42A0F0"/>
<g filter="url(#filter0_b_2558_3344)">
<path d="M107.165 365.804C80.7823 365.784 55.4297 355.723 36.4151 337.728C17.4006 319.732 6.19821 295.197 5.15326 269.259C4.10831 243.321 13.3018 217.99 30.809 198.57C48.3163 179.151 72.78 167.147 99.0788 165.073C102.829 139.017 114.788 114.773 133.272 95.7534C151.756 76.7333 175.836 63.8937 202.123 59.0409C228.411 54.1881 255.583 57.5664 279.818 68.7005C304.052 79.8346 324.129 98.1641 337.223 121.11C361.24 112.93 387.19 111.974 411.762 118.365C436.333 124.756 458.413 138.203 475.185 156.991C491.957 175.78 502.661 199.058 505.931 223.857C509.201 248.656 504.89 273.851 493.546 296.229C486.89 316.446 473.894 334.07 456.426 346.569C438.957 359.069 417.913 365.803 396.313 365.804H107.165Z" fill="#ECECEC" fill-opacity="0.4"/>
<path d="M396.315 364.407C407.282 364.407 418.065 362.684 428.364 359.286C438.324 355.999 447.674 351.204 456.156 345.033C464.539 338.933 471.889 331.625 477.999 323.314C484.186 314.899 488.962 305.642 492.196 295.8L492.229 295.699L492.278 295.604C496.578 287.15 499.89 278.206 502.12 269.022C504.416 259.572 505.579 249.807 505.579 239.998C505.579 231.556 504.715 223.12 503.01 214.924C501.349 206.937 498.871 199.081 495.643 191.573C492.474 184.202 488.552 177.092 483.986 170.441C479.462 163.853 474.267 157.658 468.545 152.028C462.823 146.398 456.526 141.287 449.831 136.836C443.071 132.343 435.845 128.484 428.353 125.366C420.723 122.19 412.738 119.752 404.62 118.117C396.29 116.44 387.716 115.59 379.136 115.59C364.93 115.59 350.985 117.89 337.69 122.427L336.568 122.809L335.986 121.791C325.166 102.862 309.428 86.9646 290.472 75.8184C280.886 70.1815 270.587 65.8254 259.861 62.8713C248.796 59.8237 237.303 58.2785 225.7 58.2785C210.094 58.2785 194.86 61.042 180.421 66.4923C166.473 71.7575 153.677 79.3632 142.39 89.0982C131.167 98.7772 121.854 110.198 114.709 123.042C107.388 136.202 102.603 150.407 100.487 165.263L100.329 166.375L99.1914 166.462C86.4644 167.442 74.2195 170.739 62.7968 176.261C51.6977 181.627 41.7866 188.884 33.3388 197.832C15.9804 216.217 6.42071 240.171 6.42071 265.281C6.42071 278.664 9.08421 291.645 14.3373 303.865C16.8621 309.738 19.9872 315.403 23.6258 320.702C27.23 325.951 31.3693 330.887 35.9286 335.373C40.488 339.859 45.5049 343.932 50.8398 347.478C56.2256 351.058 61.9831 354.133 67.9524 356.617C80.372 361.786 93.5656 364.407 107.167 364.407H396.315ZM396.313 365.804H107.165C50.7405 365.804 5 320.798 5 265.281C5 212.441 46.4326 169.127 99.0788 165.073C107.787 103.933 161.16 56.8806 225.7 56.8806C273.581 56.8806 315.313 82.7775 337.223 121.11C350.354 116.63 364.456 114.192 379.136 114.192C449.753 114.192 507 170.518 507 239.998C507 260.21 502.155 279.306 493.546 296.229C480.281 336.601 441.762 365.804 396.313 365.804Z" fill="#ECECEC" fill-opacity="0.4"/>
<path d="M107.165 365.654H396.313C417.882 365.653 438.895 358.929 456.338 346.447C456.473 346.351 456.608 346.254 456.743 346.157C473.769 333.82 486.759 316.404 493.404 296.182L493.407 296.171L493.413 296.161C504.742 273.81 509.049 248.645 505.783 223.877C502.516 199.108 491.826 175.857 475.073 157.091C458.321 138.325 436.267 124.893 411.724 118.51C403.142 116.278 394.391 114.943 385.614 114.501C383.468 114.395 381.309 114.342 379.136 114.342C371.98 114.342 364.962 114.922 358.126 116.036C351.069 117.189 344.092 118.929 337.272 121.252L337.154 121.292L337.093 121.185C337.091 121.182 337.089 121.178 337.088 121.175C327.906 105.116 315.242 91.2422 300.102 80.5465C293.733 76.0571 286.926 72.1316 279.755 68.8368C255.549 57.7157 228.408 54.3412 202.151 59.1884C179.52 63.3661 158.528 73.4698 141.34 88.3442C135.836 93.1128 130.752 98.3403 126.15 103.966C111.794 121.535 102.46 142.639 99.2279 165.09L107.165 365.654ZM107.165 365.654C80.8204 365.634 55.5048 355.588 36.5183 337.619C17.5318 319.65 6.3465 295.152 5.30314 269.253C4.25978 243.354 13.4392 218.062 30.9205 198.671C48.4018 179.28 72.8297 167.294 99.0905 165.222L99.2101 165.213M107.165 365.654L99.2101 165.213M99.2101 165.213L99.2272 165.094M99.2101 165.213L99.2272 165.094M99.2272 165.094C99.2272 165.094 99.2273 165.094 99.2273 165.094L99.2272 165.094ZM492.339 295.846L492.196 295.8L492.339 295.846L492.368 295.757L492.411 295.672C496.717 287.207 500.033 278.253 502.266 269.058C504.564 259.596 505.729 249.819 505.729 239.998C505.729 231.546 504.864 223.1 503.157 214.894C501.494 206.897 499.012 199.031 495.781 191.514C492.608 184.134 488.681 177.015 484.109 170.356C479.58 163.761 474.379 157.558 468.65 151.921C462.921 146.284 456.617 141.167 449.914 136.711C443.146 132.212 435.911 128.349 428.411 125.227C420.771 122.048 412.777 119.606 404.65 117.97C396.31 116.291 387.726 115.44 379.136 115.44C364.914 115.44 350.953 117.743 337.641 122.285L336.637 122.628L336.116 121.717C325.283 102.764 309.526 86.8484 290.548 75.6891C280.951 70.0455 270.64 65.6843 259.901 62.7267C248.823 59.6755 237.316 58.1285 225.7 58.1285C210.076 58.1285 194.824 60.8952 180.368 66.3519C166.403 71.6233 153.592 79.2381 142.292 88.9846C131.056 98.6751 121.732 110.109 114.578 122.969C107.248 136.145 102.457 150.367 100.339 165.241L100.198 166.234L99.1799 166.313C86.4343 167.294 74.1712 170.596 62.7316 176.126C51.616 181.5 41.6901 188.768 33.2298 197.729C15.8453 216.142 6.27071 240.132 6.27071 265.281C6.27071 278.684 8.93831 291.685 14.1995 303.924C16.7282 309.806 19.8581 315.48 23.5021 320.787C27.1119 326.044 31.2573 330.988 35.8234 335.48C40.3896 339.973 45.4139 344.052 50.7568 347.603C56.1506 351.189 61.9166 354.268 67.8948 356.756C80.3328 361.932 93.546 364.557 107.167 364.557H396.315C407.298 364.557 418.097 362.831 428.411 359.428C438.386 356.137 447.75 351.335 456.244 345.154C464.64 339.045 472 331.727 478.12 323.403C484.316 314.975 489.1 305.704 492.339 295.846ZM492.096 295.631L492.09 295.641L492.087 295.652L492.054 295.753C488.825 305.58 484.056 314.823 477.878 323.225C471.777 331.524 464.439 338.82 456.067 344.912C447.599 351.074 438.262 355.862 428.317 359.143C418.033 362.536 407.266 364.257 396.315 364.257H107.167C93.5852 364.257 80.4111 361.64 68.01 356.479C62.0496 353.998 56.3007 350.928 50.9228 347.353C45.5958 343.812 40.5863 339.746 36.0338 335.266C31.4814 330.787 27.3482 325.858 23.7494 320.617C20.1164 315.326 16.996 309.67 14.4751 303.806C9.23011 291.605 6.57071 278.643 6.57071 265.281C6.57071 240.21 16.1156 216.292 33.4479 197.935C41.8831 189.001 51.7794 181.754 62.8621 176.396C74.2678 170.883 86.4945 167.591 99.2029 166.612L100.341 166.524L100.461 166.515L100.478 166.396L100.636 165.284C102.749 150.446 107.528 136.259 114.84 123.115C121.977 110.286 131.278 98.8794 142.488 89.2118C153.762 79.4883 166.542 71.8916 180.474 66.6326C194.896 61.1888 210.112 58.4285 225.7 58.4285C237.289 58.4285 248.769 59.9719 259.822 63.016C270.535 65.9666 280.821 70.3174 290.396 75.9477C309.33 87.0808 325.049 102.959 335.856 121.866L336.438 122.884L336.499 122.991L336.617 122.951L337.738 122.569C351.018 118.037 364.946 115.74 379.136 115.74C387.706 115.74 396.27 116.589 404.591 118.264C412.699 119.897 420.674 122.333 428.295 125.504C435.778 128.618 442.996 132.473 449.748 136.961C456.435 141.406 462.724 146.512 468.44 152.135C474.155 157.759 479.344 163.946 483.862 170.526C488.423 177.169 492.341 184.27 495.505 191.633C498.729 199.131 501.204 206.977 502.864 214.955C504.566 223.141 505.429 231.566 505.429 239.998C505.429 249.795 504.267 259.549 501.975 268.987C499.747 278.16 496.439 287.092 492.144 295.536L492.096 295.631Z" stroke="#ECECEC" stroke-opacity="0.5" stroke-width="0.3"/>
</g>
<defs>
<filter id="filter0_b_2558_3344" x="2" y="53.8806" width="508" height="314.923" filterUnits="userSpaceOnUse" color-interpolation-filters="sRGB">
<feFlood flood-opacity="0" result="BackgroundImageFix"/>
<feGaussianBlur in="BackgroundImageFix" stdDeviation="1.5"/>
<feComposite in2="SourceAlpha" operator="in" result="effect1_backgroundBlur_2558_3344"/>
<feBlend mode="normal" in="SourceGraphic" in2="effect1_backgroundBlur_2558_3344" result="shape"/>
</filter>
</defs>
</svg>
