<svg width="512" height="512" viewBox="0 0 512 512" fill="none" xmlns="http://www.w3.org/2000/svg">
<g opacity="0.9">
<path d="M140.725 349.229C212.307 349.229 270.335 291.236 270.335 219.699C270.335 148.161 212.307 90.1677 140.725 90.1677C69.1439 90.1677 11.1157 148.161 11.1157 219.699C11.1157 291.236 69.1439 349.229 140.725 349.229Z" fill="url(#paint0_linear_2558_3349)"/>
</g>
<g filter="url(#filter0_b_2558_3349)">
<path d="M135.725 442.457C111.226 442.439 87.6845 433.097 70.0281 416.386C52.3717 399.676 41.9696 376.894 40.9992 352.808C40.0289 328.723 48.5657 305.202 64.8225 287.169C81.0792 269.136 103.796 257.99 128.216 256.064C131.698 231.869 142.803 209.358 159.966 191.696C177.13 174.034 199.49 162.112 223.9 157.606C248.31 153.1 273.541 156.237 296.045 166.575C318.548 176.914 337.191 193.935 349.35 215.242C371.652 207.646 395.748 206.758 418.564 212.692C441.381 218.627 461.884 231.113 477.458 248.56C493.032 266.006 502.971 287.622 506.007 310.649C509.044 333.677 505.04 357.072 494.507 377.852C488.326 396.625 476.259 412.99 460.038 424.596C443.817 436.203 424.276 442.456 404.219 442.457H135.725Z" fill="#ECECEC" fill-opacity="0.4"/>
<path d="M404.221 441.16C414.404 441.16 424.417 439.56 433.981 436.404C443.229 433.353 451.912 428.9 459.787 423.17C467.572 417.505 474.396 410.72 480.07 403.002C485.815 395.188 490.251 386.592 493.253 377.453L493.284 377.36L493.329 377.272C497.322 369.421 500.397 361.117 502.469 352.589C504.6 343.814 505.681 334.746 505.681 325.637C505.681 317.799 504.878 309.965 503.295 302.354C501.753 294.938 499.451 287.643 496.454 280.672C493.512 273.827 489.87 267.225 485.629 261.049C481.429 254.932 476.605 249.179 471.291 243.951C465.978 238.723 460.131 233.977 453.914 229.844C447.637 225.672 440.927 222.088 433.97 219.193C426.885 216.245 419.471 213.98 411.933 212.462C404.198 210.905 396.236 210.115 388.269 210.115C375.078 210.115 362.129 212.251 349.783 216.464L348.742 216.82L348.201 215.874C338.154 198.297 323.54 183.535 305.938 173.185C297.037 167.951 287.473 163.906 277.514 161.163C267.239 158.333 256.567 156.898 245.793 156.898C231.301 156.898 217.156 159.464 203.748 164.525C190.796 169.414 178.914 176.477 168.433 185.516C158.012 194.504 149.364 205.108 142.729 217.035C135.932 229.255 131.489 242.446 129.524 256.24L129.377 257.273L128.32 257.354C116.502 258.264 105.132 261.326 94.5254 266.453C84.2191 271.436 75.0159 278.175 67.1716 286.483C51.0531 303.555 42.1762 325.798 42.1762 349.115C42.1762 361.541 44.6494 373.595 49.5273 384.942C51.8718 390.396 54.7736 395.656 58.1523 400.577C61.4991 405.451 65.3428 410.035 69.5764 414.2C73.81 418.366 78.4686 422.148 83.4225 425.441C88.4236 428.765 93.7698 431.62 99.3127 433.927C110.845 438.726 123.096 441.16 135.726 441.16H404.221ZM404.219 442.457H135.725C83.3303 442.457 40.8569 400.666 40.8569 349.115C40.8569 300.049 79.3301 259.829 128.216 256.064C136.302 199.291 185.862 155.6 245.793 155.6C290.254 155.6 329.005 179.647 349.35 215.242C361.543 211.081 374.638 208.817 388.269 208.817C453.842 208.817 507 261.12 507 325.637C507 344.406 502.501 362.138 494.507 377.852C482.189 415.341 446.422 442.457 404.219 442.457Z" fill="#ECECEC" fill-opacity="0.4"/>
<path d="M404.219 442.307H135.725C111.264 442.289 87.7596 432.961 70.1312 416.278C52.503 399.594 42.1178 376.848 41.1491 352.802C40.1804 328.756 48.7032 305.273 64.9339 287.269C81.1607 269.27 103.834 258.142 128.21 256.215C128.215 256.214 128.221 256.214 128.227 256.214C128.227 256.214 128.227 256.213 128.228 256.213L128.347 256.204L128.364 256.085C131.365 235.238 140.032 215.642 153.362 199.328C157.634 194.106 162.352 189.254 167.461 184.828C183.421 171.015 202.913 161.633 223.927 157.753C248.307 153.253 273.507 156.386 295.982 166.712C302.643 169.772 308.965 173.418 314.88 177.589C328.938 187.521 340.696 200.404 349.22 215.316L349.281 215.424L349.398 215.384C349.401 215.383 349.403 215.382 349.405 215.381C355.733 213.227 362.205 211.613 368.752 210.542C375.101 209.506 381.621 208.967 388.269 208.967C390.286 208.967 392.292 209.017 394.284 209.115C402.434 209.526 410.558 210.765 418.526 212.838C441.314 218.764 461.791 231.235 477.346 248.66C492.9 266.084 502.826 287.671 505.859 310.669C508.891 333.666 504.893 357.031 494.373 377.784L494.368 377.794L494.365 377.805C488.193 396.587 476.126 412.762 460.309 424.217C460.19 424.303 460.07 424.389 459.951 424.474C443.755 436.063 424.245 442.306 404.219 442.307ZM493.15 377.292L493.145 377.302L493.142 377.313L493.111 377.406C490.113 386.53 485.685 395.112 479.95 402.913C474.285 410.619 467.471 417.393 459.699 423.049C451.836 428.77 443.167 433.216 433.934 436.262C424.385 439.412 414.389 441.01 404.221 441.01H135.726C123.116 441.01 110.884 438.58 99.3704 433.788C93.8363 431.485 88.4986 428.635 83.5055 425.316C78.5596 422.028 73.9084 418.252 69.6816 414.093C65.4548 409.934 61.6173 405.358 58.276 400.492C54.9028 395.579 52.0057 390.328 49.6651 384.883C44.7953 373.555 42.3262 361.521 42.3262 349.115C42.3262 325.837 51.1882 303.63 67.2806 286.586C75.1124 278.291 84.3008 271.563 94.5907 266.588C105.181 261.469 116.533 258.412 128.332 257.504L129.388 257.422L129.508 257.413L129.525 257.294L129.672 256.261C131.635 242.485 136.072 229.312 142.86 217.108C149.487 205.197 158.123 194.606 168.531 185.63C178.999 176.602 190.865 169.548 203.801 164.665C217.191 159.611 231.319 157.048 245.793 157.048C256.553 157.048 267.212 158.481 277.474 161.307C287.421 164.047 296.972 168.087 305.862 173.314C323.442 183.651 338.037 198.394 348.071 215.948L348.611 216.894L348.673 217.001L348.79 216.961L349.832 216.606C362.162 212.399 375.094 210.265 388.269 210.265C396.226 210.265 404.178 211.054 411.903 212.609C419.432 214.125 426.837 216.387 433.913 219.332C440.861 222.223 447.562 225.802 453.831 229.969C460.04 234.097 465.88 238.837 471.186 244.058C476.493 249.279 481.311 255.025 485.506 261.134C489.741 267.302 493.378 273.895 496.316 280.731C499.309 287.693 501.608 294.978 503.148 302.385C504.729 309.986 505.531 317.809 505.531 325.637C505.531 334.734 504.451 343.79 502.323 352.553C500.254 361.07 497.183 369.363 493.195 377.203L493.15 377.292ZM493.463 377.34L493.329 377.272L493.463 377.34C497.461 369.479 500.54 361.163 502.614 352.624C504.749 343.837 505.831 334.758 505.831 325.637C505.831 317.788 505.027 309.945 503.442 302.324C501.897 294.898 499.593 287.593 496.592 280.612C493.646 273.758 489.999 267.148 485.753 260.964C481.547 254.839 476.717 249.079 471.397 243.844C466.076 238.61 460.222 233.857 453.997 229.719C447.712 225.542 440.994 221.953 434.028 219.055C426.934 216.102 419.51 213.835 411.963 212.315C404.218 210.756 396.246 209.965 388.269 209.965C375.061 209.965 362.096 212.104 349.735 216.322L348.81 216.638L348.331 215.8C338.271 198.199 323.638 183.419 306.014 173.056C297.102 167.815 287.526 163.765 277.554 161.018C267.266 158.185 256.58 156.748 245.793 156.748C231.283 156.748 217.12 159.317 203.695 164.385C190.727 169.28 178.83 176.351 168.335 185.403C157.901 194.402 149.242 205.02 142.598 216.962C135.792 229.198 131.343 242.406 129.375 256.219L129.245 257.133L128.309 257.205C116.472 258.116 105.084 261.183 94.4601 266.318C84.1374 271.309 74.9194 278.058 67.0625 286.38C50.9179 303.48 42.0262 325.76 42.0262 349.115C42.0262 361.562 44.5035 373.636 49.3894 385.002C51.7378 390.464 54.6445 395.733 58.0286 400.662C61.3809 405.544 65.2307 410.135 69.4712 414.307C73.7116 418.479 78.3776 422.267 83.3394 425.565C88.3486 428.895 93.7033 431.755 99.2551 434.065C110.806 438.872 123.077 441.31 135.726 441.31H404.221C414.42 441.31 424.449 439.707 434.028 436.547C443.291 433.491 451.987 429.031 459.875 423.291C467.673 417.618 474.508 410.821 480.191 403.091C485.945 395.264 490.388 386.654 493.396 377.5L493.423 377.417L493.463 377.34Z" stroke="#ECECEC" stroke-opacity="0.5" stroke-width="0.3"/>
</g>
<g opacity="0.7">
<path fill-rule="evenodd" clip-rule="evenodd" d="M385.343 269.64C385.343 266.067 388.108 263.171 391.519 263.171H401.968C415.178 263.171 425.888 274.388 425.888 288.225V290.427C425.888 304.264 415.178 315.481 401.968 315.481H340.77C337.36 315.481 334.595 312.585 334.595 309.012C334.595 305.44 337.36 302.544 340.77 302.544H401.968C408.357 302.544 413.536 297.119 413.536 290.427V288.225C413.536 281.533 408.357 276.108 401.968 276.108H391.519C388.108 276.108 385.343 273.212 385.343 269.64ZM393.801 400.132C393.801 403.704 396.566 406.6 399.977 406.6H410.426C423.636 406.6 434.346 395.383 434.346 381.546V379.344C434.346 365.508 423.636 354.291 410.426 354.291H312.577C309.166 354.291 306.401 357.187 306.401 360.759C306.401 364.331 309.166 367.227 312.577 367.227H410.426C416.815 367.227 421.994 372.652 421.994 379.344V381.546C421.994 388.238 416.815 393.663 410.426 393.663H399.977C396.566 393.663 393.801 396.559 393.801 400.132ZM290.022 367.227C293.433 367.227 296.198 364.331 296.198 360.759C296.198 357.187 293.433 354.291 290.022 354.291H269.347C265.936 354.291 263.171 357.187 263.171 360.759C263.171 364.331 265.936 367.227 269.347 367.227H290.022ZM435.286 334.886C435.286 338.458 432.521 341.354 429.11 341.354H397.157C393.747 341.354 390.982 338.458 390.982 334.886C390.982 331.313 393.747 328.417 397.157 328.417H429.11C432.521 328.417 435.286 331.313 435.286 334.886ZM372.723 341.354C376.134 341.354 378.899 338.458 378.899 334.886C378.899 331.313 376.134 328.417 372.723 328.417L269.347 328.417C265.936 328.417 263.171 331.313 263.171 334.886C263.171 338.458 265.936 341.354 269.347 341.354L372.723 341.354Z" fill="url(#paint1_linear_2558_3349)"/>
</g>
<defs>
<filter id="filter0_b_2558_3349" x="32.8569" y="147.6" width="482.143" height="302.857" filterUnits="userSpaceOnUse" color-interpolation-filters="sRGB">
<feFlood flood-opacity="0" result="BackgroundImageFix"/>
<feGaussianBlur in="BackgroundImageFix" stdDeviation="4"/>
<feComposite in2="SourceAlpha" operator="in" result="effect1_backgroundBlur_2558_3349"/>
<feBlend mode="normal" in="SourceGraphic" in2="effect1_backgroundBlur_2558_3349" result="shape"/>
</filter>
<linearGradient id="paint0_linear_2558_3349" x1="140.725" y1="90.1677" x2="140.725" y2="349.229" gradientUnits="userSpaceOnUse">
<stop stop-color="#FDC500"/>
<stop offset="1" stop-color="#FD8900"/>
</linearGradient>
<linearGradient id="paint1_linear_2558_3349" x1="287.741" y1="377.573" x2="425.914" y2="237.625" gradientUnits="userSpaceOnUse">
<stop stop-color="#6C95D2"/>
<stop offset="1" stop-color="#D5EBFF"/>
</linearGradient>
</defs>
</svg>
